<svg width="86" height="21" viewBox="0 0 86 21" fill="none" xmlns="http://www.w3.org/2000/svg">
<path d="M4.63803 17.6568H16.4327L12.7897 14.3288H16.0558C16.4277 14.3288 16.7772 14.4606 17.0409 14.7016L20.4824 17.8455C20.8767 18.2069 21.0943 18.6865 21.0943 19.1958C21.0943 19.705 20.6317 20.1391 20.0608 20.1391H0.0211444C0.136815 18.8877 0.730095 17.7182 1.71019 16.8225L10.7412 8.56953L16.4563 3.34565H4.61315L8.28099 6.69639H5.01489C4.64425 6.69639 4.29475 6.56454 4.03231 6.32472L0.6791 3.2604C0.241292 2.86031 0 2.32838 0 1.76348C0 1.26678 0.442783 0.863281 0.985068 0.863281H21.0943V1.57708C21.0943 2.24882 20.8083 2.87964 20.2884 3.35361L4.63803 17.6568Z" fill="white"/>
<path d="M24.3379 0.866356H38.6262V3.57654H27.4896V8.88618H37.0488V11.5964H27.4896V17.429H38.9417V20.1391H24.3379V0.863281V0.866356Z" fill="white"/>
<path d="M42.1895 20.1391V0.863281H45.4686L58.382 15.5555V0.863281H61.6612V20.1391H58.3516L45.4686 5.58842V20.1391H42.1895Z" fill="white"/>
<path d="M64.9062 10.5296C64.9062 4.91806 69.432 0.863281 75.4469 0.863281C81.4618 0.863281 86.0006 4.91806 86.0006 10.5296C86.0006 16.1411 81.5041 20.1391 75.4469 20.1391C69.3897 20.1391 64.9062 16.183 64.9062 10.5296ZM75.4469 17.3961C79.8228 17.3961 82.6934 14.6262 82.6934 10.5027C82.6934 6.37921 79.8228 3.60929 75.4469 3.60929C71.071 3.60929 68.2167 6.47781 68.2167 10.5027C68.2167 14.5276 71.1329 17.3961 75.4469 17.3961Z" fill="white"/>
</svg>
