<svg width="20" height="20" viewBox="0 0 20 20" fill="none" xmlns="http://www.w3.org/2000/svg">
<g clip-path="url(#clip0_847_1028)">
<path d="M10.0026 14.1654C8.84983 14.1654 7.86719 13.7591 7.05469 12.9466C6.24219 12.1341 5.83594 11.1515 5.83594 9.9987C5.83594 8.84592 6.24219 7.86328 7.05469 7.05078C7.86719 6.23828 8.84983 5.83203 10.0026 5.83203C11.1554 5.83203 12.138 6.23828 12.9505 7.05078C13.763 7.86328 14.1693 8.84592 14.1693 9.9987C14.1693 11.1515 13.763 12.1341 12.9505 12.9466C12.138 13.7591 11.1554 14.1654 10.0026 14.1654ZM1.46094 10.6237C1.28385 10.6237 1.13542 10.5635 1.01562 10.443C0.895833 10.3225 0.835938 10.1732 0.835938 9.99505C0.835938 9.81693 0.895833 9.66884 1.01562 9.55078C1.13542 9.43273 1.28385 9.3737 1.46094 9.3737H3.54427C3.72135 9.3737 3.86979 9.43394 3.98958 9.55443C4.10938 9.67493 4.16927 9.82423 4.16927 10.0023C4.16927 10.1805 4.10938 10.3286 3.98958 10.4466C3.86979 10.5647 3.72135 10.6237 3.54427 10.6237H1.46094ZM16.4609 10.6237C16.2839 10.6237 16.1354 10.5635 16.0156 10.443C15.8958 10.3225 15.8359 10.1732 15.8359 9.99505C15.8359 9.81693 15.8958 9.66884 16.0156 9.55078C16.1354 9.43273 16.2839 9.3737 16.4609 9.3737H18.5443C18.7214 9.3737 18.8698 9.43394 18.9896 9.55443C19.1094 9.67493 19.1693 9.82423 19.1693 10.0023C19.1693 10.1805 19.1094 10.3286 18.9896 10.4466C18.8698 10.5647 18.7214 10.6237 18.5443 10.6237H16.4609ZM9.99896 4.16536C9.82083 4.16536 9.67274 4.10547 9.55469 3.98568C9.43663 3.86589 9.3776 3.71745 9.3776 3.54036V1.45703C9.3776 1.27995 9.43785 1.13151 9.55833 1.01172C9.67883 0.891927 9.82814 0.832031 10.0063 0.832031C10.1844 0.832031 10.3325 0.891927 10.4505 1.01172C10.5686 1.13151 10.6276 1.27995 10.6276 1.45703V3.54036C10.6276 3.71745 10.5674 3.86589 10.4469 3.98568C10.3264 4.10547 10.1771 4.16536 9.99896 4.16536ZM9.99896 19.1654C9.82083 19.1654 9.67274 19.1055 9.55469 18.9857C9.43663 18.8659 9.3776 18.7174 9.3776 18.5404V16.457C9.3776 16.2799 9.43785 16.1315 9.55833 16.0117C9.67883 15.8919 9.82814 15.832 10.0063 15.832C10.1844 15.832 10.3325 15.8919 10.4505 16.0117C10.5686 16.1315 10.6276 16.2799 10.6276 16.457V18.5404C10.6276 18.7174 10.5674 18.8659 10.4469 18.9857C10.3264 19.1055 10.1771 19.1654 9.99896 19.1654ZM5.0026 5.8737L3.8151 4.70703C3.6901 4.58203 3.63018 4.43201 3.63533 4.25697C3.64047 4.08191 3.69968 3.93261 3.81296 3.80905C3.93651 3.68548 4.08582 3.6237 4.26088 3.6237C4.43592 3.6237 4.58594 3.6862 4.71094 3.8112L5.8776 4.9987C5.98872 5.1237 6.04427 5.26953 6.04427 5.4362C6.04427 5.60286 5.98872 5.74523 5.8776 5.86328C5.76649 5.98134 5.62413 6.04036 5.45052 6.04036C5.27691 6.04036 5.1276 5.98481 5.0026 5.8737ZM15.2943 16.1862L14.1276 14.9987C14.0165 14.8737 13.9609 14.7253 13.9609 14.5534C13.9609 14.3815 14.02 14.2383 14.138 14.1237C14.2561 13.9987 14.3984 13.9362 14.5651 13.9362C14.7318 13.9362 14.8776 13.9987 15.0026 14.1237L16.1901 15.2904C16.3151 15.4154 16.375 15.5654 16.3699 15.7404C16.3647 15.9155 16.3055 16.0648 16.1923 16.1883C16.0687 16.3119 15.9194 16.3737 15.7443 16.3737C15.5693 16.3737 15.4193 16.3112 15.2943 16.1862ZM14.1276 5.8737C14.0026 5.7487 13.9401 5.60286 13.9401 5.4362C13.9401 5.26953 14.0026 5.1237 14.1276 4.9987L15.2943 3.8112C15.4193 3.6862 15.5693 3.62627 15.7443 3.63143C15.9194 3.63657 16.0687 3.69577 16.1923 3.80905C16.3158 3.93261 16.3776 4.08191 16.3776 4.25697C16.3776 4.43201 16.3151 4.58203 16.1901 4.70703L15.0026 5.8737C14.8915 5.98481 14.7501 6.04036 14.5784 6.04036C14.4066 6.04036 14.2564 5.98481 14.1276 5.8737ZM3.81296 16.1883C3.68939 16.0648 3.6276 15.9155 3.6276 15.7404C3.6276 15.5654 3.6901 15.4154 3.8151 15.2904L5.0026 14.1237C5.12483 13.9987 5.26997 13.9362 5.43802 13.9362C5.60608 13.9362 5.74989 13.9987 5.86946 14.1237C5.99989 14.2487 6.0651 14.3945 6.0651 14.5612C6.0651 14.7279 6.0026 14.8737 5.8776 14.9987L4.71094 16.1862C4.58594 16.3112 4.43592 16.3711 4.26088 16.366C4.08582 16.3608 3.93651 16.3016 3.81296 16.1883Z" fill="white"/>
</g>
<defs>
<clipPath id="clip0_847_1028">
<rect width="20" height="20" fill="white"/>
</clipPath>
</defs>
</svg>
