<svg width="240" height="64" viewBox="0 0 240 64" fill="none" xmlns="http://www.w3.org/2000/svg">
<path d="M29.5703 46.8781C29.5706 46.3025 29.7416 45.7398 30.0617 45.2613C30.3818 44.7828 30.8365 44.4099 31.3685 44.1899C31.9004 43.9698 32.4857 43.9124 33.0502 44.0249C33.6148 44.1374 34.1334 44.4148 34.5403 44.8219C34.9473 45.2291 35.2243 45.7478 35.3365 46.3125C35.4487 46.8771 35.391 47.4623 35.1706 47.9941C34.9502 48.526 34.5771 48.9805 34.0984 49.3003C33.6198 49.6201 33.057 49.7908 32.4813 49.7908C32.099 49.7909 31.7204 49.7157 31.3672 49.5694C31.014 49.4232 30.693 49.2087 30.4227 48.9384C30.1524 48.6681 29.9379 48.3471 29.7917 47.9939C29.6454 47.6407 29.5702 47.2621 29.5703 46.8798" fill="white"/>
<path d="M21.3748 42.3237C21.7133 41.8582 22.1822 41.5035 22.7222 41.3045C23.2623 41.1055 23.8492 41.0711 24.4088 41.2056C24.9684 41.3401 25.4755 41.6376 25.8661 42.0603C26.2566 42.483 26.5131 43.012 26.603 43.5805C26.6929 44.149 26.6123 44.7313 26.3712 45.254C26.1302 45.7766 25.7396 46.216 25.2489 46.5167C24.7581 46.8174 24.1892 46.9658 23.6142 46.9431C23.0391 46.9205 22.4836 46.7279 22.018 46.3896C21.7087 46.1649 21.4468 45.8815 21.2471 45.5555C21.0474 45.2296 20.9138 44.8675 20.8541 44.4899C20.7944 44.1123 20.8096 43.7267 20.899 43.355C20.9883 42.9833 21.15 42.6329 21.3748 42.3237Z" fill="white"/>
<path d="M17.4216 33.822C17.969 33.6442 18.5568 33.6327 19.1108 33.789C19.6647 33.9453 20.1598 34.2623 20.5336 34.7C20.9074 35.1377 21.143 35.6763 21.2106 36.2479C21.2782 36.8195 21.1749 37.3982 20.9136 37.9111C20.6523 38.4239 20.2448 38.8477 19.7426 39.129C19.2405 39.4102 18.6662 39.5362 18.0924 39.4911C17.5186 39.446 16.9711 39.2318 16.5191 38.8755C16.0671 38.5192 15.7308 38.0369 15.5529 37.4895C15.4346 37.126 15.3892 36.7428 15.4191 36.3617C15.449 35.9806 15.5537 35.6091 15.7273 35.2685C15.9008 34.9279 16.1398 34.6249 16.4305 34.3767C16.7212 34.1285 17.058 33.94 17.4216 33.822Z" fill="white"/>
<path d="M19.2203 24.6189C19.7679 24.7967 20.2505 25.133 20.607 25.5851C20.9636 26.0373 21.178 26.585 21.2232 27.159C21.2684 27.733 21.1424 28.3075 20.8611 28.8099C20.5797 29.3123 20.1558 29.7199 19.6427 29.9813C19.1297 30.2427 18.5507 30.3461 17.9789 30.2784C17.4071 30.2107 16.8682 29.975 16.4304 29.601C15.9926 29.227 15.6756 28.7316 15.5194 28.1774C15.3631 27.6232 15.3748 27.0351 15.5528 26.4876C15.7914 25.7535 16.3119 25.1443 16.9996 24.7938C17.6874 24.4434 18.4862 24.3805 19.2203 24.6189Z" fill="white"/>
<path d="M26.0824 18.2311C26.4208 18.6969 26.6136 19.2526 26.6362 19.8279C26.6588 20.4032 26.5103 20.9723 26.2095 21.4632C25.9087 21.9541 25.4691 22.3448 24.9462 22.5859C24.4233 22.8269 23.8407 22.9075 23.272 22.8175C22.7034 22.7274 22.1742 22.4707 21.7514 22.0799C21.3286 21.689 21.0312 21.1816 20.8968 20.6218C20.7624 20.0619 20.7971 19.4748 20.9964 18.9346C21.1957 18.3945 21.5507 17.9255 22.0165 17.5871C22.6411 17.1334 23.4203 16.9463 24.1828 17.0671C24.9453 17.1879 25.6286 17.6066 26.0824 18.2311Z" fill="white"/>
<path d="M35.3923 17.0985C35.3923 17.6743 35.2216 18.2371 34.9018 18.7158C34.5819 19.1945 34.1272 19.5676 33.5953 19.7879C33.0634 20.0083 32.4781 20.0659 31.9134 19.9536C31.3487 19.8413 30.83 19.564 30.4229 19.1569C30.0158 18.7498 29.7386 18.2311 29.6262 17.6664C29.5139 17.1017 29.5716 16.5164 29.7919 15.9845C30.0122 15.4526 30.3853 14.998 30.8641 14.6781C31.3428 14.3582 31.9056 14.1875 32.4813 14.1875C32.8636 14.1874 33.2422 14.2626 33.5955 14.4089C33.9487 14.5551 34.2696 14.7695 34.54 15.0399C34.8103 15.3102 35.0247 15.6312 35.171 15.9844C35.3172 16.3376 35.3925 16.7162 35.3923 17.0985Z" fill="white"/>
<path d="M43.5884 21.6532C43.25 22.119 42.7811 22.474 42.2409 22.6733C41.7008 22.8726 41.1136 22.9073 40.5538 22.7729C39.9939 22.6385 39.4865 22.3411 39.0957 21.9183C38.7049 21.4955 38.4482 20.9663 38.3581 20.3976C38.268 19.829 38.3486 19.2464 38.5897 18.7235C38.8307 18.2006 39.2214 17.761 39.7124 17.4602C40.2033 17.1594 40.7724 17.0109 41.3477 17.0335C41.923 17.0561 42.4787 17.2489 42.9445 17.5873C43.569 18.0411 43.9877 18.7244 44.1085 19.4869C44.2292 20.2494 44.0422 21.0286 43.5884 21.6532Z" fill="white"/>
<path d="M47.5416 30.1546C46.9942 30.3324 46.4064 30.3439 45.8524 30.1876C45.2985 30.0313 44.8034 29.7143 44.4296 29.2767C44.0558 28.839 43.8202 28.3003 43.7526 27.7287C43.685 27.1572 43.7883 26.5784 44.0496 26.0656C44.3109 25.5528 44.7184 25.1289 45.2205 24.8477C45.7227 24.5664 46.297 24.4404 46.8708 24.4855C47.4445 24.5306 47.9921 24.7449 48.4441 25.1012C48.8961 25.4574 49.2323 25.9397 49.4103 26.4871C49.5285 26.8506 49.574 27.2339 49.5441 27.6149C49.5142 27.996 49.4095 28.3675 49.2359 28.7081C49.0624 29.0487 48.8234 29.3518 48.5327 29.6C48.242 29.8482 47.9052 30.0366 47.5416 30.1546Z" fill="white"/>
<path d="M45.7404 39.3555C45.1928 39.1776 44.7102 38.8414 44.3537 38.3893C43.9972 37.9371 43.7827 37.3894 43.7375 36.8154C43.6923 36.2414 43.8183 35.6669 44.0996 35.1645C44.381 34.6621 44.8049 34.2545 45.318 33.9931C45.831 33.7317 46.41 33.6283 46.9818 33.696C47.5536 33.7637 48.0925 33.9994 48.5303 34.3734C48.9681 34.7474 49.2851 35.2428 49.4414 35.797C49.5976 36.3512 49.5859 36.9392 49.4079 37.4868C49.1693 38.2209 48.6489 38.8301 47.9611 39.1805C47.2733 39.531 46.4746 39.5939 45.7404 39.3555Z" fill="white"/>
<path d="M38.8783 45.7472C38.5399 45.2814 38.3471 44.7257 38.3245 44.1504C38.3019 43.5751 38.4504 43.006 38.7512 42.5151C39.052 42.0242 39.4917 41.6335 40.0145 41.3924C40.5374 41.1514 41.12 41.0708 41.6887 41.1608C42.2573 41.2509 42.7865 41.5076 43.2093 41.8984C43.6321 42.2893 43.9295 42.7967 44.0639 43.3565C44.1983 43.9164 44.1636 44.5035 43.9643 45.0437C43.765 45.5838 43.41 46.0528 42.9442 46.3912C42.3196 46.8449 41.5404 47.032 40.7779 46.9112C40.0154 46.7904 39.3321 46.3717 38.8783 45.7472Z" fill="white"/>
<path d="M38.2882 54.9479C37.8958 54.7481 37.5715 54.4364 37.3563 54.0523C37.1411 53.6682 37.0446 53.2288 37.0791 52.7899C37.1136 52.3509 37.2775 51.9321 37.5501 51.5863C37.8226 51.2405 38.1916 50.9833 38.6104 50.8472C39.0291 50.7112 39.4788 50.7024 39.9026 50.8219C40.3264 50.9414 40.7052 51.184 40.9911 51.5188C41.277 51.8537 41.4572 52.2658 41.5088 52.703C41.5605 53.1403 41.4813 53.5831 41.2813 53.9753C41.0131 54.501 40.5472 54.8986 39.986 55.081C39.4248 55.2633 38.8141 55.2154 38.2882 54.9479Z" fill="white"/>
<path d="M45.1027 52.0301C44.6678 51.9613 44.2631 51.765 43.9398 51.4662C43.6164 51.1674 43.389 50.7793 43.2861 50.3512C43.1833 49.9231 43.2098 49.4741 43.3622 49.061C43.5146 48.6479 43.7861 48.2893 44.1423 48.0305C44.4985 47.7717 44.9235 47.6244 45.3635 47.6072C45.8034 47.5899 46.2386 47.7036 46.614 47.9337C46.9894 48.1638 47.2881 48.5001 47.4723 48.9C47.6565 49.2999 47.7181 49.7454 47.6491 50.1803C47.5564 50.7631 47.2361 51.2853 46.7587 51.6321C46.2812 51.9789 45.6856 52.1221 45.1027 52.0301Z" fill="white"/>
<path d="M50.6803 47.151C50.2454 47.22 49.7999 47.1585 49.4 46.9743C49.0001 46.79 48.6638 46.4913 48.4337 46.1159C48.2036 45.7406 48.0899 45.3054 48.1072 44.8654C48.1244 44.4254 48.2717 44.0005 48.5305 43.6443C48.7893 43.288 49.1479 43.0165 49.561 42.8641C49.9741 42.7118 50.4231 42.6853 50.8512 42.7881C51.2793 42.8909 51.6674 43.1184 51.9662 43.4417C52.265 43.7651 52.4613 44.1698 52.5301 44.6047C52.6218 45.1876 52.4786 45.783 52.1318 46.2604C51.785 46.7378 51.263 47.0581 50.6803 47.151Z" fill="white"/>
<path d="M54.475 40.7884C54.0827 40.9878 53.6401 41.0665 53.2032 41.0145C52.7662 40.9625 52.3544 40.7821 52.0199 40.4962C51.6854 40.2103 51.4431 39.8316 51.3237 39.4081C51.2043 38.9845 51.2132 38.5351 51.3491 38.1166C51.485 37.698 51.7419 37.3292 52.0874 37.0566C52.4328 36.784 52.8514 36.6199 53.29 36.5851C53.7287 36.5503 54.1679 36.6463 54.552 36.8609C54.9362 37.0756 55.2481 37.3993 55.4483 37.7911C55.7161 38.3172 55.764 38.9282 55.5815 39.4896C55.3989 40.051 55.001 40.517 54.475 40.7851" fill="white"/>
<path d="M56.1205 33.5615C55.8092 33.8729 55.4126 34.0849 54.9808 34.1709C54.549 34.2568 54.1014 34.2127 53.6946 34.0443C53.2878 33.8758 52.9401 33.5905 52.6955 33.2244C52.4509 32.8584 52.3203 32.428 52.3203 31.9877C52.3203 31.5474 52.4509 31.117 52.6955 30.7509C52.9401 30.3849 53.2878 30.0996 53.6946 29.9311C54.1014 29.7626 54.549 29.7186 54.9808 29.8045C55.4126 29.8905 55.8092 30.1025 56.1205 30.4139C56.5376 30.8314 56.7719 31.3975 56.7719 31.9877C56.7719 32.5779 56.5376 33.1439 56.1205 33.5615Z" fill="white"/>
<path d="M55.4498 26.1813C55.25 26.5737 54.9384 26.898 54.5542 27.1132C54.1701 27.3285 53.7308 27.4249 53.2918 27.3904C52.8529 27.3559 52.434 27.192 52.0882 26.9195C51.7424 26.6469 51.4852 26.2779 51.3492 25.8591C51.2131 25.4404 51.2043 24.9907 51.3238 24.5669C51.4434 24.1432 51.6859 23.7644 52.0208 23.4785C52.3556 23.1925 52.7677 23.0124 53.205 22.9607C53.6423 22.909 54.085 22.9882 54.4773 23.1882C55.0029 23.4564 55.4006 23.9223 55.5829 24.4835C55.7653 25.0448 55.7174 25.6554 55.4498 26.1813Z" fill="white"/>
<path d="M52.5301 19.3668C52.4613 19.8017 52.265 20.2064 51.9662 20.5298C51.6674 20.8531 51.2793 21.0806 50.8512 21.1834C50.4231 21.2862 49.9741 21.2597 49.561 21.1073C49.1479 20.9549 48.7893 20.6835 48.5305 20.3272C48.2717 19.971 48.1244 19.546 48.1072 19.1061C48.0899 18.6661 48.2036 18.2309 48.4337 17.8555C48.6638 17.4802 49.0001 17.1815 49.4 16.9972C49.7999 16.813 50.2454 16.7515 50.6803 16.8205C51.2631 16.9132 51.7853 17.2334 52.1321 17.7109C52.4789 18.1883 52.6221 18.7839 52.5301 19.3668Z" fill="white"/>
<path d="M47.651 13.791C47.72 14.2258 47.6585 14.6714 47.4743 15.0713C47.29 15.4712 46.9913 15.8074 46.6159 16.0376C46.2406 16.2677 45.8054 16.3813 45.3654 16.3641C44.9254 16.3468 44.5005 16.1995 44.1443 15.9407C43.788 15.682 43.5165 15.3233 43.3641 14.9103C43.2118 14.4972 43.1853 14.0482 43.2881 13.62C43.3909 13.1919 43.6184 12.8039 43.9417 12.5051C44.2651 12.2062 44.6698 12.01 45.1047 11.9412C45.6876 11.8494 46.283 11.9926 46.7604 12.3394C47.2378 12.6862 47.5581 13.2083 47.651 13.791Z" fill="white"/>
<path d="M41.2857 9.99684C41.4855 10.3891 41.5645 10.8319 41.5126 11.2691C41.4608 11.7062 41.2805 12.1182 40.9945 12.4529C40.7085 12.7876 40.3297 13.03 39.906 13.1495C39.4822 13.2689 39.0326 13.26 38.6139 13.1239C38.1953 12.9877 37.8263 12.7305 37.5538 12.3848C37.2813 12.039 37.1175 11.6202 37.083 11.1813C37.0485 10.7424 37.145 10.3032 37.3601 9.91907C37.5753 9.53498 37.8995 9.22332 38.2918 9.02349C38.8179 8.75572 39.4288 8.70783 39.9903 8.89035C40.5517 9.07288 41.0177 9.47087 41.2857 9.99684Z" fill="white"/>
<path d="M34.0615 8.35064C34.3729 8.66192 34.5849 9.05855 34.6709 9.49037C34.7568 9.92218 34.7127 10.3698 34.5443 10.7766C34.3758 11.1833 34.0905 11.531 33.7244 11.7756C33.3584 12.0203 32.928 12.1508 32.4877 12.1508C32.0474 12.1508 31.617 12.0203 31.2509 11.7756C30.8849 11.531 30.5996 11.1833 30.4311 10.7766C30.2626 10.3698 30.2186 9.92218 30.3045 9.49037C30.3905 9.05855 30.6025 8.66192 30.9139 8.35064C31.3314 7.93352 31.8975 7.69922 32.4877 7.69922C33.0779 7.69922 33.6439 7.93352 34.0615 8.35064Z" fill="white"/>
<path d="M26.6794 9.02333C27.0718 9.22312 27.3961 9.53479 27.6113 9.91891C27.8265 10.303 27.923 10.7424 27.8885 11.1813C27.854 11.6203 27.6901 12.0391 27.4175 12.3849C27.1449 12.7307 26.776 12.9879 26.3572 13.124C25.9384 13.26 25.4887 13.2688 25.065 13.1493C24.6412 13.0298 24.2624 12.7872 23.9765 12.4524C23.6906 12.1175 23.5104 11.7054 23.4587 11.2681C23.4071 10.8309 23.4862 10.3881 23.6862 9.99586C23.9545 9.47024 24.4204 9.07259 24.9816 8.89024C25.5428 8.70789 26.1534 8.75576 26.6794 9.02333Z" fill="white"/>
<path d="M19.8668 11.9374C20.3017 12.0062 20.7064 12.2024 21.0298 12.5013C21.3531 12.8001 21.5806 13.1881 21.6834 13.6163C21.7862 14.0444 21.7597 14.4934 21.6073 14.9065C21.4549 15.3196 21.1835 15.6782 20.8272 15.937C20.471 16.1957 20.046 16.3431 19.6061 16.3603C19.1661 16.3775 18.7309 16.2639 18.3555 16.0338C17.9802 15.8037 17.6815 15.4674 17.4972 15.0675C17.313 14.6676 17.2515 14.222 17.3205 13.7872C17.4132 13.2044 17.7334 12.6822 18.2109 12.3354C18.6883 11.9885 19.2839 11.8454 19.8668 11.9374Z" fill="white"/>
<path d="M14.2929 16.8166C14.7278 16.7476 15.1733 16.8091 15.5732 16.9933C15.9731 17.1776 16.3094 17.4763 16.5395 17.8516C16.7696 18.227 16.8833 18.6622 16.866 19.1022C16.8488 19.5421 16.7015 19.9671 16.4427 20.3233C16.1839 20.6796 15.8253 20.951 15.4122 21.1034C14.9991 21.2558 14.5501 21.2823 14.122 21.1795C13.6939 21.0767 13.3059 20.8492 13.007 20.5259C12.7082 20.2025 12.5119 19.7978 12.4431 19.3629C12.3514 18.78 12.4946 18.1845 12.8414 17.7072C13.1882 17.2298 13.7102 16.9095 14.2929 16.8166Z" fill="white"/>
<path d="M10.4949 23.1799C10.8872 22.9801 11.3299 22.9011 11.7671 22.953C12.2043 23.0048 12.6163 23.1851 12.951 23.4711C13.2857 23.7571 13.5281 24.1359 13.6475 24.5596C13.7669 24.9834 13.758 25.433 13.6219 25.8517C13.4858 26.2704 13.2286 26.6393 12.8828 26.9118C12.537 27.1843 12.1182 27.3481 11.6793 27.3826C11.2405 27.4171 10.8012 27.3207 10.4171 27.1055C10.033 26.8904 9.72136 26.5661 9.52154 26.1739C9.25377 25.6477 9.20588 25.0368 9.3884 24.4754C9.57092 23.9139 9.96891 23.448 10.4949 23.1799Z" fill="white"/>
<path d="M8.85064 30.41C9.16192 30.0986 9.55855 29.8866 9.99037 29.8006C10.4222 29.7147 10.8698 29.7587 11.2766 29.9272C11.6833 30.0957 12.031 30.381 12.2756 30.747C12.5203 31.1131 12.6508 31.5435 12.6508 31.9838C12.6508 32.4241 12.5203 32.8545 12.2756 33.2205C12.031 33.5866 11.6833 33.8719 11.2766 34.0404C10.8698 34.2088 10.4222 34.2529 9.99037 34.1669C9.55855 34.081 9.16192 33.8689 8.85064 33.5576C8.43352 33.14 8.19922 32.574 8.19922 31.9838C8.19922 31.3936 8.43352 30.8275 8.85064 30.41Z" fill="white"/>
<path d="M9.52137 37.7862C9.72117 37.3939 10.0328 37.0696 10.417 36.8543C10.8011 36.6391 11.2404 36.5427 11.6794 36.5772C12.1183 36.6116 12.5372 36.7755 12.883 37.0481C13.2288 37.3207 13.486 37.6897 13.622 38.1084C13.7581 38.5272 13.7669 38.9769 13.6474 39.4007C13.5278 39.8244 13.2853 40.2032 12.9504 40.4891C12.6156 40.775 12.2035 40.9552 11.7662 41.0069C11.3289 41.0586 10.8862 40.9794 10.4939 40.7794C9.96829 40.5112 9.57063 40.0453 9.38829 39.484C9.20594 38.9228 9.2538 38.3122 9.52137 37.7862Z" fill="white"/>
<path d="M12.4374 44.6047C12.5062 44.1698 12.7024 43.7651 13.0013 43.4417C13.3001 43.1184 13.6881 42.8909 14.1163 42.7881C14.5444 42.6853 14.9934 42.7118 15.4065 42.8642C15.8196 43.0165 16.1782 43.288 16.437 43.6442C16.6957 44.0005 16.8431 44.4254 16.8603 44.8654C16.8775 45.3054 16.7639 45.7406 16.5338 46.1159C16.3037 46.4913 15.9674 46.79 15.5675 46.9743C15.1676 47.1585 14.722 47.22 14.2872 47.151C13.7044 47.0583 13.1822 46.7381 12.8354 46.2606C12.4885 45.7832 12.3454 45.1876 12.4374 44.6047Z" fill="white"/>
<path d="M17.3185 50.1764C17.2495 49.7415 17.311 49.296 17.4953 48.8961C17.6795 48.4962 17.9782 48.1599 18.3536 47.9298C18.729 47.6997 19.1642 47.586 19.6041 47.6033C20.0441 47.6205 20.4691 47.7678 20.8253 48.0266C21.1815 48.2854 21.453 48.644 21.6054 49.0571C21.7578 49.4702 21.7842 49.9192 21.6814 50.3473C21.5786 50.7754 21.3512 51.1635 21.0278 51.4623C20.7044 51.7611 20.2997 51.9574 19.8648 52.0262C19.282 52.1179 18.6865 51.9747 18.2091 51.6279C17.7317 51.2811 17.4114 50.7591 17.3185 50.1764Z" fill="white"/>
<path d="M23.6818 53.9744C23.4821 53.5821 23.4031 53.1393 23.4549 52.7021C23.5068 52.265 23.6871 51.853 23.9731 51.5183C24.2591 51.1836 24.6379 50.9412 25.0616 50.8217C25.4853 50.7023 25.935 50.7112 26.3536 50.8473C26.7723 50.9835 27.1412 51.2407 27.4137 51.5864C27.6862 51.9322 27.8501 52.351 27.8846 52.7899C27.9191 53.2288 27.8226 53.6681 27.6075 54.0521C27.3923 54.4362 27.0681 54.7479 26.6758 54.9477C26.1497 55.2155 25.5387 55.2634 24.9773 55.0808C24.4159 54.8983 23.9499 54.5003 23.6818 53.9744Z" fill="white"/>
<path d="M30.91 55.6205C30.5986 55.3092 30.3866 54.9126 30.3006 54.4808C30.2147 54.049 30.2587 53.6014 30.4272 53.1946C30.5957 52.7878 30.881 52.4401 31.247 52.1955C31.6131 51.9509 32.0435 51.8203 32.4838 51.8203C32.9241 51.8203 33.3545 51.9509 33.7205 52.1955C34.0866 52.4401 34.3719 52.7878 34.5404 53.1946C34.7088 53.6014 34.7529 54.049 34.6669 54.4808C34.581 54.9126 34.3689 55.3092 34.0576 55.6205C33.64 56.0376 33.074 56.2719 32.4838 56.2719C31.8936 56.2719 31.3275 56.0376 30.91 55.6205Z" fill="white"/>
<g opacity="0.5">
<path d="M40.2656 59.4632C40.0866 59.3762 39.9271 59.254 39.7965 59.1038C39.6659 58.9537 39.567 58.7787 39.5056 58.5894C39.4443 58.4002 39.4218 58.2004 39.4394 58.0022C39.4571 57.804 39.5146 57.6114 39.6085 57.436C39.7995 57.0768 40.1228 56.8061 40.5099 56.6812C40.897 56.5562 41.3176 56.5868 41.6825 56.7666C41.8614 56.8536 42.021 56.9758 42.1516 57.126C42.2822 57.2761 42.3811 57.451 42.4425 57.6403C42.5038 57.8296 42.5263 58.0293 42.5087 58.2275C42.491 58.4257 42.4335 58.6183 42.3396 58.7938C42.1486 59.1529 41.8253 59.4237 41.4382 59.5486C41.0511 59.6736 40.6305 59.6429 40.2656 59.4632Z" fill="white"/>
<path d="M48.3744 55.7135C48.1779 55.6851 47.9891 55.6175 47.8192 55.5147C47.6492 55.4119 47.5017 55.2761 47.3853 55.1152C47.2688 54.9543 47.1859 54.7717 47.1413 54.5782C47.0968 54.3847 47.0915 54.1842 47.1259 53.9886C47.1966 53.5882 47.4204 53.2309 47.7499 52.9925C48.0793 52.7541 48.4886 52.6533 48.8911 52.7113C49.088 52.739 49.2773 52.8062 49.4476 52.9087C49.618 53.0113 49.7659 53.1471 49.8825 53.3082C49.9992 53.4692 50.0821 53.6521 50.1264 53.8459C50.1707 54.0398 50.1755 54.2406 50.1404 54.4363C50.0699 54.8368 49.8462 55.1942 49.5167 55.4326C49.1872 55.671 48.777 55.7718 48.3744 55.7135Z" fill="white"/>
<path d="M54.9315 49.6401C54.7355 49.6745 54.5345 49.6691 54.3405 49.6242C54.1466 49.5793 53.9636 49.4958 53.8027 49.3787C53.6417 49.2615 53.5059 49.1132 53.4035 48.9425C53.3011 48.7717 53.2342 48.5821 53.2066 48.385C53.1501 47.9822 53.2525 47.5732 53.4921 47.2446C53.7317 46.9159 54.0897 46.6933 54.4904 46.6239C54.6866 46.5895 54.8877 46.5949 55.0817 46.6398C55.2756 46.6848 55.4586 46.7684 55.6196 46.8856C55.7806 47.0028 55.9163 47.1513 56.0187 47.3221C56.121 47.4929 56.1879 47.6826 56.2154 47.8798C56.2717 48.2825 56.1692 48.6912 55.9296 49.0197C55.69 49.3482 55.3321 49.5706 54.9315 49.6401Z" fill="white"/>
<path d="M59.2873 41.8422C59.1114 41.9349 58.9188 41.9912 58.7207 42.008C58.5227 42.0248 58.3233 42.0016 58.1344 41.9399C57.9455 41.8781 57.7709 41.7791 57.621 41.6486C57.4711 41.5181 57.3489 41.3588 57.2617 41.1802C57.0836 40.8145 57.0547 40.3939 57.1811 40.0072C57.3076 39.6206 57.5795 39.2984 57.9394 39.1086C58.1152 39.0159 58.3078 38.9595 58.5058 38.9428C58.7039 38.926 58.9033 38.9493 59.0922 39.0111C59.281 39.0729 59.4556 39.1721 59.6054 39.3027C59.7551 39.4334 59.8771 39.5928 59.9641 39.7715C60.1422 40.137 60.1712 40.5574 60.0449 40.9439C59.9186 41.3304 59.6469 41.6525 59.2873 41.8422Z" fill="white"/>
<path d="M61.0232 33.0756C60.8853 33.219 60.7198 33.333 60.5368 33.4109C60.3537 33.4888 60.1568 33.5289 59.9579 33.5289C59.7589 33.5289 59.562 33.4888 59.379 33.4109C59.1959 33.333 59.0305 33.219 58.8925 33.0756C58.6083 32.7841 58.4492 32.3932 58.4492 31.986C58.4492 31.5789 58.6083 31.1879 58.8925 30.8965C59.0308 30.7537 59.1964 30.6402 59.3794 30.5627C59.5624 30.4852 59.7591 30.4453 59.9579 30.4453C60.1566 30.4453 60.3533 30.4852 60.5363 30.5627C60.7194 30.6402 60.8849 30.7537 61.0232 30.8965C61.3061 31.1886 61.4643 31.5794 61.4643 31.986C61.4643 32.3927 61.3061 32.7834 61.0232 33.0756Z" fill="white"/>
<path d="M59.9632 24.202C59.8762 24.381 59.754 24.5405 59.6038 24.6711C59.4537 24.8017 59.2787 24.9006 59.0894 24.962C58.9002 25.0233 58.7004 25.0459 58.5022 25.0282C58.304 25.0105 58.1114 24.953 57.936 24.8591C57.5768 24.6682 57.3061 24.3449 57.1812 23.9577C57.0562 23.5706 57.0868 23.1501 57.2666 22.7851C57.3536 22.6062 57.4758 22.4466 57.626 22.316C57.7761 22.1855 57.951 22.0865 58.1403 22.0252C58.3296 21.9638 58.5293 21.9413 58.7275 21.959C58.9257 21.9766 59.1183 22.0341 59.2938 22.128C59.6529 22.319 59.9237 22.6423 60.0486 23.0294C60.1736 23.4165 60.1429 23.8371 59.9632 24.202Z" fill="white"/>
<path d="M56.2116 16.09C56.1831 16.2865 56.1155 16.4753 56.0127 16.6452C55.91 16.8151 55.7741 16.9627 55.6132 17.0791C55.4524 17.1956 55.2698 17.2785 55.0763 17.3231C54.8827 17.3676 54.6822 17.3729 54.4867 17.3385C54.0862 17.2678 53.729 17.044 53.4906 16.7145C53.2522 16.3851 53.1514 15.9758 53.2094 15.5733C53.2371 15.3764 53.3042 15.1871 53.4068 15.0168C53.5093 14.8464 53.6452 14.6985 53.8062 14.5819C53.9672 14.4652 54.1502 14.3823 54.344 14.338C54.5378 14.2937 54.7386 14.2889 54.9343 14.324C55.3349 14.3945 55.6922 14.6182 55.9307 14.9477C56.1691 15.2772 56.2698 15.6874 56.2116 16.09Z" fill="white"/>
<path d="M50.1401 9.5333C50.1745 9.72938 50.1691 9.93039 50.1242 10.1243C50.0793 10.3183 49.9958 10.5012 49.8787 10.6622C49.7615 10.8232 49.6132 10.9589 49.4425 11.0613C49.2717 11.1637 49.0821 11.2307 48.885 11.2582C48.4822 11.3147 48.0732 11.2124 47.7446 10.9728C47.4159 10.7332 47.1933 10.3751 47.1239 9.97439C47.0895 9.77825 47.0949 9.57719 47.1398 9.38319C47.1848 9.18919 47.2684 9.00624 47.3856 8.84525C47.5028 8.68426 47.6513 8.54854 47.8221 8.44618C47.9929 8.34381 48.1826 8.27691 48.3798 8.24946C48.7825 8.19318 49.1912 8.29565 49.5197 8.53523C49.8482 8.7748 50.0706 9.13271 50.1401 9.5333Z" fill="white"/>
<path d="M42.34 5.17888C42.4326 5.35482 42.4888 5.54757 42.5055 5.74568C42.5221 5.94379 42.4988 6.14322 42.4369 6.33215C42.375 6.52108 42.2758 6.69564 42.1451 6.84548C42.0145 6.99532 41.855 7.11739 41.6763 7.20443C41.3106 7.38257 40.8899 7.41146 40.5033 7.28499C40.1167 7.15852 39.7945 6.88661 39.6047 6.52678C39.512 6.35098 39.4556 6.15833 39.4389 5.96029C39.4221 5.76225 39.4453 5.56286 39.5072 5.37397C39.569 5.18509 39.6682 5.01057 39.7988 4.86078C39.9295 4.71099 40.0889 4.589 40.2676 4.50205C40.6331 4.32389 41.0535 4.29491 41.44 4.42122C41.8265 4.54754 42.1486 4.81926 42.3383 5.17888" fill="white"/>
<path d="M33.5737 3.4431C33.717 3.58105 33.831 3.7465 33.9089 3.92956C33.9868 4.11261 34.027 4.30951 34.027 4.50845C34.027 4.70739 33.9868 4.90428 33.9089 5.08734C33.831 5.2704 33.717 5.43585 33.5737 5.57379C33.2817 5.85747 32.8904 6.01582 32.4832 6.01505C32.0761 6.01429 31.6854 5.85447 31.3945 5.56969C31.2518 5.43139 31.1383 5.26582 31.0608 5.08281C30.9833 4.8998 30.9434 4.70308 30.9434 4.50434C30.9434 4.3056 30.9833 4.10888 31.0608 3.92587C31.1383 3.74286 31.2518 3.57729 31.3945 3.43899C31.6872 3.15666 32.0782 2.99924 32.4849 3C32.8916 3.00077 33.282 3.15967 33.5737 3.4431Z" fill="white"/>
<path d="M24.7001 4.50485C24.879 4.59186 25.0386 4.7141 25.1692 4.86424C25.2997 5.01438 25.3987 5.18933 25.46 5.37861C25.5214 5.5679 25.5439 5.76762 25.5262 5.96582C25.5086 6.16402 25.4511 6.3566 25.3572 6.53205C25.1662 6.89122 24.8429 7.16195 24.4558 7.2869C24.0687 7.41185 23.6481 7.38122 23.2832 7.20149C23.1042 7.11448 22.9447 6.99224 22.8141 6.8421C22.6835 6.69196 22.5846 6.51701 22.5232 6.32772C22.4619 6.13844 22.4393 5.93871 22.457 5.74052C22.4747 5.54232 22.5322 5.34973 22.6261 5.17429C22.817 4.81512 23.1403 4.54439 23.5275 4.41944C23.9146 4.29449 24.3351 4.32512 24.7001 4.50485Z" fill="white"/>
<path d="M16.59 8.25063C16.7865 8.27908 16.9753 8.3467 17.1452 8.44948C17.3151 8.55226 17.4627 8.68811 17.5791 8.84897C17.6956 9.00984 17.7785 9.19244 17.8231 9.38596C17.8676 9.57948 17.8729 9.77997 17.8385 9.97556C17.7678 10.376 17.544 10.7332 17.2145 10.9716C16.8851 11.21 16.4758 11.3109 16.0733 11.2528C15.8764 11.2251 15.6871 11.158 15.5168 11.0554C15.3464 10.9529 15.1985 10.817 15.0819 10.656C14.9652 10.495 14.8823 10.3121 14.838 10.1182C14.7937 9.9244 14.7889 9.72361 14.824 9.5279C14.8945 9.12718 15.1183 8.76969 15.448 8.53124C15.7777 8.2928 16.1873 8.19214 16.59 8.25063Z" fill="white"/>
<path d="M10.0346 14.3271C10.2307 14.2926 10.4317 14.298 10.6257 14.3429C10.8196 14.3878 11.0025 14.4713 11.1635 14.5885C11.3245 14.7056 11.4602 14.8539 11.5626 15.0247C11.665 15.1954 11.732 15.385 11.7596 15.5821C11.8151 15.9849 11.7118 16.3934 11.4716 16.7215C11.2315 17.0495 10.8731 17.2713 10.4724 17.3399C10.2763 17.3744 10.0752 17.369 9.88124 17.324C9.68724 17.279 9.50429 17.1955 9.3433 17.0782C9.18231 16.961 9.04659 16.8126 8.94422 16.6418C8.84186 16.4709 8.77496 16.2813 8.74751 16.084C8.69123 15.6814 8.7937 15.2726 9.03328 14.9441C9.27285 14.6157 9.63076 14.3932 10.0313 14.3238" fill="white"/>
<path d="M5.67693 22.1242C5.85277 22.0316 6.04542 21.9752 6.24346 21.9584C6.4415 21.9416 6.64089 21.9648 6.8298 22.0266C7.01871 22.0883 7.1933 22.1874 7.34321 22.3179C7.49311 22.4484 7.61529 22.6076 7.70248 22.7862C7.88062 23.1519 7.9095 23.5726 7.78303 23.9592C7.65656 24.3458 7.38465 24.6681 7.02483 24.8578C6.84903 24.9505 6.65638 25.0069 6.45833 25.0236C6.26029 25.0404 6.0609 25.0172 5.87202 24.9553C5.68314 24.8935 5.50861 24.7943 5.35883 24.6637C5.20904 24.5331 5.08704 24.3736 5.0001 24.1949C4.82194 23.8294 4.79295 23.409 4.91927 23.0225C5.04559 22.6361 5.3173 22.3139 5.67693 22.1242Z" fill="white"/>
<path d="M3.94278 30.8927C4.081 30.7496 4.24667 30.6359 4.42988 30.5583C4.61309 30.4808 4.81006 30.441 5.009 30.4414C5.20794 30.4418 5.40476 30.4823 5.58766 30.5606C5.77057 30.6388 5.93581 30.7532 6.07347 30.8968C6.35715 31.1888 6.5155 31.5801 6.51473 31.9872C6.51396 32.3943 6.35414 32.785 6.06937 33.0759C5.93079 33.2184 5.765 33.3316 5.58184 33.4087C5.39869 33.4859 5.20189 33.5254 5.00315 33.525C4.80441 33.5246 4.60777 33.4843 4.42491 33.4065C4.24205 33.3286 4.0767 33.2148 3.93867 33.0718C3.65653 32.779 3.49924 32.388 3.5 31.9814C3.50077 31.5748 3.65954 31.1844 3.94278 30.8927Z" fill="white"/>
<path d="M5.0029 39.7656C5.08991 39.5866 5.21214 39.4271 5.36228 39.2965C5.51242 39.1659 5.68738 39.067 5.87666 39.0056C6.06595 38.9443 6.26567 38.9218 6.46387 38.9394C6.66206 38.9571 6.85465 39.0146 7.0301 39.1085C7.38927 39.2995 7.65999 39.6228 7.78495 40.0099C7.9099 40.397 7.87927 40.8176 7.69953 41.1825C7.61252 41.3614 7.49029 41.521 7.34015 41.6516C7.19001 41.7822 7.01506 41.8811 6.82577 41.9425C6.63648 42.0038 6.43676 42.0263 6.23857 42.0087C6.04037 41.991 5.84778 41.9335 5.67233 41.8396C5.31317 41.6486 5.04244 41.3253 4.91749 40.9382C4.79253 40.5511 4.82317 40.1305 5.0029 39.7656Z" fill="white"/>
<path d="M8.75247 47.8764C8.78092 47.6799 8.84854 47.491 8.95132 47.3211C9.0541 47.1512 9.18995 47.0037 9.35081 46.8872C9.51167 46.7708 9.69428 46.6878 9.8878 46.6433C10.0813 46.5987 10.2818 46.5935 10.4774 46.6279C10.8779 46.6986 11.2351 46.9224 11.4735 47.2518C11.7119 47.5813 11.8127 47.9905 11.7547 48.393C11.727 48.5899 11.6598 48.7792 11.5573 48.9496C11.4547 49.1199 11.3189 49.2678 11.1578 49.3845C10.9968 49.5011 10.8139 49.5841 10.6201 49.6284C10.4262 49.6727 10.2255 49.6775 10.0297 49.6424C9.62918 49.5718 9.27183 49.3481 9.0334 49.0186C8.79497 48.6891 8.69421 48.2789 8.75247 47.8764Z" fill="white"/>
<path d="M14.8251 54.431C14.7907 54.2349 14.796 54.0339 14.841 53.84C14.8859 53.646 14.9694 53.4631 15.0865 53.3021C15.2036 53.1412 15.352 53.0054 15.5227 52.903C15.6934 52.8006 15.883 52.7336 16.0802 52.7061C16.4829 52.6506 16.8915 52.7538 17.2195 52.994C17.5475 53.2342 17.7693 53.5925 17.838 53.9932C17.8724 54.1893 17.867 54.3904 17.822 54.5844C17.7771 54.7784 17.6935 54.9614 17.5763 55.1223C17.4591 55.2833 17.3106 55.4191 17.1398 55.5214C16.969 55.6238 16.7793 55.6907 16.5821 55.7181C16.1794 55.7744 15.7707 55.6719 15.4422 55.4324C15.1137 55.1928 14.8912 54.8349 14.8218 54.4343" fill="white"/>
<path d="M22.6261 58.7892C22.5335 58.6134 22.4771 58.4207 22.4604 58.2227C22.4436 58.0246 22.4668 57.8253 22.5285 57.6363C22.5903 57.4474 22.6893 57.2728 22.8198 57.1229C22.9503 56.973 23.1096 56.8508 23.2882 56.7637C23.6539 56.5855 24.0745 56.5566 24.4611 56.6831C24.8478 56.8096 25.17 57.0815 25.3597 57.4413C25.4524 57.6171 25.5088 57.8098 25.5256 58.0078C25.5424 58.2058 25.5191 58.4052 25.4573 58.5941C25.3955 58.783 25.2963 58.9575 25.1656 59.1073C25.035 59.2571 24.8756 59.3791 24.6969 59.466C24.3314 59.6442 23.9109 59.6732 23.5245 59.5469C23.138 59.4205 22.8158 59.1488 22.6261 58.7892Z" fill="white"/>
<path d="M31.3927 60.5251C31.2496 60.3869 31.1359 60.2212 31.0583 60.038C30.9808 59.8548 30.941 59.6578 30.9414 59.4589C30.9418 59.2599 30.9823 59.0631 31.0606 58.8802C31.1388 58.6973 31.2532 58.5321 31.3968 58.3944C31.6888 58.1107 32.0801 57.9524 32.4872 57.9531C32.8943 57.9539 33.285 58.1137 33.5759 58.3985C33.7184 58.5371 33.8316 58.7029 33.9087 58.886C33.9859 59.0692 34.0254 59.266 34.025 59.4647C34.0246 59.6634 33.9843 59.8601 33.9065 60.043C33.8286 60.2258 33.7148 60.3912 33.5718 60.5292C33.2791 60.8115 32.8881 60.9689 32.4814 60.9682C32.0747 60.9674 31.6843 60.8085 31.3927 60.5251Z" fill="white"/>
</g>
<path d="M104.007 18.1325V27.0148C104.01 27.051 104.004 27.0874 103.991 27.1215C103.979 27.1555 103.959 27.1864 103.933 27.2121C103.907 27.2378 103.877 27.2577 103.842 27.2705C103.808 27.2832 103.772 27.2885 103.736 27.286H103.083C102.947 27.286 102.784 27.2317 102.758 27.0961L102.324 24.1354C101.156 26.2265 99.1179 27.5581 95.9944 27.5581C90.5077 27.5581 87.6826 23.32 87.6826 17.779C87.6826 12.211 90.4527 8 95.9944 8C100.639 8 103.057 10.9336 104.007 14.9268C104.034 15.1167 103.953 15.226 103.763 15.226H102.622C102.55 15.2331 102.478 15.2114 102.422 15.1656C102.366 15.1199 102.331 15.0538 102.324 14.9819C101.835 12.1 99.2535 9.33247 95.9944 9.33247C91.947 9.33247 89.3126 12.5916 89.3126 17.7799C89.3126 22.9139 91.947 26.2273 95.9944 26.2273C97.5994 26.2939 99.1656 25.723 100.351 24.6392C101.537 23.5555 102.246 22.0468 102.324 20.4423V19.2183H96.2665C96.2301 19.221 96.1935 19.2157 96.1593 19.203C96.1251 19.1903 96.094 19.1703 96.0682 19.1445C96.0424 19.1187 96.0225 19.0876 96.0097 19.0534C95.997 19.0192 95.9918 18.9826 95.9944 18.9462V18.1317C95.9918 18.0952 95.997 18.0587 96.0097 18.0245C96.0225 17.9903 96.0424 17.9592 96.0682 17.9334C96.094 17.9076 96.1251 17.8876 96.1593 17.8749C96.1935 17.8621 96.2301 17.8569 96.2665 17.8596H103.736C103.772 17.857 103.809 17.8624 103.843 17.8751C103.877 17.8879 103.908 17.9079 103.933 17.9337C103.959 17.9595 103.979 17.9905 103.992 18.0247C104.004 18.0588 104.01 18.0953 104.007 18.1317" fill="white"/>
<path d="M108.571 8.27344H107.592C107.412 8.27344 107.267 8.41916 107.267 8.59893V26.9619C107.267 27.1416 107.412 27.2873 107.592 27.2873H108.571C108.751 27.2873 108.897 27.1416 108.897 26.9619V8.59893C108.897 8.41916 108.751 8.27344 108.571 8.27344Z" fill="white"/>
<path d="M117.531 27.5623C113.511 27.5623 111.202 24.9542 111.202 20.6355C111.202 16.3432 113.457 13.4375 117.531 13.4375C121.524 13.4375 123.833 16.3194 123.833 20.6355C123.833 24.8999 121.578 27.5623 117.531 27.5623ZM117.531 14.7954C114.842 14.7954 112.831 16.6695 112.831 20.6355C112.831 24.6016 114.841 26.2036 117.531 26.2036C120.192 26.2036 122.203 24.6007 122.203 20.6355C122.203 16.6703 120.192 14.7954 117.531 14.7954Z" fill="white"/>
<path d="M138.364 20.6333C138.364 24.9562 136.055 27.5601 132.036 27.5601C129.292 27.5601 127.882 26.3378 127.254 24.2459L127.363 27.0159C127.365 27.0523 127.36 27.0887 127.347 27.1228C127.335 27.1569 127.315 27.1879 127.289 27.2136C127.263 27.2393 127.232 27.2592 127.198 27.2719C127.164 27.2846 127.127 27.2898 127.091 27.2872H126.004C125.968 27.2898 125.931 27.2846 125.897 27.2719C125.863 27.2592 125.832 27.2393 125.806 27.2136C125.78 27.1879 125.76 27.1569 125.748 27.1228C125.735 27.0887 125.73 27.0523 125.732 27.0159V8.54534C125.73 8.509 125.735 8.47254 125.748 8.43843C125.76 8.40432 125.78 8.37336 125.806 8.34764C125.832 8.32192 125.863 8.30204 125.897 8.28935C125.931 8.27667 125.968 8.27147 126.004 8.2741H127.091C127.127 8.27147 127.164 8.27667 127.198 8.28935C127.232 8.30204 127.263 8.32192 127.289 8.34764C127.315 8.37336 127.335 8.40432 127.347 8.43843C127.36 8.47254 127.365 8.509 127.363 8.54534L127.173 17.2649C127.766 14.8746 129.207 13.4353 132.035 13.4353C136.11 13.4353 138.363 16.3409 138.363 20.6333M136.733 20.6333C136.733 17.4827 135.538 14.7932 132.034 14.7932C128.559 14.7932 127.362 17.4827 127.362 20.6333C127.362 23.7839 128.557 26.2014 132.034 26.2014C135.538 26.2014 136.733 23.7839 136.733 20.6333Z" fill="white"/>
<path d="M152.761 13.9799V27.0197C152.764 27.0561 152.758 27.0925 152.746 27.1266C152.733 27.1608 152.713 27.1917 152.687 27.2174C152.661 27.2432 152.63 27.263 152.596 27.2757C152.562 27.2884 152.525 27.2936 152.489 27.291H151.402C151.366 27.2935 151.33 27.2882 151.296 27.2754C151.262 27.2627 151.231 27.2428 151.205 27.2171C151.179 27.1914 151.159 27.1605 151.147 27.1264C151.134 27.0924 151.129 27.056 151.131 27.0197L151.24 24.2497C150.616 26.3408 149.205 27.5639 146.459 27.5639C142.439 27.5639 140.13 24.9558 140.13 20.6371C140.13 16.3447 142.385 13.4391 146.459 13.4391C147.557 13.3429 148.652 13.6519 149.538 14.3078C150.423 14.9636 151.039 15.9209 151.267 16.9991L151.131 13.9841C151.129 13.9478 151.134 13.9113 151.146 13.8772C151.159 13.843 151.179 13.812 151.205 13.7862C151.23 13.7604 151.261 13.7404 151.296 13.7276C151.33 13.7148 151.366 13.7095 151.402 13.712H152.489C152.526 13.7094 152.562 13.7146 152.596 13.7273C152.63 13.7401 152.662 13.76 152.687 13.7858C152.713 13.8117 152.733 13.8427 152.746 13.8769C152.759 13.9111 152.764 13.9477 152.761 13.9841M151.131 20.6388C151.131 16.6728 149.121 14.7987 146.459 14.7987C143.77 14.7987 141.76 16.6728 141.76 20.6388C141.76 24.6048 143.77 26.2069 146.459 26.2069C149.121 26.2069 151.131 24.6048 151.131 20.6388Z" fill="white"/>
<path d="M156.643 8.27344H155.664C155.485 8.27344 155.339 8.41916 155.339 8.59893V26.9619C155.339 27.1416 155.485 27.2873 155.664 27.2873H156.643C156.823 27.2873 156.969 27.1416 156.969 26.9619V8.59893C156.969 8.41916 156.823 8.27344 156.643 8.27344Z" fill="white"/>
<path d="M103.333 40.5629C103.333 44.868 100.654 46.9735 97.3997 46.9735H91.0188V55.1005C91.0211 55.1406 91.015 55.1808 91.0007 55.2184C90.9864 55.256 90.9643 55.2901 90.9359 55.3185C90.9074 55.3469 90.8733 55.369 90.8357 55.3833C90.7982 55.3976 90.758 55.4038 90.7179 55.4014H88.5844C88.5483 55.4038 88.5121 55.3984 88.4782 55.3857C88.4443 55.3729 88.4136 55.3531 88.388 55.3275C88.3624 55.3019 88.3425 55.2711 88.3298 55.2373C88.317 55.2034 88.3117 55.1672 88.314 55.131V34.6329C88.314 34.4524 88.4039 34.332 88.5844 34.332H97.3997C100.65 34.332 103.333 36.68 103.333 40.5629ZM100.621 40.5629C100.621 37.5835 98.544 36.68 95.8952 36.68H91.0196V44.5629H95.8952C98.9661 44.5629 100.621 43.6305 100.621 40.5595" fill="white"/>
<path d="M111.643 55.7022C107.189 55.7022 104.63 52.8126 104.63 48.0261C104.63 43.2709 107.128 40.0508 111.643 40.0508C116.068 40.0508 118.627 43.2412 118.627 48.0261C118.627 52.7516 116.129 55.7022 111.643 55.7022ZM111.643 42.1571C108.664 42.1571 107.339 44.5356 107.339 48.0261C107.339 51.5166 108.663 53.595 111.643 53.595C114.593 53.595 115.918 51.5183 115.918 48.0261C115.918 44.5339 114.593 42.1571 111.643 42.1571Z" fill="white"/>
<path d="M150.679 38.0384C150.445 38.05 150.21 38.0097 149.993 37.9203C149.776 37.8309 149.581 37.6945 149.422 37.5211C149.264 37.3476 149.146 37.1413 149.076 36.9169C149.007 36.6924 148.988 36.4554 149.02 36.2227C149.02 35.0979 149.614 34.3359 150.679 34.3359C151.726 34.3359 152.331 35.0903 152.331 36.2227C152.364 36.4548 152.345 36.6913 152.276 36.9153C152.207 37.1393 152.09 37.3453 151.932 37.5187C151.774 37.692 151.58 37.8285 151.364 37.9183C151.147 38.0082 150.913 38.0491 150.679 38.0384Z" fill="white"/>
<path d="M173.101 38.0384C172.866 38.05 172.632 38.0097 172.415 37.9203C172.198 37.8309 172.003 37.6945 171.844 37.5211C171.686 37.3476 171.568 37.1413 171.498 36.9169C171.429 36.6924 171.41 36.4554 171.442 36.2227C171.442 35.0979 172.036 34.3359 173.101 34.3359C174.148 34.3359 174.753 35.0903 174.753 36.2227C174.786 36.4548 174.767 36.6913 174.698 36.9153C174.629 37.1393 174.511 37.3453 174.354 37.5187C174.196 37.692 174.002 37.8285 173.785 37.9183C173.569 38.0082 173.335 38.0491 173.101 38.0384Z" fill="white"/>
<path d="M185.138 38.0345C184.904 38.0461 184.669 38.0058 184.452 37.9164C184.235 37.8269 184.04 37.6906 183.881 37.5172C183.723 37.3437 183.605 37.1374 183.535 36.913C183.466 36.6885 183.447 36.4515 183.479 36.2188C183.479 35.094 184.073 34.332 185.138 34.332C186.185 34.332 186.79 35.0864 186.79 36.2188C186.823 36.4509 186.804 36.6874 186.735 36.9114C186.666 37.1354 186.549 37.3414 186.391 37.5148C186.233 37.6881 186.039 37.8246 185.823 37.9144C185.606 38.0042 185.372 38.0452 185.138 38.0345Z" fill="white"/>
<path d="M202.535 38.0345C202.3 38.0461 202.066 38.0058 201.848 37.9164C201.631 37.8269 201.436 37.6906 201.278 37.5172C201.119 37.3437 201.001 37.1374 200.932 36.913C200.862 36.6885 200.843 36.4515 200.876 36.2188C200.876 35.094 201.469 34.332 202.535 34.332C203.582 34.332 204.187 35.0864 204.187 36.2188C204.219 36.4509 204.201 36.6874 204.132 36.9114C204.063 37.1354 203.945 37.3414 203.787 37.5148C203.63 37.6881 203.436 37.8246 203.219 37.9144C203.002 38.0042 202.769 38.0452 202.535 38.0345Z" fill="white"/>
<path d="M126.687 55.6984C123.556 55.6984 120.577 53.8022 120.427 50.5813C120.427 50.4617 120.517 50.4007 120.637 50.4007H122.894C122.924 50.3969 122.955 50.3994 122.983 50.4082C123.012 50.417 123.039 50.4318 123.062 50.4517C123.085 50.4716 123.103 50.496 123.115 50.5235C123.128 50.5509 123.135 50.5807 123.135 50.6109C123.286 52.207 124.37 53.5912 126.687 53.5912C129.367 53.5912 130.209 52.207 130.209 51.0017C130.209 49.5878 129.426 49.2564 126.564 48.775C123.494 48.2664 120.695 47.2103 120.875 44.3504C121.026 41.8524 123.616 40.0156 126.685 40.0156C129.574 40.0156 132.313 41.7609 132.464 44.7411C132.467 44.7695 132.464 44.7983 132.454 44.8253C132.445 44.8522 132.43 44.8768 132.409 44.897C132.389 44.9172 132.365 44.9326 132.338 44.942C132.311 44.9514 132.282 44.9546 132.254 44.9513H129.996C129.846 44.9513 129.756 44.8912 129.756 44.7411C129.605 43.0849 128.491 42.122 126.686 42.122C124.759 42.122 123.585 43.1764 123.585 44.3495C123.585 45.8854 124.608 46.0651 126.866 46.3965C130.146 46.878 133.096 47.9011 132.916 51.0008C132.765 53.6802 129.906 55.6967 126.685 55.6967" fill="white"/>
<path d="M140.533 55.6984C137.402 55.6984 134.422 53.8022 134.272 50.5813C134.272 50.4617 134.363 50.4007 134.483 50.4007H136.74C136.77 50.3969 136.8 50.3994 136.829 50.4082C136.858 50.417 136.885 50.4318 136.908 50.4517C136.93 50.4716 136.949 50.496 136.961 50.5235C136.974 50.5509 136.98 50.5807 136.981 50.6109C137.132 52.207 138.216 53.5912 140.533 53.5912C143.212 53.5912 144.055 52.207 144.055 51.0017C144.055 49.5878 143.272 49.2564 140.41 48.775C137.34 48.2664 134.541 47.2103 134.721 44.3504C134.872 41.8524 137.461 40.0156 140.53 40.0156C143.42 40.0156 146.159 41.7609 146.31 44.7411C146.313 44.7695 146.31 44.7983 146.3 44.8253C146.291 44.8522 146.275 44.8768 146.255 44.897C146.235 44.9172 146.21 44.9326 146.183 44.942C146.157 44.9514 146.128 44.9546 146.099 44.9513H143.842C143.691 44.9513 143.601 44.8912 143.601 44.7411C143.451 43.0849 142.337 42.122 140.531 42.122C138.605 42.122 137.431 43.1764 137.431 44.3495C137.431 45.8854 138.454 46.0651 140.712 46.3965C143.992 46.878 146.942 47.9011 146.761 51.0008C146.61 53.6802 143.751 55.6967 140.53 55.6967" fill="white"/>
<path d="M149.68 40.3516H151.667C151.715 40.3511 151.762 40.3601 151.806 40.3781C151.851 40.396 151.891 40.4226 151.925 40.4561C151.959 40.4897 151.986 40.5297 152.004 40.5737C152.022 40.6177 152.032 40.665 152.032 40.7127V55.0375C152.032 55.1333 151.994 55.2251 151.926 55.2928C151.858 55.3606 151.766 55.3986 151.671 55.3986H149.68C149.584 55.3986 149.493 55.361 149.426 55.294C149.358 55.227 149.32 55.136 149.319 55.0409V40.7127C149.319 40.6169 149.357 40.5251 149.425 40.4573C149.493 40.3896 149.585 40.3516 149.68 40.3516Z" fill="white"/>
<path d="M169.336 48.0238C169.336 52.8095 166.778 55.6999 162.322 55.6999C159.763 55.6999 158.529 54.737 157.958 53.0502L158.048 55.0972C158.05 55.1373 158.044 55.1774 158.03 55.2149C158.016 55.2524 157.994 55.2865 157.965 55.3149C157.937 55.3433 157.903 55.3653 157.865 55.3795C157.828 55.3937 157.788 55.3997 157.748 55.3973H155.637C155.597 55.3997 155.557 55.3937 155.519 55.3795C155.482 55.3653 155.448 55.3433 155.419 55.3149C155.391 55.2866 155.368 55.2525 155.354 55.215C155.34 55.1775 155.333 55.1373 155.335 55.0972V34.6288C155.333 34.5886 155.339 34.5484 155.354 34.5108C155.368 34.4732 155.39 34.4391 155.419 34.4107C155.447 34.3824 155.481 34.3604 155.519 34.3462C155.557 34.3321 155.597 34.3261 155.637 34.3287H157.744C157.784 34.3262 157.824 34.3323 157.861 34.3465C157.899 34.3607 157.933 34.3827 157.961 34.4111C157.99 34.4395 158.012 34.4735 158.026 34.5111C158.04 34.5486 158.046 34.5887 158.044 34.6288L157.864 43.2678C158.372 41.2504 159.609 40.0468 162.318 40.0468C166.833 40.0468 169.331 43.2678 169.331 48.0229M166.619 48.0229C166.619 44.5316 165.295 42.154 162.315 42.154C159.365 42.154 158.039 44.5324 158.039 48.0229C158.039 51.5134 159.364 53.591 162.315 53.591C165.294 53.591 166.619 51.5143 166.619 48.0229Z" fill="white"/>
<path d="M172.101 40.3516H174.089C174.137 40.3511 174.184 40.3601 174.228 40.3781C174.273 40.396 174.313 40.4226 174.347 40.4561C174.381 40.4897 174.407 40.5297 174.426 40.5737C174.444 40.6177 174.454 40.665 174.454 40.7127V55.0375C174.454 55.1333 174.416 55.2251 174.348 55.2928C174.28 55.3606 174.188 55.3986 174.093 55.3986H172.102C172.007 55.3986 171.916 55.3609 171.848 55.2937C171.78 55.2266 171.742 55.1354 171.741 55.0401V40.7118C171.741 40.6163 171.779 40.5246 171.847 40.4571C171.914 40.3895 172.006 40.3516 172.101 40.3516Z" fill="white"/>
<path d="M178.122 34.3281H180.109C180.156 34.3277 180.204 34.3367 180.248 34.3546C180.292 34.3726 180.332 34.3991 180.366 34.4327C180.4 34.4663 180.427 34.5062 180.445 34.5503C180.464 34.5943 180.473 34.6415 180.473 34.6892V55.0364C180.473 55.1322 180.435 55.2241 180.367 55.2918C180.3 55.3595 180.208 55.3975 180.112 55.3975H178.121C178.025 55.3975 177.934 55.3596 177.866 55.292C177.799 55.2245 177.761 55.1328 177.761 55.0373V34.6892C177.761 34.5935 177.799 34.5016 177.867 34.4339C177.934 34.3662 178.026 34.3281 178.122 34.3281Z" fill="white"/>
<path d="M184.143 40.3516H186.13C186.178 40.3511 186.225 40.3601 186.269 40.3781C186.314 40.396 186.354 40.4226 186.388 40.4561C186.422 40.4897 186.448 40.5297 186.467 40.5737C186.485 40.6177 186.495 40.665 186.495 40.7127V55.0375C186.495 55.1333 186.457 55.2251 186.389 55.2928C186.321 55.3606 186.229 55.3986 186.134 55.3986H184.142C184.047 55.3986 183.956 55.361 183.889 55.294C183.821 55.227 183.783 55.136 183.782 55.0409V40.7127C183.782 40.6169 183.82 40.5251 183.888 40.4573C183.956 40.3896 184.048 40.3516 184.143 40.3516Z" fill="white"/>
<path d="M194.314 42.3048V52.0872C194.301 52.2088 194.316 52.3317 194.357 52.447C194.398 52.5622 194.464 52.6669 194.551 52.7534C194.637 52.8399 194.742 52.9061 194.857 52.9471C194.972 52.9882 195.095 53.0031 195.217 52.9908H198.467C198.507 52.9883 198.547 52.9944 198.585 53.0085C198.623 53.0227 198.657 53.0448 198.685 53.0731C198.714 53.1015 198.736 53.1355 198.75 53.1731C198.764 53.2106 198.77 53.2507 198.768 53.2908V55.0971C198.771 55.1373 198.765 55.1775 198.75 55.2151C198.736 55.2528 198.714 55.2869 198.686 55.3154C198.657 55.3438 198.623 55.3659 198.585 55.3802C198.548 55.3944 198.507 55.4005 198.467 55.398H195.518C194.994 55.4346 194.469 55.3584 193.978 55.1747C193.486 54.9909 193.04 54.7039 192.669 54.3329C192.298 53.9619 192.012 53.5157 191.828 53.0243C191.644 52.5329 191.568 52.0078 191.605 51.4845V42.3048L189.499 42.4556C189.458 42.4581 189.418 42.452 189.38 42.4378C189.343 42.4235 189.309 42.4015 189.28 42.373C189.251 42.3446 189.229 42.3104 189.215 42.2728C189.201 42.2352 189.194 42.1949 189.197 42.1547V40.6493C189.194 40.6091 189.201 40.5689 189.215 40.5313C189.229 40.4936 189.251 40.4595 189.28 40.431C189.309 40.4026 189.343 40.3805 189.38 40.3663C189.418 40.3521 189.458 40.346 189.499 40.3484L191.605 40.4993V34.6295C191.602 34.5894 191.608 34.5493 191.623 34.5117C191.637 34.4741 191.659 34.44 191.687 34.4116C191.716 34.3831 191.75 34.361 191.787 34.3467C191.825 34.3324 191.865 34.3263 191.905 34.3286H194.012C194.052 34.3263 194.092 34.3325 194.13 34.3467C194.168 34.361 194.202 34.3831 194.23 34.4115C194.259 34.44 194.281 34.4741 194.295 34.5117C194.309 34.5492 194.315 34.5894 194.313 34.6295V40.4985L198.466 40.3476C198.507 40.3451 198.547 40.3512 198.584 40.3654C198.622 40.3797 198.656 40.4018 198.685 40.4302C198.713 40.4587 198.735 40.4928 198.749 40.5305C198.764 40.5681 198.77 40.6083 198.767 40.6485V42.1539C198.77 42.194 198.763 42.2342 198.749 42.2717C198.735 42.3093 198.713 42.3434 198.684 42.3719C198.656 42.4003 198.622 42.4224 198.584 42.4367C198.547 42.4509 198.507 42.4571 198.466 42.4548L194.314 42.3048Z" fill="white"/>
<path d="M201.538 40.3516H203.525C203.572 40.3511 203.62 40.3601 203.664 40.3781C203.708 40.396 203.748 40.4226 203.782 40.4561C203.816 40.4897 203.843 40.5297 203.861 40.5737C203.88 40.6177 203.889 40.665 203.889 40.7127V55.0375C203.889 55.1333 203.851 55.2251 203.783 55.2928C203.716 55.3606 203.624 55.3986 203.528 55.3986H201.537C201.442 55.3986 201.351 55.361 201.283 55.294C201.216 55.227 201.177 55.136 201.177 55.0409V40.7127C201.177 40.6169 201.215 40.5251 201.283 40.4573C201.35 40.3896 201.442 40.3516 201.538 40.3516Z" fill="white"/>
<path d="M220.107 49.9841C219.506 53.5365 217.128 55.703 213.305 55.703C208.851 55.703 206.292 52.8135 206.292 48.0269C206.292 43.2718 208.79 40.0508 213.305 40.0508C217.67 40.0508 220.107 43.2718 220.107 47.9066C220.107 48.1168 220.018 48.2371 219.837 48.2371H209.001C209.061 51.7895 210.265 53.5958 213.305 53.5958C215.684 53.5958 217.008 52.271 217.429 49.9239C217.43 49.8859 217.438 49.8485 217.454 49.8139C217.47 49.7793 217.492 49.7484 217.52 49.7229C217.549 49.6975 217.582 49.6781 217.618 49.6661C217.654 49.654 217.692 49.6494 217.73 49.6527H219.836C220.017 49.6527 220.168 49.773 220.107 49.9841M209.121 46.1308H217.098C217.098 44.266 216.315 42.158 213.304 42.158C210.836 42.158 209.512 43.5727 209.121 46.1308Z" fill="white"/>
<path d="M228.174 55.6984C225.043 55.6984 222.063 53.8022 221.913 50.5813C221.913 50.4617 222.004 50.4007 222.123 50.4007H224.381C224.41 50.3969 224.441 50.3994 224.47 50.4082C224.499 50.417 224.525 50.4318 224.548 50.4517C224.571 50.4716 224.589 50.496 224.602 50.5235C224.614 50.5509 224.621 50.5807 224.621 50.6109C224.772 52.207 225.856 53.5912 228.173 53.5912C230.852 53.5912 231.695 52.207 231.695 51.0017C231.695 49.5878 230.911 49.2564 228.05 48.775C224.98 48.2664 222.181 47.2103 222.361 44.3504C222.511 41.8524 225.1 40.0156 228.17 40.0156C231.06 40.0156 233.798 41.7609 233.949 44.7411C233.953 44.7695 233.949 44.7983 233.94 44.8253C233.931 44.8522 233.915 44.8768 233.895 44.897C233.875 44.9172 233.85 44.9326 233.823 44.942C233.796 44.9514 233.768 44.9546 233.739 44.9513H231.482C231.331 44.9513 231.241 44.8912 231.241 44.7411C231.09 43.0849 229.977 42.122 228.171 42.122C226.244 42.122 225.07 43.1764 225.07 44.3495C225.07 45.8854 226.094 46.0651 228.352 46.3965C231.632 46.878 234.582 47.9011 234.401 51.0008C234.25 53.6802 231.391 55.6967 228.17 55.6967" fill="white"/>
</svg>
