<svg width="179" height="50" viewBox="0 0 179 50" fill="none" xmlns="http://www.w3.org/2000/svg">
<g clip-path="url(#clip0_1610_7054)">
<mask id="mask0_1610_7054" style="mask-type:luminance" maskUnits="userSpaceOnUse" x="0" y="0" width="179" height="50">
<path d="M179 0H0V50H179V0Z" fill="white"/>
</mask>
<g mask="url(#mask0_1610_7054)">
<path d="M19.8711 7.7653L19.8179 21.0085C19.4875 21.0085 17.0157 21.0085 16.6854 20.9981C13.5635 20.9462 10.4523 20.9046 7.33047 20.8526L7.03214 7.66135C7.03214 7.71332 4.12339 7.65095 3.30297 7.66135C0.905653 7.69253 0.106547 7.66135 0.106547 7.66135C0.0639286 12.4327 0.042619 20.177 0.042619 24.9482C0.042619 29.8755 0.0639286 34.8131 0.0213096 39.7403C0.0213096 40.7487 0 41.2372 0 41.2372C1.48101 41.1749 5.92404 41.3204 7.40506 41.1852L7.44768 27.7445C11.0703 27.7341 17.6869 27.6717 19.9244 27.6198C19.9244 27.6198 19.935 28.1915 19.9137 29.3349C19.8604 32.6717 19.9777 37.9004 19.8498 41.2372H26.818C26.85 32.1728 26.85 19.7507 26.818 10.6759C26.8074 8.31626 26.85 7.66135 26.85 7.66135L19.8711 7.7653Z" fill="#080D14"/>
<path d="M100.687 23.5656C98.9714 22.0999 96.8297 21.3203 94.443 20.9773C93.3989 20.8318 92.3225 20.5096 91.3961 20.021C89.1688 18.8567 88.9663 17.0999 90.352 15.2496C92.3759 12.547 96.9899 14.5844 99.5147 16.3931L103.19 11.9128C103.223 11.8713 102.786 11.4659 102.54 11.2684C98.0976 7.61973 94.2303 6.77773 89.1798 8.59682C85.1625 10.0521 82.7978 12.9628 82.4775 17.0688C82.3503 18.8152 82.6165 20.8838 83.5217 22.3183C84.4387 23.784 86.2499 24.865 87.9009 25.7174C89.6273 26.6218 91.6733 26.9337 93.4633 27.7341C94.443 28.181 95.3278 29.0023 95.9991 29.8442C96.8407 30.8942 96.2652 33.4721 95.1677 34.0335C90.9164 36.206 86.761 31.7881 86.7398 31.8193L82.041 36.9753C84.8642 38.8464 88.6467 41.1436 93.1115 41.1228C104.309 41.3411 106.654 28.6592 100.687 23.5656Z" fill="#080D14"/>
<path d="M45.6453 16.1855C45.7625 20.3227 45.6453 26.2063 45.6453 30.3435C45.6453 35.9361 35.7896 36.144 35.7896 28.9818C35.7896 25.3227 35.6831 19.8446 35.8003 16.1855H29.791C29.8336 20.9569 29.7697 27.4122 29.8443 32.1834C29.8549 33.0359 30.0787 34.6263 30.4623 35.4163C32.6465 39.8446 37.8353 41.7677 42.662 41.092C47.3074 40.4371 51.6333 37.1834 51.6333 31.2999C51.6333 29.2313 51.6333 27.1627 51.6333 25.0941C51.6333 23.0255 51.6439 18.2541 51.6333 16.1855H45.6453Z" fill="#080D14"/>
<path d="M176.381 35.3427C173.078 35.166 171.778 33.9082 171.714 30.8209C171.693 29.3967 171.693 27.9623 171.714 26.5277C171.735 25.114 171.821 23.0246 171.863 22.4217H178.043C178.043 19.8334 177.937 17.9519 177.937 17.1826L171.703 17.1202C171.703 16.6421 171.714 10.3219 171.714 9.84375L165.736 12.8583C165.736 16.351 165.769 21.3406 165.769 24.8437C165.769 28.1805 165.769 31.5173 165.769 34.8541C165.769 35.4882 165.918 36.5277 166.12 37.0891C167.825 41.7668 173.323 42.1202 176.221 41.0184L179.012 35.3843C178.522 35.2907 176.871 35.3739 176.381 35.3427Z" fill="#080D14"/>
<path d="M68.5106 16.1856C68.0737 16.1856 67.6368 16.2064 67.2 16.2479H67.1893C65.8895 16.3207 64.5789 16.6221 63.3217 17.1835C61.5956 17.9423 61.5849 17.9528 61.5849 17.9528C61.5636 15.8841 61.4997 10.3644 61.4997 7.76562H55.6183C55.6077 11.4143 55.5117 16.2687 55.5117 19.9278C55.5117 22.7864 55.5117 24.3976 55.5543 28.8051C55.597 32.5889 56.8862 35.1773 59.4646 37.8072C61.1161 39.4912 63.5135 40.7178 65.5272 40.9257C65.9641 40.9673 66.3903 40.9985 66.7952 41.0193C67.3492 41.0921 67.9245 41.1336 68.5106 41.1336C75.5746 41.1336 81.2964 35.5515 81.2964 28.6596C81.2964 21.7677 75.5746 16.1856 68.5106 16.1856ZM68.5106 34.4808C65.2182 34.4808 62.5439 31.8717 62.5439 28.6596C62.5439 25.4475 65.2182 22.8384 68.5106 22.8384C71.8028 22.8384 74.4772 25.4475 74.4772 28.6596C74.4772 31.8717 71.8028 34.4808 68.5106 34.4808Z" fill="#080D14"/>
<path d="M132.407 28.232C132.162 21.3505 126.237 15.9659 119.173 16.2049C118.598 16.2257 118.022 16.2777 117.469 16.3713C117.053 16.4024 116.637 16.4544 116.201 16.5168C114.197 16.787 111.854 18.0968 110.255 19.8432C107.773 22.5666 106.579 25.1862 106.675 28.97C106.792 33.3775 106.846 34.9887 106.952 37.8473C107.08 41.496 107.357 46.3505 107.496 49.9991L113.377 49.7912C113.281 47.1924 113.153 41.6727 113.089 39.6041C113.089 39.6041 113.111 39.6041 114.858 40.3109C116.147 40.8307 117.458 41.0802 118.758 41.1113H118.768C119.194 41.1426 119.632 41.1426 120.079 41.1322C127.132 40.9034 132.651 35.1238 132.407 28.232ZM119.834 34.5002C116.541 34.6145 113.771 32.0989 113.665 28.8868C113.558 25.6748 116.126 22.9721 119.418 22.8681C122.711 22.7538 125.48 25.2694 125.587 28.4814C125.694 31.6935 123.137 34.3858 119.834 34.5002Z" fill="#080D14"/>
<path d="M151.426 16.3096L151.265 10.3012C151.745 10.0622 152.193 9.7503 152.587 9.36569C154.622 7.38026 154.622 4.14741 152.587 2.16196C150.552 0.176515 147.238 0.176515 145.203 2.16196C143.168 4.14741 143.168 7.38026 145.203 9.36569C145.704 9.85429 146.279 10.2285 146.897 10.4676L147.057 16.4343C146.823 16.4551 146.589 16.4863 146.343 16.5175C144.958 16.7046 143.392 17.3906 142.039 18.3782L124.405 6.00812C124.501 5.49876 124.522 4.95822 124.448 4.41768C124.064 1.63182 121.432 -0.322446 118.577 0.0517747C115.721 0.425995 113.719 2.99356 114.102 5.77943C114.486 8.5653 117.117 10.5195 119.973 10.1453C120.676 10.0518 121.326 9.82312 121.901 9.50085L139.045 21.5279C137.489 23.7005 136.744 25.9769 136.839 28.9811C136.924 31.611 137.532 33.6588 138.501 35.2908L134.591 39.3034C134.08 39.1474 133.536 39.0538 132.982 39.0538C130.095 39.0538 127.761 41.3304 127.761 44.1474C127.761 46.9644 130.095 49.2409 132.982 49.2409C135.87 49.2409 138.203 46.9644 138.203 44.1474C138.203 43.4509 138.064 42.7961 137.809 42.1931L141.431 38.4821C142.007 38.9084 142.625 39.2826 143.264 39.6256C143.264 39.6256 143.285 39.6256 145.033 40.3324C146.322 40.8522 147.633 41.1017 148.932 41.1329H148.943C149.369 41.1641 149.806 41.1641 150.253 41.1537C157.307 40.9146 162.826 35.1349 162.581 28.243C162.336 22.0476 157.52 17.0684 151.426 16.3096ZM149.987 34.5009C146.695 34.6151 143.925 32.0996 143.818 28.8876C143.711 25.6755 146.279 22.9728 149.572 22.8688C152.864 22.7544 155.634 25.2701 155.74 28.4821C155.847 31.6942 153.29 34.3865 149.987 34.5009Z" fill="#080D14"/>
</g>
</g>
<defs>
<clipPath id="clip0_1610_7054">
<rect width="179" height="50" fill="white"/>
</clipPath>
</defs>
</svg>
