<svg width="134" height="56" viewBox="0 0 134 56" fill="none" xmlns="http://www.w3.org/2000/svg">
<g clip-path="url(#clip0_1610_7007)">
<mask id="mask0_1610_7007" style="mask-type:luminance" maskUnits="userSpaceOnUse" x="0" y="0" width="134" height="56">
<path d="M134 0H0V56H134V0Z" fill="white"/>
</mask>
<g mask="url(#mask0_1610_7007)">
<path d="M39.0871 28.0394C39.0931 35.1342 33.2108 41.1284 25.7951 40.907C18.9873 40.7039 13.3105 35.1342 13.3105 27.9879C13.3075 20.7658 19.1415 14.9961 26.4151 15.087C33.4829 15.1749 39.1203 20.9872 39.0871 28.0394ZM20.324 27.9637C20.3149 31.2169 22.9461 33.8942 26.1731 33.8911C29.4817 33.8881 32.0283 31.2685 32.0766 28.1183C32.1281 24.774 29.5059 22.1333 26.1852 22.112C23.0006 22.0908 20.3331 24.7529 20.324 27.9637Z" fill="white"/>
<path d="M9.00391 8.46614C9.57549 8.02347 10.144 7.55656 10.7398 7.13209C13.8337 4.92179 17.2543 3.48466 20.9864 2.79034C21.3584 2.72061 21.7334 2.66603 22.1084 2.62965C22.3322 2.60842 22.4138 2.52353 22.4109 2.2931C22.3987 1.64123 22.4138 0.986332 22.4017 0.334466C22.3957 0.094943 22.4592 0.000952424 22.7163 0.00398437C23.8293 0.0161122 24.9452 0.0161122 26.0582 0.00398437C26.2971 0.000952424 26.3606 0.0858469 26.3606 0.316274C26.3546 3.49679 26.3546 6.67426 26.3606 9.85473C26.3606 10.0943 26.276 10.158 26.0491 10.158C24.9452 10.1489 23.8414 10.1458 22.7405 10.158C22.4773 10.161 22.3775 10.0761 22.4048 9.81535C22.4199 9.66372 22.4078 9.50613 22.4078 9.29692C19.1324 9.87293 16.2653 11.204 13.7339 13.202C12.1583 11.6193 10.6008 10.061 9.00391 8.46614Z" fill="white"/>
<path d="M9.05469 47.7817C10.6455 46.1839 12.1971 44.6285 13.7697 43.0488C16.301 45.0408 19.15 46.3476 22.4073 46.9267C22.4073 46.6508 22.4133 46.4143 22.4042 46.1808C22.3982 46.0049 22.4737 45.9383 22.6462 45.9383C23.8015 45.9412 24.9567 45.9412 26.1151 45.9383C26.2905 45.9383 26.3691 46.0049 26.357 46.1808C26.354 46.2323 26.357 46.2869 26.357 46.3385C26.357 49.422 26.354 52.5085 26.3631 55.592C26.3631 55.9103 26.2845 56.0073 25.9578 56.0013C24.8872 55.98 23.8136 55.9861 22.743 55.9982C22.4859 56.0013 22.3921 55.9255 22.3982 55.6586C22.4163 55.0917 22.3952 54.5217 22.4073 53.9547C22.4103 53.7394 22.3618 53.6334 22.123 53.603C19.4464 53.2452 16.8878 52.4751 14.4592 51.3017C12.8835 50.5408 11.3986 49.6281 10.0195 48.5458C9.70198 48.2971 9.38133 48.0424 9.05469 47.7817Z" fill="white"/>
<path d="M6.71954 10.6914C7.19739 11.1886 7.64197 11.6616 8.09865 12.1255C9.1058 13.1412 10.1098 14.1599 11.1321 15.1574C11.3468 15.3666 11.3499 15.4849 11.1563 15.7153C8.59464 18.7382 7.08247 22.2158 6.68325 26.1695C6.653 26.4787 6.56832 26.5909 6.23565 26.5879C4.29099 26.5697 2.34633 26.5788 0.404695 26.5788C0.28977 26.5788 0.177869 26.5788 0.0175781 26.5788C0.114357 24.0532 0.631522 21.6518 1.47531 19.3172C2.63364 16.1125 4.36962 13.2594 6.71954 10.6914Z" fill="white"/>
<path d="M0 29.7562C0.160291 29.7562 0.263119 29.7562 0.365947 29.7562C2.33177 29.7562 4.29458 29.7623 6.26041 29.7501C6.5447 29.7471 6.66265 29.8107 6.68987 30.12C6.97113 33.0306 7.91473 35.723 9.46014 38.1971C9.95011 38.9793 10.5459 39.6949 11.0933 40.4377C11.1931 40.5711 11.305 40.6955 11.4018 40.8106C9.83517 42.3782 8.28673 43.9305 6.69894 45.5193C2.6826 41.0623 0.42341 35.8383 0 29.7562Z" fill="white"/>
<path d="M72.5455 29.5286C72.0313 29.9197 71.5444 30.2987 71.0423 30.6564C70.9879 30.6958 70.8306 30.6413 70.755 30.5836C69.875 29.9106 68.9253 29.3769 67.8214 29.1859C65.4322 28.7736 63.3 29.2921 61.5701 31.0567C60.2969 32.3574 59.6436 33.9612 59.5528 35.7713C59.4198 38.3697 60.2364 40.5922 62.3413 42.2172C65.6348 44.761 70.8639 43.8303 72.7179 39.4673C73.5737 37.451 73.5768 35.4166 72.7904 33.3761C72.7602 33.2973 72.7632 33.1487 72.8116 33.1093C73.3197 32.706 73.8399 32.321 74.3601 31.9298C76.0385 34.8193 76.0174 39.9918 72.4185 43.236C68.8225 46.4771 62.6861 46.2376 59.4681 42.2476C56.5074 38.5759 56.6918 32.6696 60.6114 29.2951C64.3162 26.1055 69.7721 26.7907 72.5455 29.5286Z" fill="white"/>
<path d="M127.202 10.1484C129.114 10.1756 130.792 10.7942 132.141 12.1768C135.525 15.6392 134.082 21.591 129.489 23.0887C127.073 23.877 124.786 23.5708 122.753 21.9942C120.706 20.4054 119.838 17.604 120.537 15.0995C121.345 12.207 123.797 10.2727 126.794 10.1696C126.93 10.1665 127.067 10.1575 127.202 10.1484ZM123.286 16.7853C123.286 16.849 123.286 16.9126 123.286 16.9733C123.349 19.3018 125.239 21.03 127.511 20.839C129.559 20.6693 131.067 18.9228 131.007 16.7702C130.959 15.1602 130.287 13.8807 128.811 13.1712C126.15 11.8948 123.286 13.7867 123.286 16.7853Z" fill="white"/>
<path d="M79.3424 18.6811C80.3768 20.197 81.396 21.6918 82.4515 23.2381C82.2881 23.2502 82.1793 23.2623 82.0734 23.2623C81.2236 23.2654 80.3707 23.2502 79.5209 23.2714C79.2305 23.2775 79.0642 23.1744 78.9099 22.9379C78.1388 21.7585 77.3464 20.5912 76.5751 19.4148C76.4451 19.2177 76.3029 19.1328 76.064 19.1419C75.559 19.1601 75.0539 19.1601 74.5519 19.1419C74.2706 19.1298 74.1708 19.2026 74.1738 19.5058C74.1919 20.6427 74.1738 21.7797 74.189 22.9167C74.1919 23.1956 74.1134 23.2775 73.8351 23.2714C73.1002 23.2532 72.3653 23.2593 71.6303 23.2684C71.4186 23.2714 71.334 23.2108 71.334 22.9834C71.34 18.8781 71.34 14.7729 71.334 10.6677C71.334 10.4493 71.4005 10.3735 71.6213 10.3765C73.5961 10.3826 75.5711 10.3583 77.546 10.3887C78.7799 10.4099 79.9412 10.7192 80.8788 11.5954C81.7317 12.3928 82.0583 13.4085 82.0734 14.5515C82.0977 16.4071 81.3325 17.7745 79.6086 18.5476C79.527 18.581 79.4543 18.6234 79.3424 18.6811ZM74.1769 14.7971C74.1769 15.3247 74.1829 15.8492 74.1738 16.3768C74.1708 16.5678 74.2343 16.6345 74.4279 16.6345C75.3745 16.6254 76.3181 16.6406 77.2647 16.6254C77.7819 16.6163 78.2658 16.4525 78.6499 16.0978C79.1913 15.5976 79.285 14.9548 79.1247 14.2665C78.9614 13.5722 78.4684 13.2115 77.8151 13.0477C77.5914 12.9931 77.3585 12.9598 77.1286 12.9567C76.2365 12.9446 75.3412 12.9598 74.4491 12.9476C74.2132 12.9446 74.1708 13.0447 74.1738 13.2508C74.1829 13.7632 74.1769 14.2817 74.1769 14.7971Z" fill="white"/>
<path d="M77.0957 45.158C77.138 45.0398 77.1592 44.964 77.1925 44.8882C78.4627 42.0806 79.7359 39.273 81.0062 36.4654C82.3217 33.5518 83.6404 30.6381 84.9438 27.7152C85.0678 27.4394 85.2131 27.3393 85.5064 27.3575C85.8935 27.3818 86.2837 27.3787 86.6708 27.3575C86.9097 27.3454 87.0242 27.4363 87.1217 27.6486C87.8656 29.3101 88.6183 30.9655 89.3684 32.624C90.7084 35.5862 92.0484 38.5484 93.3849 41.5106C93.8869 42.6233 94.3855 43.7361 94.885 44.8519C94.9215 44.9337 94.9511 45.0216 94.9998 45.152C94.3046 45.152 93.645 45.158 92.9855 45.1429C92.9072 45.1398 92.8045 45.0156 92.7619 44.9246C92.1963 43.6572 91.6368 42.3838 91.0773 41.1134C91.0564 41.0649 91.032 41.0164 91.0199 40.9679C90.9198 40.5828 90.684 40.4767 90.282 40.4797C87.3932 40.501 84.5023 40.4949 81.611 40.4828C81.3267 40.4828 81.1846 40.5677 81.0697 40.8284C80.486 42.1686 79.8751 43.4966 79.2853 44.8366C79.1824 45.0701 79.0585 45.1732 78.7924 45.1611C78.2419 45.1429 77.6884 45.158 77.0957 45.158ZM86.0265 29.7466C84.6747 32.7695 83.3591 35.7075 82.0314 38.6788C84.7049 38.6788 87.327 38.6788 90.0009 38.6788C88.6757 35.7014 87.3697 32.7665 86.0265 29.7466Z" fill="white"/>
<path d="M108.539 30.9015C107.973 30.5437 107.477 30.186 106.946 29.8979C105.491 29.1096 103.939 28.864 102.306 29.143C101.692 29.2491 101.151 29.5189 100.655 29.8888C99.3302 30.8803 99.3241 33.2482 100.888 34.1457C102.003 34.7854 103.228 35.0582 104.456 35.3463C105.614 35.6192 106.749 35.9497 107.813 36.5076C109.861 37.5809 110.502 39.2939 110.088 41.4223C109.713 43.3415 108.427 44.4876 106.612 45.0637C105.179 45.5215 103.715 45.4912 102.245 45.2547C100.298 44.9393 98.6315 44.0571 97.1671 42.7594C97.1096 42.7078 97.0522 42.5502 97.0827 42.5138C97.449 42.056 97.8327 41.6133 98.2112 41.1646C98.7403 41.5588 99.2267 41.959 99.747 42.3076C101.528 43.4992 103.491 43.8782 105.584 43.4901C106.643 43.293 107.508 42.7564 107.971 41.7256C108.563 40.4066 108.076 38.9786 106.812 38.2934C105.735 37.7082 104.553 37.4535 103.374 37.1837C102.236 36.9229 101.117 36.6076 100.068 36.071C98.3496 35.1917 97.5847 33.7818 97.6813 31.8778C97.7753 30.0343 98.7524 28.7852 100.34 27.9544C101.689 27.248 103.132 27.1752 104.61 27.2904C106.44 27.433 108.04 28.1484 109.485 29.246C109.552 29.2945 109.613 29.4673 109.579 29.5128C109.241 29.9858 108.881 30.4497 108.539 30.9015Z" fill="white"/>
<path d="M120.449 42.5872C120.849 42.1112 121.245 41.6383 121.659 41.144C121.958 41.3836 122.23 41.6079 122.509 41.8232C124.587 43.4332 126.903 44.0517 129.471 43.3574C130.584 43.0572 131.358 42.3174 131.594 41.1259C131.836 39.8919 131.336 38.858 130.229 38.2728C129.168 37.7088 128.007 37.4512 126.848 37.1873C125.669 36.9175 124.508 36.5961 123.425 36.0261C121.19 34.8467 120.394 32.0027 121.71 29.8349C122.618 28.3401 124.024 27.5852 125.69 27.3426C127.898 27.0212 130.006 27.379 131.932 28.5645C132.271 28.7737 132.601 29.0011 132.922 29.2376C132.985 29.2861 133.045 29.4589 133.012 29.5044C132.674 29.9835 132.317 30.4474 131.957 30.9264C131.624 30.6929 131.334 30.4716 131.025 30.2745C129.305 29.1588 127.432 28.7252 125.427 29.2255C124.26 29.5166 123.374 30.2018 123.153 31.4903C122.95 32.6728 123.404 33.6036 124.438 34.2069C125.512 34.8316 126.71 35.068 127.898 35.344C129.098 35.6228 130.275 35.9686 131.367 36.5658C133 37.4603 133.799 38.9429 133.617 40.8045C133.399 43.039 131.891 44.7278 129.583 45.1856C126.174 45.8617 123.15 45.0249 120.543 42.7085C120.515 42.6812 120.494 42.6449 120.449 42.5872Z" fill="white"/>
<path d="M97.2773 23.2654C97.2773 23.0864 97.2773 22.9622 97.2773 22.8379C97.2773 18.8266 97.2773 14.8153 97.2773 10.8041C97.2773 10.3796 97.2773 10.3796 97.7063 10.3796C99.3761 10.3796 101.048 10.3674 102.718 10.3827C103.891 10.3947 104.995 10.6707 105.924 11.4257C107.158 12.4261 107.569 13.7785 107.445 15.3126C107.276 17.4137 105.906 18.7539 103.901 19.2147C103.353 19.3421 102.778 19.3603 102.213 19.3905C101.536 19.4269 100.855 19.4239 100.175 19.4391C100.157 20.1303 100.132 20.8186 100.12 21.5099C100.111 21.9829 100.105 22.4589 100.124 22.9318C100.132 23.1987 100.038 23.2745 99.7816 23.2714C98.9645 23.2593 98.1483 23.2654 97.2773 23.2654ZM100.124 14.9002C100.124 15.4672 100.114 16.0372 100.132 16.6042C100.135 16.6952 100.241 16.8619 100.298 16.8619C101.19 16.8558 102.089 16.8922 102.972 16.7921C103.952 16.68 104.572 15.8947 104.578 14.9426C104.584 13.8785 104.058 13.169 103.002 13.0356C102.11 12.9234 101.2 12.9689 100.298 12.9629C100.241 12.9629 100.135 13.1326 100.132 13.2235C100.114 13.7845 100.124 14.3424 100.124 14.9002Z" fill="white"/>
<path d="M67.2083 14.229C64.9007 12.4189 62.8109 12.3128 61.3048 13.8924C59.844 15.4266 59.8289 18.1554 61.3048 19.7472C62.454 20.9872 65.0701 21.5814 67.2234 19.4287C67.8404 20.0079 68.4543 20.587 69.0864 21.1782C68.2426 22.1181 67.2748 22.8427 66.0651 23.1732C63.8059 23.7887 61.6586 23.5704 59.7472 22.1211C56.617 19.7472 56.372 14.8535 59.1302 12.0763C60.1555 11.0424 61.4075 10.4209 62.8502 10.2359C64.4894 10.0267 66.0893 10.1692 67.55 11.0242C68.0097 11.294 68.412 11.6549 68.8414 11.9763C68.9745 12.0763 68.9987 12.1733 68.8747 12.3128C68.3212 12.9465 67.7708 13.5832 67.2083 14.229Z" fill="white"/>
<path d="M95.5463 10.379C95.2174 10.8944 94.9389 11.3371 94.6579 11.7767C93.3388 13.8445 92.0205 15.9092 90.711 17.9831C90.6318 18.1074 90.6022 18.2802 90.6022 18.4288C90.5926 19.9236 90.59 21.4213 90.6022 22.9161C90.6048 23.189 90.5352 23.283 90.2507 23.2769C89.5372 23.2587 88.8202 23.2587 88.1067 23.2769C87.8195 23.286 87.756 23.1799 87.756 22.91C87.7682 21.4456 87.7682 19.9811 87.7525 18.5198C87.7499 18.3227 87.689 18.1014 87.5837 17.9346C86.0623 15.5121 84.5289 13.0956 82.9986 10.6761C82.9533 10.6064 82.92 10.5336 82.8535 10.4123C82.9866 10.4002 83.0833 10.3851 83.1801 10.3851C84.0723 10.382 84.9675 10.3911 85.8596 10.379C86.0805 10.376 86.1893 10.4609 86.3012 10.6488C87.1965 12.174 88.1041 13.6899 89.0046 15.212C89.0568 15.2999 89.1169 15.3848 89.2013 15.5151C89.4832 15.0543 89.746 14.6298 90.0027 14.2023C90.7231 13.0138 91.4427 11.8282 92.1536 10.6337C92.265 10.4457 92.3921 10.379 92.607 10.382C93.5563 10.3851 94.5004 10.379 95.5463 10.379Z" fill="white"/>
<path d="M112.525 12.9976C112.117 12.9976 111.763 12.9976 111.406 12.9976C110.586 12.9976 109.767 12.9916 108.947 13.0007C108.705 13.0037 108.615 12.931 108.617 12.6762C108.633 12.0123 108.629 11.3483 108.617 10.6873C108.615 10.4569 108.684 10.375 108.92 10.375C112.274 10.3811 115.625 10.3811 118.979 10.375C119.215 10.375 119.288 10.4538 119.284 10.6873C119.272 11.3513 119.269 12.0153 119.284 12.6762C119.29 12.9279 119.202 13.0037 118.958 13.0007C117.875 12.9916 116.792 13.0037 115.71 12.9916C115.429 12.9885 115.356 13.0795 115.356 13.3524C115.365 16.5207 115.356 19.6922 115.368 22.8605C115.368 23.1728 115.302 23.285 114.968 23.2729C114.285 23.2456 113.601 23.2486 112.918 23.2729C112.607 23.282 112.51 23.2032 112.51 22.8727C112.525 19.7346 112.519 16.5966 112.519 13.4585C112.525 13.3221 112.525 13.1856 112.525 12.9976Z" fill="white"/>
<path d="M29.1018 5.06975C29.1018 3.50224 29.1109 1.93169 29.0958 0.364175C29.0927 0.0670447 29.1865 -0.00572191 29.4708 0.000341971C30.5626 0.0155017 31.6544 0.0124698 32.7492 0.00337391C32.976 0.000341971 33.0637 0.0609808 33.0607 0.303536C33.0546 3.48101 33.0546 6.66152 33.0607 9.83901C33.0607 10.0603 33.0093 10.1573 32.7643 10.1573C31.6393 10.1453 30.5172 10.1453 29.3921 10.1573C29.1411 10.1604 29.0988 10.0603 29.1018 9.83901C29.1048 8.25026 29.1018 6.65849 29.1018 5.06975Z" fill="white"/>
<path d="M29.1018 50.9585C29.1018 49.4 29.1079 47.8417 29.0958 46.2863C29.0927 45.9952 29.1774 45.9103 29.4678 45.9163C30.5505 45.9315 31.6332 45.9285 32.7129 45.9194C32.9669 45.9163 33.0607 45.9831 33.0577 46.2529C33.0486 49.3909 33.0486 52.526 33.0577 55.6641C33.0577 55.9309 32.973 56.0037 32.716 56.0037C31.6332 55.9915 30.5505 55.9884 29.4708 56.0037C29.1865 56.0066 29.0927 55.9309 29.0958 55.6368C29.1079 54.0723 29.1018 52.5169 29.1018 50.9585Z" fill="white"/>
<path d="M116.425 36.3382C116.425 39.1397 116.425 41.9381 116.425 44.7397C116.425 45.1581 116.425 45.1581 115.993 45.1581C115.551 45.1581 115.11 45.152 114.668 45.1611C114.481 45.1642 114.39 45.1035 114.411 44.9095C114.417 44.8459 114.411 44.7822 114.411 44.7215C114.411 39.1215 114.411 33.5185 114.411 27.9185C114.411 27.4789 114.411 27.4789 114.862 27.4789C115.261 27.4789 115.66 27.4971 116.059 27.4728C116.35 27.4546 116.432 27.5516 116.432 27.8427C116.422 30.6745 116.425 33.5064 116.425 36.3382Z" fill="white"/>
</g>
</g>
<defs>
<clipPath id="clip0_1610_7007">
<rect width="134" height="56" fill="white"/>
</clipPath>
</defs>
</svg>
