<svg width="184" height="64" viewBox="0 0 184 64" fill="none" xmlns="http://www.w3.org/2000/svg">
<mask id="mask0_1599_7050" style="mask-type:luminance" maskUnits="userSpaceOnUse" x="21" y="6" width="143" height="35">
<path d="M164 6H21V40.7985H164V6Z" fill="white"/>
</mask>
<g mask="url(#mask0_1599_7050)">
<path d="M84.7072 23.3626C84.7072 23.1213 84.7138 22.8801 84.7138 22.6453C84.7138 22.4302 84.7072 22.2085 84.7072 21.9933C84.6811 19.1961 84.7203 16.3989 84.8046 13.6083C84.8307 12.852 84.8046 12.1152 84.7072 11.398C84.4664 9.61793 83.3805 8.06611 81.7738 7.26413C81.527 7.14024 80.8245 6.74251 80.5646 6.66427C78.841 6.14916 78.2885 6.01224 75.7064 5.9992C68.8586 5.97312 62.0042 6.01224 55.1563 6.01224H52.8671V22.1824L52.8281 40.6673L55.1173 40.6803C61.9717 40.7129 68.8196 40.7846 75.6678 40.7912C78.2494 40.7912 78.8024 40.6608 80.532 40.1522C80.7853 40.0739 81.5009 39.6762 81.7417 39.5589C83.3544 38.7699 84.4468 37.2246 84.6942 35.4446C84.7915 34.7339 84.8176 33.9971 84.798 33.2342C84.7268 30.4175 84.6746 26.4793 84.7072 23.3626ZM73.1963 32.0345L62.9146 31.9823L62.9407 22.7106L62.9146 22.5867V14.7559H73.1963C74.9066 14.8211 74.7115 15.1471 74.7376 15.773V22.9062H74.7115L74.744 31.0238C74.7181 31.6498 74.9066 31.9758 73.1963 32.0345Z" fill="white"/>
<path d="M131.744 40.7045C131.288 40.7045 131.288 40.7045 130.898 40.7045C127.777 40.7045 124.675 40.6784 121.527 40.6784C121.527 29.1441 121.527 17.6685 121.527 6.10159C131.633 6.10159 141.83 6.08203 152.099 6.08203C152.099 9.60296 152.099 11.4938 152.105 14.6301C145.251 14.6301 138.501 14.6301 131.633 14.6301C131.633 16.1819 131.633 17.662 131.633 19.2268C135.191 19.2268 138.748 19.2268 142.396 19.2268C142.396 22.0044 142.396 24.6973 142.396 27.4749C138.8 27.4749 135.242 27.4749 131.607 27.4749C131.607 31.7261 131.744 36.6228 131.744 40.7045Z" fill="white"/>
<path d="M87.0664 34.3158C86.8712 26.1003 87.0017 19.9713 87.0017 19.9713C87.2355 18.1325 88.1201 16.5221 89.928 15.5375C89.9346 15.531 89.9411 15.531 89.9476 15.5244C91.3847 14.7355 92.7179 14.1226 95.2609 14.0378C103 13.777 104.866 13.8683 109.958 13.8423C113.028 13.8227 114.322 14.416 115.681 14.9702C117.014 15.5114 118.067 16.5938 118.523 17.963C118.692 18.4651 118.724 19.0063 118.75 19.5931C118.867 22.1229 118.816 23.0619 118.867 24.731C119.004 29.0409 116.318 29.6277 113.522 29.7321C109.269 29.8886 105.002 29.7712 100.743 29.7712H97.3091V30.671C97.3091 31.5707 97.9659 32.3532 98.8571 32.4705C99.2214 32.5162 99.6047 32.5292 99.9951 32.5292C105.848 32.5032 111.708 32.5162 117.775 32.5162C117.846 33.755 117.801 35.02 117.808 36.2784C117.814 37.5629 117.821 39.4276 117.821 40.6339C117.69 40.6339 117.56 40.6339 117.215 40.6404H104.144L92.3927 40.6535C89.7002 40.5296 87.1316 37.0282 87.0664 34.3158ZM107.773 22.0903H98.1742C97.3678 22.0903 96.711 22.775 96.7757 23.5769C96.7757 23.603 96.7822 23.6226 96.7822 23.6487C96.8671 24.2616 97.4135 24.7115 98.0312 24.7115H107.897C108.462 24.7115 108.982 24.3464 109.132 23.7921C109.171 23.6487 109.184 23.4987 109.171 23.3552C109.119 22.6315 108.495 22.0903 107.773 22.0903Z" fill="white"/>
<path d="M50.8441 6.01953C50.8441 9.27965 50.8441 11.7573 50.8441 14.6915C47.794 14.7827 44.3538 14.6588 41.1217 14.7175C41.1217 23.3633 41.1217 31.944 41.1217 40.6355C37.74 40.6355 34.4298 40.6355 31.0417 40.6355C31.0417 32.0548 31.0417 23.4677 31.0417 14.724C27.66 14.724 24.3498 14.724 20.9941 14.724C21.0006 11.7704 21.0006 8.97972 21.0006 6.01953C22.672 6.01953 24.3238 6.01953 25.9821 6.01953C27.66 6.01953 29.3313 6.01953 31.0092 6.01953H50.8441Z" fill="white"/>
<path d="M163.967 28.2917C163.967 29.2828 163.967 30.2738 163.967 31.2584C163.967 32.243 163.967 33.2406 163.967 34.2251C163.967 35.2097 163.967 36.2073 163.967 37.1918L163.935 40.7649C160.833 40.778 157.106 40.6997 153.529 40.7649C153.529 32.7842 153.536 24.5687 153.536 16.5684C157.022 16.5684 160.572 16.5749 164 16.5749L163.967 28.2917Z" fill="white"/>
<path d="M163.928 6.01953C163.928 8.66022 163.928 11.1444 163.928 13.7851C162.166 13.7851 160.436 13.7851 158.713 13.7851C157.041 13.7851 155.37 13.7851 153.491 13.7851C153.425 12.5398 153.471 11.2748 153.465 10.0164C153.458 8.73195 153.465 7.45398 153.465 6.01953C155.266 6.01953 156.989 6.01953 158.719 6.01953C160.384 6.01953 162.055 6.01953 163.928 6.01953Z" fill="white"/>
<path d="M65.4437 39.3904C65.4176 38.6666 66.9849 38.1189 67.3946 37.0235C67.8043 35.9281 67.6808 35.1718 68.045 35.0023C70.7503 33.7308 75.9333 29.8317 76.8375 29.6166C78.0016 29.3427 80.4663 30.3012 82.1764 30.0274C83.8869 29.7535 84.8428 28.9972 85.7013 29.0297C86.7611 29.0754 89.0893 29.747 89.7722 29.5449C90.4551 29.3362 91.8275 28.5147 92.1657 27.6931C92.5104 26.8716 92.8807 24.8437 93.0237 24.5047C93.1607 24.1591 93.811 27.0802 93.1928 28.5212C92.5751 29.9622 90.7607 30.7511 89.9413 31.0249C89.1219 31.2988 89.6684 32.6028 90.0131 32.8767C90.3578 33.1505 93.7784 36.1694 93.8431 36.515C93.9083 36.8605 93.7393 40.5966 93.7393 40.5966C93.4663 40.6684 91.1642 40.6488 90.1496 40.701C89.9348 40.714 90.0778 39.8077 90.3578 39.6708C90.6373 39.5339 92.3413 39.5991 92.4126 39.4621C92.4843 39.3252 92.549 38.0212 92.4126 37.8842C92.2761 37.7473 85.8443 33.7699 85.7079 33.6982C85.5714 33.6265 84.4785 33.6982 84.342 33.7699C84.2056 33.8417 87.2814 36.7888 87.3532 36.9258C87.4244 37.0627 87.6261 37.7473 87.2814 38.0929C86.9367 38.4384 85.7079 40.0163 85.5714 40.2185C85.4349 40.4206 82.5602 40.6293 82.495 40.4923C82.4238 40.3554 82.7032 39.736 82.9762 39.6708C83.2497 39.5991 84.4785 39.7425 84.5503 39.5339C84.6215 39.3252 85.5779 38.1646 85.3697 38.0277C85.1614 37.8907 82.222 34.8719 82.0138 34.9436C81.8061 35.0153 80.5115 35.8369 80.5767 35.9738C80.6485 36.1107 82.2873 37.4148 82.222 37.5517C82.1503 37.6886 80.3038 40.3619 80.102 40.4336C79.8938 40.5053 77.7086 40.6423 77.7086 40.6423C77.7086 40.6423 77.7803 39.749 77.9168 39.6838C78.0533 39.6121 79.4191 39.6121 79.4191 39.5469C79.4191 39.4817 79.9003 38.4515 79.9003 38.3146C79.9003 38.1777 77.0778 36.6454 77.0778 36.6454C77.0778 36.6454 77.0778 37.5387 77.1496 37.6039C77.2208 37.6756 72.8379 40.4141 72.8379 40.551C72.8379 40.6879 69.8984 40.8248 69.8984 40.6879C69.8984 40.551 74.4832 37.7408 74.4832 37.6691C74.4832 37.5973 74.6198 35.9542 74.3466 36.0194C74.0735 36.0912 72.3631 35.8825 72.2916 36.0194C72.22 36.1564 72.155 38.2819 72.0835 38.3537C72.0119 38.4254 70.3731 39.7229 70.3731 39.586C70.3731 39.4491 70.3731 37.0496 70.3016 36.9779C70.23 36.9062 69.8919 37.1865 69.8919 37.2517C69.8919 37.317 69.9634 38.9014 69.8204 38.9666C69.6773 39.0318 65.4827 40.3163 65.4437 39.3904Z" fill="#F1AC1C"/>
<path d="M77.7676 40.447C77.7676 40.447 102.025 39.5993 101.895 39.7949C101.764 39.9906 98.7342 40.6034 97.9279 40.6425C96.9002 40.6947 81.6563 40.8512 77.6376 40.773C77.4424 40.773 77.5724 40.447 77.7676 40.447Z" fill="#F1AC1C"/>
</g>
<path d="M33.3085 49.978L34.9034 44.6899H35.4031L34.9993 46.26L33.2984 51.8789H32.819L33.3085 49.978ZM31.4562 44.6899L32.7988 49.9286L33.2025 51.8789H32.7029L30.8203 44.6899H31.4562ZM37.5531 49.9286L38.8755 44.6899H39.5114L37.6339 51.8789H37.1342L37.5531 49.9286ZM35.4586 44.6899L37.0333 49.978L37.5178 51.8789H37.0383L35.3728 46.26L34.964 44.6899H35.4586Z" fill="white"/>
<path d="M42.6229 51.9777C42.2662 51.9777 41.9381 51.9135 41.6387 51.7851C41.3426 51.6567 41.0835 51.4757 40.8614 51.242C40.6427 51.0083 40.4728 50.7318 40.3517 50.4125C40.2339 50.0899 40.175 49.7377 40.175 49.3559V49.1436C40.175 48.7321 40.2373 48.3601 40.3618 48.0277C40.4862 47.6952 40.6579 47.4105 40.8766 47.1735C41.0953 46.9365 41.3443 46.7554 41.6235 46.6304C41.9062 46.502 42.2023 46.4378 42.5118 46.4378C42.8584 46.4378 43.1663 46.4987 43.4354 46.6205C43.7046 46.739 43.9301 46.9085 44.1117 47.1291C44.2968 47.3463 44.4364 47.6047 44.5307 47.9042C44.6249 48.2005 44.672 48.528 44.672 48.8868V49.2472H40.5384V48.7436H44.0714V48.6745C44.0646 48.3749 44.0024 48.0952 43.8846 47.8351C43.7702 47.5718 43.5986 47.3578 43.3698 47.1932C43.141 47.0287 42.855 46.9464 42.5118 46.9464C42.2561 46.9464 42.0206 46.999 41.8052 47.1044C41.5932 47.2097 41.4099 47.3611 41.2551 47.5586C41.1037 47.7528 40.9859 47.9849 40.9018 48.2548C40.821 48.5214 40.7807 48.8177 40.7807 49.1436V49.3559C40.7807 49.6521 40.8244 49.9286 40.9119 50.1854C41.0027 50.4388 41.1306 50.6627 41.2955 50.8569C41.4637 51.0511 41.6622 51.2025 41.891 51.3111C42.1198 51.4197 42.3722 51.4741 42.6481 51.4741C42.9711 51.4741 43.2571 51.4165 43.5061 51.3012C43.7551 51.1827 43.9788 50.9968 44.1774 50.7433L44.5559 51.0297C44.4381 51.2008 44.2901 51.3588 44.1117 51.5037C43.9368 51.6485 43.7265 51.7637 43.4809 51.8493C43.2352 51.9349 42.9492 51.9777 42.6229 51.9777Z" fill="white"/>
<path d="M45.9564 44.2949H46.562V50.8421L46.5216 51.8789H45.9564V44.2949ZM50.3625 49.1584V49.2621C50.3625 49.6603 50.3154 50.0257 50.2212 50.3582C50.127 50.6906 49.9907 50.9787 49.8123 51.2222C49.634 51.4625 49.4153 51.6485 49.1562 51.7802C48.9005 51.9118 48.6061 51.9777 48.273 51.9777C47.9466 51.9777 47.6572 51.9283 47.4049 51.8296C47.1525 51.7275 46.9372 51.5843 46.7589 51.4C46.5805 51.2124 46.4375 50.9935 46.3298 50.7433C46.2222 50.4898 46.1465 50.2117 46.1027 49.9089V48.5906C46.1532 48.268 46.234 47.975 46.345 47.7117C46.456 47.4483 46.599 47.2212 46.774 47.0303C46.9523 46.8394 47.1643 46.6929 47.4099 46.5909C47.6589 46.4888 47.9432 46.4378 48.2629 46.4378C48.596 46.4378 48.8921 46.502 49.1512 46.6304C49.4136 46.7554 49.634 46.9381 49.8123 47.1784C49.9907 47.4154 50.127 47.7018 50.2212 48.0376C50.3154 48.37 50.3625 48.7436 50.3625 49.1584ZM49.7518 49.2621V49.1584C49.7518 48.8457 49.7215 48.556 49.6609 48.2894C49.6004 48.0227 49.5045 47.7907 49.3733 47.5932C49.2454 47.3924 49.0805 47.236 48.8786 47.1241C48.6768 47.0122 48.4345 46.9562 48.1519 46.9562C47.8625 46.9562 47.6152 47.004 47.4099 47.0994C47.208 47.1916 47.0398 47.315 46.9052 47.4697C46.774 47.6212 46.6697 47.7874 46.5923 47.9684C46.5149 48.1495 46.4577 48.3272 46.4207 48.5017V50.0372C46.4779 50.2841 46.5772 50.5162 46.7185 50.7334C46.8598 50.9507 47.0499 51.1268 47.2888 51.2617C47.5277 51.3934 47.8187 51.4592 48.1619 51.4592C48.4379 51.4592 48.6751 51.4033 48.8736 51.2914C49.0755 51.1795 49.2403 51.0247 49.3682 50.8272C49.4994 50.6297 49.5953 50.3977 49.6559 50.1311C49.7198 49.8644 49.7518 49.5748 49.7518 49.2621Z" fill="white"/>
<path d="M53.05 47.9586H53.6657C54.0426 47.9586 54.3572 47.896 54.6095 47.7709C54.8652 47.6426 55.057 47.473 55.1849 47.2624C55.3161 47.0517 55.3817 46.818 55.3817 46.5612C55.3817 46.2716 55.3262 46.0181 55.2152 45.8009C55.1041 45.5803 54.9342 45.4092 54.7054 45.2874C54.48 45.1623 54.1906 45.0997 53.8373 45.0997C53.5278 45.0997 53.2518 45.159 53.0096 45.2775C52.7673 45.396 52.5755 45.5655 52.4342 45.786C52.2929 46.0066 52.2222 46.2699 52.2222 46.5761H51.6216C51.6216 46.1843 51.7175 45.8404 51.9093 45.5441C52.1011 45.2446 52.3652 45.0109 52.7017 44.843C53.0382 44.6751 53.4167 44.5912 53.8373 44.5912C54.2714 44.5912 54.6482 44.6685 54.9679 44.8232C55.2909 44.9779 55.5399 45.2034 55.7148 45.4997C55.8932 45.7959 55.9823 46.1564 55.9823 46.581C55.9823 46.7982 55.9335 47.0122 55.836 47.2229C55.7417 47.4335 55.6004 47.6244 55.412 47.7956C55.2236 47.9635 54.9897 48.0984 54.7105 48.2005C54.4312 48.3025 54.1065 48.3536 53.7364 48.3536H53.05V47.9586ZM53.05 48.4671V48.0771H53.7364C54.157 48.0771 54.517 48.1248 54.8164 48.2202C55.1159 48.3124 55.3615 48.4441 55.5533 48.6152C55.7485 48.7831 55.8915 48.979 55.9823 49.2028C56.0732 49.4266 56.1186 49.6669 56.1186 49.9237C56.1186 50.2528 56.0631 50.5442 55.952 50.7976C55.841 51.0511 55.6829 51.2667 55.4776 51.4444C55.2757 51.6189 55.0368 51.7522 54.7609 51.8444C54.4884 51.9332 54.1889 51.9777 53.8625 51.9777C53.5665 51.9777 53.2771 51.9349 52.9944 51.8493C52.7152 51.7637 52.4628 51.637 52.2374 51.4691C52.0153 51.298 51.8387 51.084 51.7074 50.8272C51.5762 50.5672 51.5106 50.2677 51.5106 49.9286H52.1112C52.1112 50.2315 52.1852 50.4997 52.3333 50.7334C52.4813 50.9638 52.6866 51.1449 52.949 51.2766C53.2148 51.4049 53.5193 51.4691 53.8625 51.4691C54.2091 51.4691 54.5052 51.4115 54.7508 51.2963C54.9998 51.1778 55.1899 51.005 55.3212 50.7779C55.4524 50.5507 55.518 50.2726 55.518 49.9434C55.518 49.5978 55.4389 49.3164 55.2808 49.0991C55.126 48.8819 54.909 48.7222 54.6297 48.6202C54.3538 48.5181 54.0325 48.4671 53.6657 48.4671H53.05Z" fill="white"/>
<path d="M61.1655 44.6899V51.8789H60.5447V44.6899H61.1655Z" fill="white"/>
<path d="M63.7268 47.6771V51.8789H63.1262V46.5366H63.7016L63.7268 47.6771ZM63.5905 48.8769L63.323 48.7288C63.3432 48.4128 63.4088 48.1166 63.5199 47.8401C63.6309 47.5636 63.7806 47.32 63.9691 47.1093C64.1609 46.8986 64.3846 46.7341 64.6403 46.6156C64.8994 46.4971 65.1854 46.4378 65.4983 46.4378C65.7709 46.4378 66.0148 46.474 66.2302 46.5464C66.4455 46.6188 66.6289 46.7341 66.7803 46.8921C66.9317 47.0501 67.0461 47.2525 67.1235 47.4994C67.2043 47.7462 67.2446 48.0474 67.2446 48.4029V51.8789H66.639V48.398C66.639 48.0293 66.5868 47.7413 66.4825 47.5339C66.3782 47.3233 66.2302 47.1735 66.0384 47.0846C65.8466 46.9957 65.6195 46.9513 65.357 46.9513C65.0676 46.9513 64.8136 47.0138 64.5949 47.1389C64.3796 47.2607 64.1979 47.4204 64.0498 47.6179C63.9051 47.8121 63.7941 48.0211 63.7167 48.2449C63.6393 48.4655 63.5973 48.6761 63.5905 48.8769Z" fill="white"/>
<path d="M70.9264 51.4691C71.1821 51.4691 71.421 51.423 71.6431 51.3309C71.8685 51.2354 72.0536 51.0955 72.1983 50.9112C72.3463 50.7236 72.4304 50.4948 72.4506 50.2249H73.026C73.0092 50.5639 72.9032 50.8667 72.708 51.1334C72.5162 51.3967 72.2639 51.6041 71.951 51.7555C71.6414 51.9036 71.2999 51.9777 70.9264 51.9777C70.5462 51.9777 70.2097 51.9102 69.917 51.7752C69.6276 51.6403 69.3853 51.4527 69.1902 51.2124C68.995 50.9688 68.847 50.6857 68.746 50.3631C68.6485 50.0372 68.5997 49.6867 68.5997 49.3114V49.1041C68.5997 48.7288 68.6485 48.3799 68.746 48.0573C68.847 47.7314 68.995 47.4483 69.1902 47.2081C69.3853 46.9645 69.6276 46.7752 69.917 46.6402C70.2063 46.5053 70.5411 46.4378 70.9213 46.4378C71.3116 46.4378 71.6616 46.5152 71.9711 46.6699C72.2841 46.8246 72.533 47.0435 72.7181 47.3266C72.9065 47.6096 73.0092 47.9454 73.026 48.3338H72.4506C72.4338 48.0474 72.3564 47.8006 72.2184 47.5932C72.0805 47.3858 71.8988 47.2262 71.6734 47.1142C71.4479 47.0023 71.1973 46.9464 70.9213 46.9464C70.6118 46.9464 70.3477 47.0056 70.1289 47.1241C69.9102 47.2393 69.7319 47.399 69.594 47.6031C69.4594 47.8038 69.3601 48.0343 69.2962 48.2943C69.2322 48.5511 69.2003 48.821 69.2003 49.1041V49.3114C69.2003 49.5978 69.2306 49.871 69.2911 50.1311C69.3551 50.3878 69.4543 50.6166 69.5889 50.8174C69.7269 51.0182 69.9052 51.1778 70.1239 51.2963C70.346 51.4115 70.6135 51.4691 70.9264 51.4691Z" fill="white"/>
<path d="M77.8433 50.6446V46.5366H78.449V51.8789H77.8686L77.8433 50.6446ZM77.9544 49.6571L78.2673 49.6472C78.2673 49.9829 78.2269 50.2923 78.1462 50.5754C78.0654 50.8585 77.9392 51.1054 77.7676 51.3161C77.596 51.5267 77.374 51.6897 77.1014 51.8049C76.8289 51.9201 76.5008 51.9777 76.1172 51.9777C75.8514 51.9777 75.6075 51.9415 75.3854 51.8691C75.1667 51.7933 74.9783 51.6748 74.8201 51.5136C74.662 51.3523 74.5392 51.1432 74.4517 50.8865C74.3676 50.6297 74.3255 50.3187 74.3255 49.9533V46.5366H74.9261V49.9632C74.9261 50.2496 74.9581 50.4882 75.022 50.6791C75.0893 50.87 75.1802 51.0231 75.2946 51.1383C75.4123 51.2535 75.5469 51.3358 75.6983 51.3852C75.8497 51.4346 76.0129 51.4592 76.1879 51.4592C76.632 51.4592 76.982 51.3753 77.2377 51.2074C77.4968 51.0396 77.6801 50.819 77.7878 50.5458C77.8989 50.2693 77.9544 49.9731 77.9544 49.6571Z" fill="white"/>
<path d="M80.122 44.2949H80.7277V50.8421L80.6873 51.8789H80.122V44.2949ZM84.5281 49.1584V49.2621C84.5281 49.6603 84.481 50.0257 84.3868 50.3582C84.2926 50.6906 84.1563 50.9787 83.978 51.2222C83.7997 51.4625 83.5809 51.6485 83.3219 51.7802C83.0661 51.9118 82.7717 51.9777 82.4386 51.9777C82.1122 51.9777 81.8229 51.9283 81.5705 51.8296C81.3182 51.7275 81.1028 51.5843 80.9245 51.4C80.7462 51.2124 80.6032 50.9935 80.4955 50.7433C80.3878 50.4898 80.3121 50.2117 80.2684 49.9089V48.5906C80.3188 48.268 80.3996 47.975 80.5106 47.7117C80.6217 47.4483 80.7647 47.2212 80.9396 47.0303C81.118 46.8394 81.3299 46.6929 81.5756 46.5909C81.8246 46.4888 82.1089 46.4378 82.4285 46.4378C82.7616 46.4378 83.0577 46.502 83.3168 46.6304C83.5793 46.7554 83.7997 46.9381 83.978 47.1784C84.1563 47.4154 84.2926 47.7018 84.3868 48.0376C84.481 48.37 84.5281 48.7436 84.5281 49.1584ZM83.9174 49.2621V49.1584C83.9174 48.8457 83.8871 48.556 83.8266 48.2894C83.766 48.0227 83.6701 47.7907 83.5389 47.5932C83.411 47.3924 83.2462 47.236 83.0443 47.1241C82.8424 47.0122 82.6001 46.9562 82.3175 46.9562C82.0281 46.9562 81.7808 47.004 81.5756 47.0994C81.3737 47.1916 81.2054 47.315 81.0709 47.4697C80.9396 47.6212 80.8353 47.7874 80.7579 47.9684C80.6805 48.1495 80.6233 48.3272 80.5863 48.5017V50.0372C80.6435 50.2841 80.7428 50.5162 80.8841 50.7334C81.0254 50.9507 81.2155 51.1268 81.4544 51.2617C81.6933 51.3934 81.9844 51.4592 82.3276 51.4592C82.6035 51.4592 82.8407 51.4033 83.0392 51.2914C83.2411 51.1795 83.406 51.0247 83.5338 50.8272C83.6651 50.6297 83.761 50.3977 83.8215 50.1311C83.8855 49.8644 83.9174 49.5748 83.9174 49.2621Z" fill="white"/>
<path d="M89.29 50.9211V48.1659C89.29 47.9125 89.2361 47.6936 89.1285 47.5092C89.0208 47.3249 88.8626 47.1834 88.654 47.0846C88.4454 46.9859 88.188 46.9365 87.8818 46.9365C87.5992 46.9365 87.3468 46.9859 87.1248 47.0846C86.906 47.1801 86.7328 47.3101 86.6049 47.4747C86.4804 47.636 86.4182 47.8154 86.4182 48.0129L85.8125 48.0079C85.8125 47.8071 85.863 47.6129 85.9639 47.4253C86.0649 47.2377 86.2079 47.0698 86.3929 46.9217C86.578 46.7736 86.7984 46.6567 87.0541 46.5711C87.3132 46.4822 87.5975 46.4378 87.9071 46.4378C88.2974 46.4378 88.6406 46.502 88.9367 46.6304C89.2361 46.7587 89.47 46.9513 89.6382 47.2081C89.8064 47.4648 89.8906 47.7874 89.8906 48.1758V50.7581C89.8906 50.9425 89.904 51.1334 89.9309 51.3309C89.9612 51.5284 90.0033 51.6913 90.0571 51.8197V51.8789H89.4161C89.3758 51.7604 89.3438 51.6123 89.3202 51.4346C89.3001 51.2535 89.29 51.0823 89.29 50.9211ZM89.4313 48.7683L89.4414 49.2226H88.2553C87.9457 49.2226 87.6682 49.2505 87.4225 49.3065C87.1803 49.3592 86.975 49.4382 86.8068 49.5435C86.6385 49.6455 86.509 49.769 86.4182 49.9138C86.3307 50.0586 86.2869 50.2232 86.2869 50.4076C86.2869 50.5985 86.3357 50.7729 86.4333 50.9309C86.5342 51.0889 86.6756 51.2157 86.8573 51.3111C87.0423 51.4033 87.261 51.4494 87.5134 51.4494C87.8499 51.4494 88.146 51.3885 88.4017 51.2667C88.6608 51.1449 88.8744 50.9852 89.0427 50.7877C89.2109 50.5902 89.3236 50.3746 89.3808 50.1409L89.6433 50.4816C89.5995 50.6462 89.5188 50.8157 89.401 50.9902C89.2866 51.1613 89.1369 51.3226 88.9518 51.4741C88.7667 51.6222 88.548 51.744 88.2957 51.8394C88.0467 51.9316 87.7641 51.9777 87.4478 51.9777C87.0911 51.9777 86.7799 51.9118 86.5141 51.7802C86.2516 51.6485 86.0464 51.4691 85.8983 51.242C85.7536 51.0116 85.6813 50.7515 85.6813 50.4619C85.6813 50.1985 85.7385 49.9632 85.8529 49.7558C85.9673 49.5451 86.1322 49.3674 86.3475 49.2226C86.5662 49.0744 86.8287 48.9625 87.1348 48.8868C87.4444 48.8078 87.791 48.7683 88.1745 48.7683H89.4313Z" fill="white"/>
<path d="M93.6783 46.5366V47.0204H90.9428V46.5366H93.6783ZM91.9472 45.1639H92.5478V50.5804C92.5478 50.8272 92.5814 51.0132 92.6487 51.1383C92.716 51.2634 92.8035 51.3473 92.9112 51.3901C93.0188 51.4329 93.1349 51.4543 93.2594 51.4543C93.3503 51.4543 93.4377 51.4494 93.5219 51.4395C93.606 51.4263 93.6817 51.4132 93.749 51.4L93.7742 51.8987C93.7002 51.9217 93.6043 51.9398 93.4865 51.953C93.3688 51.9695 93.251 51.9777 93.1332 51.9777C92.9011 51.9777 92.6958 51.9365 92.5175 51.8542C92.3391 51.7687 92.1995 51.6238 92.0986 51.4197C91.9976 51.2124 91.9472 50.9309 91.9472 50.5754V45.1639Z" fill="white"/>
<path d="M94.6144 49.2917V49.1287C94.6144 48.7403 94.6716 48.3815 94.786 48.0524C94.9005 47.7232 95.0636 47.4385 95.2756 47.1982C95.491 46.9579 95.7484 46.7719 96.0478 46.6402C96.3473 46.5053 96.6804 46.4378 97.0471 46.4378C97.4173 46.4378 97.7521 46.5053 98.0515 46.6402C98.351 46.7719 98.6084 46.9579 98.8237 47.1982C99.0391 47.4385 99.2039 47.7232 99.3183 48.0524C99.4327 48.3815 99.4899 48.7403 99.4899 49.1287V49.2917C99.4899 49.6801 99.4327 50.0389 99.3183 50.3681C99.2039 50.6939 99.0391 50.977 98.8237 51.2173C98.6118 51.4576 98.356 51.6452 98.0566 51.7802C97.7571 51.9118 97.424 51.9777 97.0572 51.9777C96.6871 51.9777 96.3523 51.9118 96.0529 51.7802C95.7534 51.6452 95.496 51.4576 95.2807 51.2173C95.0653 50.977 94.9005 50.6939 94.786 50.3681C94.6716 50.0389 94.6144 49.6801 94.6144 49.2917ZM95.2151 49.1287V49.2917C95.2151 49.5846 95.2554 49.8628 95.3362 50.1261C95.4169 50.3862 95.5347 50.6182 95.6895 50.8223C95.8443 51.0231 96.036 51.1811 96.2649 51.2963C96.4937 51.4115 96.7578 51.4691 97.0572 51.4691C97.3533 51.4691 97.6141 51.4115 97.8395 51.2963C98.0683 51.1811 98.2601 51.0231 98.4149 50.8223C98.5697 50.6182 98.6858 50.3862 98.7632 50.1261C98.8439 49.8628 98.8843 49.5846 98.8843 49.2917V49.1287C98.8843 48.8391 98.8439 48.5642 98.7632 48.3042C98.6858 48.0441 98.568 47.8121 98.4099 47.608C98.2551 47.4039 98.0633 47.2426 97.8345 47.1241C97.6057 47.0056 97.3432 46.9464 97.0471 46.9464C96.7511 46.9464 96.4886 47.0056 96.2598 47.1241C96.0344 47.2426 95.8426 47.4039 95.6844 47.608C95.5297 47.8121 95.4119 48.0441 95.3311 48.3042C95.2537 48.5642 95.2151 48.8391 95.2151 49.1287Z" fill="white"/>
<path d="M101.446 47.4204V51.8789H100.845V46.5366H101.43L101.446 47.4204ZM103.379 46.4971L103.363 47.0402C103.296 47.0303 103.231 47.0221 103.167 47.0155C103.103 47.0089 103.034 47.0056 102.96 47.0056C102.697 47.0056 102.467 47.0533 102.268 47.1488C102.073 47.241 101.908 47.371 101.774 47.5389C101.639 47.7034 101.536 47.8977 101.466 48.1215C101.395 48.342 101.355 48.579 101.345 48.8325L101.123 48.9164C101.123 48.5675 101.16 48.2433 101.234 47.9437C101.308 47.6442 101.42 47.3825 101.572 47.1587C101.727 46.9316 101.92 46.7554 102.152 46.6304C102.388 46.502 102.664 46.4378 102.98 46.4378C103.057 46.4378 103.133 46.4444 103.207 46.4576C103.284 46.4674 103.342 46.4806 103.379 46.4971Z" fill="white"/>
<path d="M108.234 48.003L109.415 47.134C109.63 46.9793 109.807 46.8131 109.945 46.6353C110.086 46.4543 110.157 46.2419 110.157 45.9984C110.157 45.7647 110.071 45.5556 109.899 45.3713C109.728 45.187 109.48 45.0948 109.157 45.0948C108.922 45.0948 108.723 45.1458 108.562 45.2479C108.4 45.3466 108.279 45.4816 108.198 45.6527C108.118 45.8206 108.077 46.0049 108.077 46.2057C108.077 46.3637 108.109 46.5283 108.173 46.6995C108.24 46.8674 108.335 47.0435 108.456 47.2278C108.58 47.4088 108.73 47.5998 108.905 47.8006L112.478 51.8789H111.752L108.708 48.4177C108.459 48.1347 108.24 47.873 108.052 47.6327C107.867 47.3924 107.724 47.1587 107.623 46.9316C107.522 46.7044 107.472 46.4691 107.472 46.2255C107.472 45.8864 107.541 45.5951 107.679 45.3515C107.817 45.108 108.012 44.9203 108.264 44.7887C108.516 44.6537 108.814 44.5862 109.157 44.5862C109.487 44.5862 109.768 44.6521 110 44.7837C110.236 44.9121 110.416 45.0833 110.54 45.2972C110.665 45.5079 110.727 45.7416 110.727 45.9984C110.727 46.2123 110.678 46.4115 110.581 46.5958C110.486 46.7801 110.364 46.948 110.212 47.0994C110.064 47.2476 109.908 47.3842 109.743 47.5092L108.4 48.5214C108.111 48.7486 107.896 48.9576 107.754 49.1485C107.616 49.3394 107.525 49.5089 107.482 49.6571C107.438 49.8052 107.416 49.9336 107.416 50.0422C107.416 50.2956 107.477 50.531 107.598 50.7482C107.719 50.9655 107.904 51.14 108.153 51.2716C108.402 51.4033 108.715 51.4691 109.092 51.4691C109.408 51.4691 109.714 51.4033 110.01 51.2716C110.306 51.1367 110.571 50.9457 110.803 50.6989C111.038 50.4487 111.223 50.1525 111.358 49.8101C111.496 49.4645 111.565 49.081 111.565 48.6597H112.12C112.12 48.9724 112.088 49.2653 112.024 49.5386C111.964 49.8118 111.873 50.0636 111.752 50.294C111.63 50.5244 111.481 50.7367 111.302 50.9309C111.275 50.9638 111.257 50.9902 111.247 51.0099C111.24 51.0297 111.223 51.0527 111.196 51.0791C110.927 51.3556 110.611 51.5745 110.248 51.7357C109.884 51.897 109.499 51.9777 109.092 51.9777C108.624 51.9777 108.219 51.897 107.875 51.7357C107.536 51.5745 107.273 51.349 107.088 51.0593C106.906 50.7663 106.816 50.4273 106.816 50.0422C106.816 49.7558 106.878 49.4958 107.002 49.2621C107.127 49.0283 107.297 48.8094 107.512 48.6054C107.727 48.4013 107.968 48.2005 108.234 48.003Z" fill="white"/>
<path d="M120.866 49.6373H121.487C121.437 50.1212 121.3 50.5392 121.078 50.8914C120.856 51.2403 120.554 51.5086 120.17 51.6962C119.786 51.8839 119.324 51.9777 118.782 51.9777C118.365 51.9777 117.986 51.9003 117.646 51.7456C117.31 51.5909 117.021 51.372 116.778 51.0889C116.536 50.8026 116.349 50.4602 116.218 50.0619C116.087 49.6636 116.021 49.2209 116.021 48.7337V47.8351C116.021 47.3479 116.087 46.9069 116.218 46.5119C116.349 46.1136 116.538 45.7712 116.783 45.4849C117.029 45.1985 117.323 44.9779 117.667 44.8232C118.01 44.6685 118.397 44.5912 118.827 44.5912C119.349 44.5912 119.8 44.685 120.18 44.8726C120.56 45.0569 120.86 45.3236 121.078 45.6725C121.3 46.0214 121.437 46.4427 121.487 46.9365H120.866C120.819 46.5481 120.715 46.2189 120.554 45.949C120.392 45.6791 120.168 45.4733 119.882 45.3318C119.6 45.187 119.248 45.1145 118.827 45.1145C118.484 45.1145 118.178 45.1787 117.909 45.3071C117.64 45.4355 117.411 45.6198 117.222 45.8601C117.034 46.0971 116.889 46.3818 116.788 46.7143C116.691 47.0468 116.642 47.4171 116.642 47.8252V48.7337C116.642 49.1287 116.689 49.4925 116.783 49.8249C116.878 50.1574 117.015 50.4454 117.197 50.689C117.382 50.9326 117.608 51.1218 117.874 51.2568C118.139 51.3918 118.442 51.4592 118.782 51.4592C119.216 51.4592 119.578 51.3918 119.867 51.2568C120.16 51.1186 120.387 50.9145 120.548 50.6446C120.71 50.3746 120.816 50.0389 120.866 49.6373Z" fill="white"/>
<path d="M122.63 49.2917V49.1287C122.63 48.7403 122.688 48.3815 122.802 48.0524C122.916 47.7232 123.079 47.4385 123.291 47.1982C123.507 46.9579 123.764 46.7719 124.064 46.6402C124.363 46.5053 124.696 46.4378 125.063 46.4378C125.433 46.4378 125.768 46.5053 126.067 46.6402C126.367 46.7719 126.624 46.9579 126.84 47.1982C127.055 47.4385 127.22 47.7232 127.334 48.0524C127.449 48.3815 127.506 48.7403 127.506 49.1287V49.2917C127.506 49.6801 127.449 50.0389 127.334 50.3681C127.22 50.6939 127.055 50.977 126.84 51.2173C126.628 51.4576 126.372 51.6452 126.072 51.7802C125.773 51.9118 125.44 51.9777 125.073 51.9777C124.703 51.9777 124.368 51.9118 124.069 51.7802C123.769 51.6452 123.512 51.4576 123.297 51.2173C123.081 50.977 122.916 50.6939 122.802 50.3681C122.688 50.0389 122.63 49.6801 122.63 49.2917ZM123.231 49.1287V49.2917C123.231 49.5846 123.271 49.8628 123.352 50.1261C123.433 50.3862 123.551 50.6182 123.705 50.8223C123.86 51.0231 124.052 51.1811 124.281 51.2963C124.509 51.4115 124.774 51.4691 125.073 51.4691C125.369 51.4691 125.63 51.4115 125.855 51.2963C126.084 51.1811 126.276 51.0231 126.431 50.8223C126.586 50.6182 126.702 50.3862 126.779 50.1261C126.86 49.8628 126.9 49.5846 126.9 49.2917V49.1287C126.9 48.8391 126.86 48.5642 126.779 48.3042C126.702 48.0441 126.584 47.8121 126.426 47.608C126.271 47.4039 126.079 47.2426 125.85 47.1241C125.622 47.0056 125.359 46.9464 125.063 46.9464C124.767 46.9464 124.504 47.0056 124.276 47.1241C124.05 47.2426 123.858 47.4039 123.7 47.608C123.546 47.8121 123.428 48.0441 123.347 48.3042C123.27 48.5642 123.231 48.8391 123.231 49.1287Z" fill="white"/>
<path d="M129.461 47.6771V51.8789H128.861V46.5366H129.436L129.461 47.6771ZM129.325 48.8769L129.058 48.7288C129.078 48.4128 129.143 48.1166 129.255 47.8401C129.366 47.5636 129.515 47.32 129.704 47.1093C129.895 46.8986 130.119 46.7341 130.375 46.6156C130.634 46.4971 130.92 46.4378 131.233 46.4378C131.506 46.4378 131.749 46.474 131.965 46.5464C132.18 46.6188 132.364 46.7341 132.515 46.8921C132.666 47.0501 132.781 47.2525 132.858 47.4994C132.939 47.7462 132.979 48.0474 132.979 48.4029V51.8789H132.374V48.398C132.374 48.0293 132.321 47.7413 132.217 47.5339C132.113 47.3233 131.965 47.1735 131.773 47.0846C131.581 46.9957 131.354 46.9513 131.092 46.9513C130.802 46.9513 130.548 47.0138 130.33 47.1389C130.114 47.2607 129.933 47.4204 129.784 47.6179C129.64 47.8121 129.529 48.0211 129.451 48.2449C129.374 48.4655 129.332 48.6761 129.325 48.8769Z" fill="white"/>
<path d="M137.918 50.5162C137.918 50.3713 137.881 50.2282 137.807 50.0866C137.733 49.9451 137.59 49.8151 137.378 49.6966C137.169 49.5781 136.861 49.4777 136.454 49.3954C136.151 49.3295 135.88 49.2555 135.642 49.1732C135.406 49.0909 135.207 48.9921 135.046 48.8769C134.884 48.7617 134.762 48.6235 134.678 48.4622C134.593 48.3009 134.551 48.11 134.551 47.8894C134.551 47.6919 134.595 47.5059 134.683 47.3315C134.773 47.1537 134.901 46.999 135.066 46.8674C135.234 46.7324 135.436 46.6271 135.672 46.5514C135.911 46.4757 136.178 46.4378 136.474 46.4378C136.895 46.4378 137.255 46.5086 137.554 46.6501C137.857 46.7884 138.088 46.9776 138.246 47.2179C138.407 47.4582 138.488 47.7298 138.488 48.0326H137.887C137.887 47.8483 137.832 47.6738 137.721 47.5092C137.613 47.3447 137.453 47.2097 137.241 47.1044C137.033 46.999 136.777 46.9464 136.474 46.9464C136.161 46.9464 135.907 46.9924 135.712 47.0846C135.517 47.1768 135.374 47.2936 135.283 47.4352C135.196 47.5767 135.152 47.7232 135.152 47.8746C135.152 47.9931 135.17 48.1017 135.207 48.2005C135.248 48.2959 135.319 48.3848 135.419 48.4671C135.524 48.5494 135.672 48.6268 135.864 48.6992C136.055 48.7716 136.304 48.8424 136.611 48.9115C137.051 49.0069 137.411 49.1238 137.691 49.2621C137.973 49.397 138.182 49.5649 138.316 49.7657C138.451 49.9632 138.518 50.2035 138.518 50.4866C138.518 50.7071 138.471 50.9095 138.377 51.0939C138.283 51.2749 138.147 51.4313 137.968 51.5629C137.793 51.6946 137.581 51.7966 137.332 51.8691C137.087 51.9415 136.811 51.9777 136.505 51.9777C136.044 51.9777 135.653 51.9036 135.334 51.7555C135.017 51.6041 134.777 51.4066 134.612 51.163C134.45 50.9161 134.37 50.6544 134.37 50.3779H134.97C134.99 50.6544 135.08 50.8733 135.238 51.0346C135.396 51.1926 135.589 51.3045 135.818 51.3704C136.05 51.4362 136.279 51.4691 136.505 51.4691C136.814 51.4691 137.073 51.4247 137.282 51.3358C137.49 51.2469 137.649 51.1301 137.756 50.9852C137.864 50.8404 137.918 50.6841 137.918 50.5162Z" fill="white"/>
<path d="M143.487 50.6446V46.5366H144.093V51.8789H143.512L143.487 50.6446ZM143.598 49.6571L143.911 49.6472C143.911 49.9829 143.871 50.2923 143.79 50.5754C143.709 50.8585 143.583 51.1054 143.411 51.3161C143.24 51.5267 143.018 51.6897 142.745 51.8049C142.473 51.9201 142.145 51.9777 141.761 51.9777C141.495 51.9777 141.251 51.9415 141.029 51.8691C140.81 51.7933 140.622 51.6748 140.464 51.5136C140.306 51.3523 140.183 51.1432 140.095 50.8865C140.011 50.6297 139.969 50.3187 139.969 49.9533V46.5366H140.57V49.9632C140.57 50.2496 140.602 50.4882 140.666 50.6791C140.733 50.87 140.824 51.0231 140.938 51.1383C141.056 51.2535 141.191 51.3358 141.342 51.3852C141.494 51.4346 141.657 51.4592 141.832 51.4592C142.276 51.4592 142.626 51.3753 142.881 51.2074C143.141 51.0396 143.324 50.819 143.432 50.5458C143.543 50.2693 143.598 49.9731 143.598 49.6571Z" fill="white"/>
<path d="M146.447 44.2949V51.8789H145.847V44.2949H146.447Z" fill="white"/>
<path d="M150.265 46.5366V47.0204H147.53V46.5366H150.265ZM148.534 45.1639H149.135V50.5804C149.135 50.8272 149.168 51.0132 149.236 51.1383C149.303 51.2634 149.39 51.3473 149.498 51.3901C149.606 51.4329 149.722 51.4543 149.846 51.4543C149.937 51.4543 150.025 51.4494 150.109 51.4395C150.193 51.4263 150.269 51.4132 150.336 51.4L150.361 51.8987C150.287 51.9217 150.191 51.9398 150.073 51.953C149.956 51.9695 149.838 51.9777 149.72 51.9777C149.488 51.9777 149.283 51.9365 149.104 51.8542C148.926 51.7687 148.786 51.6238 148.685 51.4197C148.585 51.2124 148.534 50.9309 148.534 50.5754V45.1639Z" fill="white"/>
<path d="M152.307 46.5366V51.8789H151.706V46.5366H152.307ZM151.6 44.9911C151.6 44.8792 151.635 44.7854 151.706 44.7097C151.78 44.6307 151.881 44.5912 152.009 44.5912C152.137 44.5912 152.238 44.6307 152.312 44.7097C152.389 44.7854 152.428 44.8792 152.428 44.9911C152.428 45.0997 152.389 45.1935 152.312 45.2725C152.238 45.3483 152.137 45.3861 152.009 45.3861C151.881 45.3861 151.78 45.3483 151.706 45.2725C151.635 45.1935 151.6 45.0997 151.6 44.9911Z" fill="white"/>
<path d="M154.661 47.6771V51.8789H154.06V46.5366H154.636L154.661 47.6771ZM154.525 48.8769L154.257 48.7288C154.277 48.4128 154.343 48.1166 154.454 47.8401C154.565 47.5636 154.715 47.32 154.903 47.1093C155.095 46.8986 155.319 46.7341 155.575 46.6156C155.834 46.4971 156.12 46.4378 156.433 46.4378C156.705 46.4378 156.949 46.474 157.164 46.5464C157.38 46.6188 157.563 46.7341 157.715 46.8921C157.866 47.0501 157.98 47.2525 158.058 47.4994C158.138 47.7462 158.179 48.0474 158.179 48.4029V51.8789H157.573V48.398C157.573 48.0293 157.521 47.7413 157.417 47.5339C157.312 47.3233 157.164 47.1735 156.973 47.0846C156.781 46.9957 156.554 46.9513 156.291 46.9513C156.002 46.9513 155.748 47.0138 155.529 47.1389C155.314 47.2607 155.132 47.4204 154.984 47.6179C154.839 47.8121 154.728 48.0211 154.651 48.2449C154.574 48.4655 154.531 48.6761 154.525 48.8769Z" fill="white"/>
<path d="M163.44 46.5366H164.001V51.7851C164.001 52.2492 163.91 52.6475 163.728 52.98C163.55 53.3125 163.296 53.5676 162.966 53.7453C162.64 53.9231 162.254 54.0119 161.81 54.0119C161.585 54.0119 161.353 53.9774 161.114 53.9082C160.878 53.8424 160.654 53.7404 160.442 53.6021C160.234 53.4672 160.055 53.2993 159.907 53.0985L160.246 52.7381C160.468 53.0014 160.705 53.194 160.957 53.3157C161.21 53.4408 161.482 53.5034 161.775 53.5034C162.121 53.5034 162.414 53.4359 162.653 53.3009C162.895 53.166 163.079 52.9718 163.203 52.7183C163.331 52.4649 163.395 52.1604 163.395 51.8049V47.7117L163.44 46.5366ZM159.605 49.2621V49.1584C159.605 48.7436 159.652 48.37 159.746 48.0376C159.843 47.7018 159.983 47.4154 160.165 47.1784C160.346 46.9381 160.567 46.7554 160.826 46.6304C161.088 46.502 161.384 46.4378 161.714 46.4378C162.031 46.4378 162.311 46.4888 162.557 46.5909C162.803 46.6929 163.015 46.8394 163.193 47.0303C163.371 47.2212 163.514 47.4483 163.622 47.7117C163.733 47.975 163.814 48.268 163.864 48.5906V49.9089C163.824 50.2117 163.75 50.4898 163.642 50.7433C163.535 50.9935 163.392 51.2124 163.213 51.4C163.035 51.5843 162.82 51.7275 162.567 51.8296C162.318 51.9283 162.031 51.9777 161.704 51.9777C161.378 51.9777 161.085 51.9118 160.826 51.7802C160.567 51.6485 160.346 51.4625 160.165 51.2222C159.983 50.9787 159.843 50.6906 159.746 50.3582C159.652 50.0257 159.605 49.6603 159.605 49.2621ZM160.21 49.1584V49.2621C160.21 49.5748 160.242 49.8644 160.306 50.1311C160.37 50.3977 160.468 50.6297 160.599 50.8272C160.73 51.0247 160.897 51.1795 161.098 51.2914C161.3 51.4033 161.538 51.4592 161.81 51.4592C162.157 51.4592 162.448 51.3951 162.683 51.2667C162.919 51.135 163.106 50.9622 163.243 50.7482C163.381 50.531 163.482 50.294 163.546 50.0372V48.5017C163.509 48.3272 163.452 48.1495 163.375 47.9684C163.301 47.7874 163.196 47.6212 163.062 47.4697C162.931 47.315 162.762 47.1916 162.557 47.0994C162.355 47.004 162.11 46.9562 161.82 46.9562C161.544 46.9562 161.304 47.0122 161.098 47.1241C160.897 47.236 160.73 47.3924 160.599 47.5932C160.468 47.7907 160.37 48.0227 160.306 48.2894C160.242 48.556 160.21 48.8457 160.21 49.1584Z" fill="white"/>
</svg>
