<svg width="68" height="64" viewBox="0 0 68 64" fill="none" xmlns="http://www.w3.org/2000/svg">
<g clip-path="url(#clip0_1599_7035)">
<mask id="mask0_1599_7035" style="mask-type:luminance" maskUnits="userSpaceOnUse" x="3" y="3" width="61" height="52">
<path d="M63.8393 3H3.99805V54.5556H63.8393V3Z" fill="white"/>
</mask>
<g mask="url(#mask0_1599_7035)">
<path d="M27.8246 11.3359C27.3416 12.1164 26.8324 12.8541 26.439 13.5263C22.071 20.9891 17.7118 28.4575 13.3409 35.9203C10.3759 40.9846 7.39349 46.0377 4.42558 51.0992C3.38131 52.8823 4.33012 54.5486 6.40129 54.5515C17.4341 54.5571 28.4668 54.5543 39.4996 54.5515C39.783 54.5515 40.2922 54.5486 40.784 54.5486C40.5236 54.0929 40.2661 53.6713 40.0896 53.3665C38.6752 50.9254 37.2491 48.4901 35.8201 46.0547C34.0989 43.1238 32.369 40.1985 30.6479 37.2675C29.0164 34.4818 27.3907 31.6904 25.7535 28.8819C25.8894 28.6455 26.0167 28.4148 26.1497 28.1898C27.9317 25.1534 29.6962 22.1142 31.4954 19.0921C31.8483 18.4996 31.8339 18.0154 31.4781 17.4286L27.8246 11.3359ZM14.9232 47.3564C17.1563 43.5454 19.294 39.9023 21.4288 36.2564C21.5272 36.2478 21.6256 36.2393 21.7239 36.2307C23.9108 39.8624 26.0428 43.5283 28.2498 47.3564C23.7141 47.3564 19.4473 47.3564 14.9232 47.3564Z" fill="white"/>
<path d="M63.4624 51.1769C63.1905 50.7268 62.8954 50.291 62.6293 49.8353C59.0713 43.7569 55.5219 37.6728 51.961 31.6C49.346 27.1395 46.705 22.6904 44.0871 18.2326C41.339 13.5499 38.6112 8.85862 35.8574 4.17874C34.9404 2.62068 33.0398 2.60929 32.0882 4.14741C31.4229 5.22409 30.8125 6.33781 30.1472 7.4145C29.9013 7.81326 29.8984 8.13513 30.1414 8.5396C31.015 9.99512 31.8538 11.4706 32.713 12.9347C35.7416 18.0959 38.7761 23.2543 41.8076 28.4155C44.1102 32.3378 46.4215 36.2571 48.7183 40.1822C50.156 42.6403 51.5705 45.1099 53.0082 47.568C54.3619 49.8809 55.7331 52.1824 57.0753 54.4553C57.2662 54.4952 57.3848 54.5408 57.5034 54.5408C58.8658 54.5494 60.2312 54.5693 61.5937 54.5465C63.4537 54.5209 64.4199 52.7634 63.4624 51.1769Z" fill="white"/>
</g>
</g>
<path d="M5.04743 59.7084H4.30272L4.29869 59.4144H4.97477C5.08644 59.4144 5.18399 59.3967 5.2674 59.3613C5.35082 59.3258 5.4154 59.2753 5.46115 59.2095C5.50824 59.1425 5.53178 59.0628 5.53178 58.9705C5.53178 58.8693 5.51093 58.7871 5.46922 58.7239C5.42886 58.6594 5.36629 58.6126 5.28153 58.5835C5.19811 58.5532 5.09182 58.538 4.96266 58.538H4.3895V61.0002H4V58.2383H4.96266C5.11335 58.2383 5.2479 58.2528 5.36629 58.2819C5.48469 58.3097 5.58493 58.354 5.667 58.4147C5.75042 58.4741 5.81365 58.55 5.85671 58.6423C5.89976 58.7346 5.92129 58.8453 5.92129 58.9743C5.92129 59.0881 5.89034 59.1912 5.82845 59.2835C5.76656 59.3745 5.68045 59.4491 5.57013 59.5073C5.46115 59.5655 5.33333 59.6028 5.18668 59.6192L5.04743 59.7084ZM5.02926 61.0002H4.14934L4.36932 60.7024H5.02926C5.15304 60.7024 5.25799 60.6821 5.34409 60.6417C5.43155 60.6012 5.49815 60.5443 5.54389 60.4709C5.58964 60.3963 5.61251 60.3084 5.61251 60.2073C5.61251 60.1048 5.593 60.0163 5.55398 59.9417C5.51497 59.8671 5.45375 59.8096 5.37033 59.7691C5.28691 59.7286 5.17928 59.7084 5.04743 59.7084H4.49243L4.49647 59.4144H5.2553L5.33804 59.5206C5.47931 59.532 5.59906 59.5699 5.69727 59.6344C5.79549 59.6976 5.87016 59.7786 5.92129 59.8772C5.97376 59.9759 6 60.0846 6 60.2035C6 60.3755 5.95963 60.5209 5.87891 60.6398C5.79953 60.7574 5.68718 60.8472 5.54187 60.9091C5.39657 60.9698 5.2257 61.0002 5.02926 61.0002Z" fill="white"/>
<path d="M10.2124 58.2383H11.1851C11.4058 58.2383 11.5921 58.2699 11.7442 58.3331C11.8975 58.3964 12.0139 58.4899 12.0933 58.6139C12.174 58.7365 12.2144 58.8877 12.2144 59.0672C12.2144 59.1937 12.1868 59.3094 12.1317 59.4144C12.0778 59.5181 11.9998 59.6066 11.8975 59.6799C11.7966 59.752 11.6755 59.8058 11.5343 59.8412L11.4253 59.881H10.5111L10.507 59.5832H11.1972C11.3372 59.5832 11.4535 59.5604 11.5464 59.5149C11.6392 59.4681 11.7092 59.4055 11.7563 59.3271C11.8034 59.2487 11.8269 59.1621 11.8269 59.0672C11.8269 58.961 11.8047 58.8681 11.7603 58.7884C11.7159 58.7087 11.6459 58.6474 11.5504 58.6044C11.4562 58.5601 11.3345 58.538 11.1851 58.538H10.6019V61.0002H10.2124V58.2383ZM11.9298 61.0002L11.2154 59.7482L11.6211 59.7463L12.3456 60.9774V61.0002H11.9298Z" fill="white"/>
<path d="M17.4843 58.483L16.5115 61.0002H16.114L17.234 58.2383H17.4904L17.4843 58.483ZM18.2996 61.0002L17.3249 58.483L17.3188 58.2383H17.5751L18.6992 61.0002H18.2996ZM18.2492 59.9778V60.2775H16.5983V59.9778H18.2492Z" fill="white"/>
<path d="M23.1477 58.2383V61.0002H22.7582V58.2383H23.1477Z" fill="white"/>
<path d="M29.7537 58.2383V61.0002H29.3621L27.8828 58.87V61.0002H27.4933V58.2383H27.8828L29.3682 60.3742V58.2383H29.7537Z" fill="white"/>
<path d="M39.8313 58.483L38.8585 61.0002H38.461L39.581 58.2383H39.8374L39.8313 58.483ZM40.6466 61.0002L39.6719 58.483L39.6658 58.2383H39.9221L41.0462 61.0002H40.6466ZM40.5962 59.9778V60.2775H38.9453V59.9778H40.5962Z" fill="white"/>
<path d="M46.859 60.7024V61.0002H45.3898V60.7024H46.859ZM45.4665 58.2383V61.0002H45.077V58.2383H45.4665Z" fill="white"/>
<path d="M51.36 58.2383V61.0002H50.9705V58.2383H51.36Z" fill="white"/>
<path d="M56.6541 60.581L57.5199 58.2383H57.9417L56.8539 61.0002H56.5532L56.6541 60.581ZM55.8448 58.2383L56.7026 60.581L56.8095 61.0002H56.5088L55.423 58.2383H55.8448Z" fill="white"/>
<path d="M63.8413 60.7024V61.0002H62.2853V60.7024H63.8413ZM62.364 58.2383V61.0002H61.9745V58.2383H62.364ZM63.6354 59.4257V59.7236H62.2853V59.4257H63.6354ZM63.8211 58.2383V58.538H62.2853V58.2383H63.8211Z" fill="white"/>
<defs>
<clipPath id="clip0_1599_7035">
<rect width="59.8413" height="51.5556" fill="white" transform="translate(4 3)"/>
</clipPath>
</defs>
</svg>
