<svg width="235" height="64" viewBox="0 0 235 64" fill="none" xmlns="http://www.w3.org/2000/svg">
<path d="M29.5703 46.8742C29.5706 46.2985 29.7416 45.7359 30.0617 45.2574C30.3818 44.7789 30.8365 44.406 31.3685 44.186C31.9004 43.9659 32.4857 43.9085 33.0502 44.021C33.6148 44.1335 34.1334 44.4109 34.5403 44.818C34.9473 45.2252 35.2243 45.7439 35.3365 46.3086C35.4487 46.8732 35.391 47.4584 35.1706 47.9902C34.9502 48.5221 34.5771 48.9766 34.0984 49.2964C33.6198 49.6162 33.057 49.7869 32.4813 49.7869C32.099 49.787 31.7204 49.7118 31.3672 49.5655C31.014 49.4193 30.693 49.2048 30.4227 48.9345C30.1524 48.6642 29.9379 48.3432 29.7917 47.99C29.6454 47.6368 29.5702 47.2582 29.5703 46.8759" fill="white"/>
<path d="M21.3748 42.3198C21.7133 41.8543 22.1822 41.4996 22.7222 41.3006C23.2623 41.1016 23.8492 41.0672 24.4088 41.2017C24.9684 41.3362 25.4755 41.6337 25.8661 42.0564C26.2566 42.4791 26.5131 43.0081 26.603 43.5766C26.6929 44.1451 26.6123 44.7274 26.3712 45.2501C26.1302 45.7727 25.7396 46.2121 25.2489 46.5128C24.7581 46.8135 24.1892 46.9619 23.6142 46.9392C23.0391 46.9166 22.4836 46.724 22.018 46.3857C21.7087 46.161 21.4468 45.8776 21.2471 45.5516C21.0474 45.2257 20.9138 44.8636 20.8541 44.486C20.7944 44.1084 20.8096 43.7228 20.899 43.3511C20.9883 42.9794 21.15 42.629 21.3748 42.3198Z" fill="white"/>
<path d="M17.4216 33.8181C17.969 33.6403 18.5568 33.6288 19.1108 33.7851C19.6647 33.9414 20.1598 34.2584 20.5336 34.6961C20.9074 35.1338 21.143 35.6724 21.2106 36.244C21.2782 36.8156 21.1749 37.3943 20.9136 37.9072C20.6523 38.42 20.2448 38.8438 19.7426 39.1251C19.2405 39.4063 18.6662 39.5323 18.0924 39.4872C17.5186 39.4421 16.9711 39.2279 16.5191 38.8716C16.0671 38.5153 15.7308 38.033 15.5529 37.4856C15.4346 37.1221 15.3892 36.7389 15.4191 36.3578C15.449 35.9767 15.5537 35.6052 15.7273 35.2646C15.9008 34.924 16.1398 34.621 16.4305 34.3728C16.7212 34.1246 17.058 33.9361 17.4216 33.8181Z" fill="white"/>
<path d="M19.2203 24.6169C19.7679 24.7948 20.2505 25.131 20.607 25.5832C20.9636 26.0353 21.178 26.583 21.2232 27.157C21.2684 27.731 21.1424 28.3055 20.8611 28.8079C20.5797 29.3103 20.1558 29.718 19.6427 29.9794C19.1297 30.2408 18.5507 30.3442 17.9789 30.2765C17.4071 30.2088 16.8682 29.973 16.4304 29.599C15.9926 29.225 15.6756 28.7296 15.5194 28.1754C15.3631 27.6213 15.3748 27.0332 15.5528 26.4856C15.7914 25.7515 16.3119 25.1423 16.9996 24.7919C17.6874 24.4415 18.4862 24.3785 19.2203 24.6169Z" fill="white"/>
<path d="M26.0824 18.2291C26.4208 18.6949 26.6136 19.2506 26.6362 19.8259C26.6588 20.4012 26.5103 20.9703 26.2095 21.4613C25.9087 21.9522 25.4691 22.3429 24.9462 22.5839C24.4233 22.825 23.8407 22.9056 23.272 22.8155C22.7034 22.7254 22.1742 22.4688 21.7514 22.0779C21.3286 21.6871 21.0312 21.1797 20.8968 20.6198C20.7624 20.06 20.7971 19.4728 20.9964 18.9327C21.1957 18.3925 21.5507 17.9236 22.0165 17.5852C22.6411 17.1314 23.4203 16.9444 24.1828 17.0651C24.9453 17.1859 25.6286 17.6046 26.0824 18.2291Z" fill="white"/>
<path d="M35.3923 17.0966C35.3923 17.6723 35.2216 18.2351 34.9018 18.7138C34.5819 19.1926 34.1272 19.5657 33.5953 19.786C33.0634 20.0063 32.4781 20.064 31.9134 19.9516C31.3487 19.8393 30.83 19.5621 30.4229 19.155C30.0158 18.7478 29.7386 18.2292 29.6262 17.6645C29.5139 17.0998 29.5716 16.5145 29.7919 15.9826C30.0122 15.4506 30.3853 14.996 30.8641 14.6761C31.3428 14.3563 31.9056 14.1855 32.4813 14.1855C32.8636 14.1854 33.2422 14.2607 33.5955 14.4069C33.9487 14.5532 34.2696 14.7676 34.54 15.0379C34.8103 15.3083 35.0247 15.6292 35.171 15.9824C35.3172 16.3357 35.3925 16.7143 35.3923 17.0966Z" fill="white"/>
<path d="M43.5884 21.6512C43.25 22.1171 42.7811 22.4721 42.2409 22.6714C41.7008 22.8707 41.1136 22.9053 40.5538 22.7709C39.9939 22.6365 39.4865 22.3391 39.0957 21.9163C38.7049 21.4936 38.4482 20.9644 38.3581 20.3957C38.268 19.827 38.3486 19.2444 38.5897 18.7216C38.8307 18.1987 39.2214 17.759 39.7124 17.4582C40.2033 17.1574 40.7724 17.0089 41.3477 17.0315C41.923 17.0542 42.4787 17.2469 42.9445 17.5853C43.569 18.0391 43.9877 18.7224 44.1085 19.4849C44.2292 20.2474 44.0422 21.0267 43.5884 21.6512Z" fill="white"/>
<path d="M47.5416 30.1527C46.9942 30.3305 46.4064 30.3419 45.8524 30.1857C45.2985 30.0294 44.8034 29.7124 44.4296 29.2747C44.0558 28.837 43.8202 28.2984 43.7526 27.7268C43.685 27.1552 43.7883 26.5764 44.0496 26.0636C44.3109 25.5508 44.7184 25.127 45.2205 24.8457C45.7227 24.5645 46.297 24.4384 46.8708 24.4836C47.4445 24.5287 47.9921 24.7429 48.4441 25.0992C48.8961 25.4555 49.2323 25.9378 49.4103 26.4852C49.5285 26.8487 49.574 27.2319 49.5441 27.613C49.5142 27.9941 49.4095 28.3655 49.2359 28.7061C49.0624 29.0467 48.8234 29.3498 48.5327 29.598C48.242 29.8462 47.9052 30.0347 47.5416 30.1527Z" fill="white"/>
<path d="M45.7404 39.3535C45.1928 39.1757 44.7102 38.8394 44.3537 38.3873C43.9972 37.9352 43.7827 37.3875 43.7375 36.8135C43.6923 36.2395 43.8183 35.6649 44.0996 35.1626C44.381 34.6602 44.8049 34.2525 45.318 33.9911C45.831 33.7297 46.41 33.6263 46.9818 33.694C47.5536 33.7617 48.0925 33.9975 48.5303 34.3715C48.9681 34.7454 49.2851 35.2408 49.4414 35.795C49.5976 36.3492 49.5859 36.9373 49.4079 37.4849C49.1693 38.2189 48.6489 38.8282 47.9611 39.1786C47.2733 39.529 46.4746 39.5919 45.7404 39.3535Z" fill="white"/>
<path d="M38.8783 45.7433C38.5399 45.2775 38.3471 44.7218 38.3245 44.1465C38.3019 43.5712 38.4504 43.0021 38.7512 42.5112C39.052 42.0203 39.4917 41.6296 40.0145 41.3885C40.5374 41.1475 41.12 41.0669 41.6887 41.1569C42.2573 41.247 42.7865 41.5037 43.2093 41.8945C43.6321 42.2853 43.9295 42.7928 44.0639 43.3526C44.1983 43.9125 44.1636 44.4996 43.9643 45.0398C43.765 45.5799 43.41 46.0489 42.9442 46.3873C42.3196 46.841 41.5404 47.0281 40.7779 46.9073C40.0154 46.7865 39.3321 46.3678 38.8783 45.7433Z" fill="white"/>
<path d="M38.2882 54.9459C37.8958 54.7461 37.5715 54.4345 37.3563 54.0503C37.1411 53.6662 37.0446 53.2269 37.0791 52.7879C37.1136 52.349 37.2775 51.9301 37.5501 51.5843C37.8226 51.2385 38.1916 50.9813 38.6104 50.8453C39.0291 50.7092 39.4788 50.7004 39.9026 50.8199C40.3264 50.9395 40.7052 51.182 40.9911 51.5169C41.277 51.8517 41.4572 52.2638 41.5088 52.7011C41.5605 53.1384 41.4813 53.5811 41.2813 53.9734C41.0131 54.499 40.5472 54.8967 39.986 55.079C39.4248 55.2614 38.8141 55.2135 38.2882 54.9459Z" fill="white"/>
<path d="M45.1027 52.0281C44.6678 51.9593 44.2631 51.7631 43.9398 51.4642C43.6164 51.1654 43.389 50.7774 43.2861 50.3493C43.1833 49.9211 43.2098 49.4721 43.3622 49.059C43.5146 48.6459 43.7861 48.2873 44.1423 48.0286C44.4985 47.7698 44.9235 47.6225 45.3635 47.6052C45.8034 47.588 46.2386 47.7016 46.614 47.9317C46.9894 48.1619 47.2881 48.4981 47.4723 48.898C47.6565 49.2979 47.7181 49.7435 47.6491 50.1783C47.5564 50.7611 47.2361 51.2833 46.7587 51.6301C46.2812 51.977 45.6856 52.1201 45.1027 52.0281Z" fill="white"/>
<path d="M50.6803 47.1491C50.2454 47.2181 49.7999 47.1565 49.4 46.9723C49.0001 46.7881 48.6638 46.4894 48.4337 46.114C48.2036 45.7386 48.0899 45.3034 48.1072 44.8635C48.1244 44.4235 48.2717 43.9985 48.5305 43.6423C48.7893 43.2861 49.1479 43.0146 49.561 42.8622C49.9741 42.7098 50.4231 42.6833 50.8512 42.7861C51.2793 42.889 51.6674 43.1164 51.9662 43.4398C52.265 43.7631 52.4613 44.1678 52.5301 44.6027C52.6218 45.1856 52.4786 45.7811 52.1318 46.2585C51.785 46.7359 51.263 47.0562 50.6803 47.1491Z" fill="white"/>
<path d="M54.475 40.7845C54.0827 40.9839 53.6401 41.0626 53.2032 41.0106C52.7662 40.9586 52.3544 40.7782 52.0199 40.4923C51.6854 40.2064 51.4431 39.8277 51.3237 39.4042C51.2043 38.9806 51.2132 38.5312 51.3491 38.1127C51.485 37.6941 51.7419 37.3253 52.0874 37.0527C52.4328 36.7801 52.8514 36.616 53.29 36.5812C53.7287 36.5464 54.1679 36.6424 54.552 36.857C54.9362 37.0717 55.2481 37.3954 55.4483 37.7872C55.7161 38.3133 55.764 38.9243 55.5815 39.4857C55.3989 40.0471 55.001 40.5131 54.475 40.7812" fill="white"/>
<path d="M56.1205 33.5595C55.8092 33.8709 55.4126 34.083 54.9808 34.1689C54.549 34.2548 54.1014 34.2108 53.6946 34.0423C53.2878 33.8739 52.9401 33.5886 52.6955 33.2225C52.4509 32.8564 52.3203 32.426 52.3203 31.9857C52.3203 31.5455 52.4509 31.1151 52.6955 30.749C52.9401 30.3829 53.2878 30.0976 53.6946 29.9292C54.1014 29.7607 54.549 29.7166 54.9808 29.8026C55.4126 29.8885 55.8092 30.1006 56.1205 30.412C56.5376 30.8295 56.7719 31.3955 56.7719 31.9857C56.7719 32.5759 56.5376 33.142 56.1205 33.5595Z" fill="white"/>
<path d="M55.4498 26.1774C55.25 26.5698 54.9384 26.8941 54.5542 27.1093C54.1701 27.3245 53.7308 27.421 53.2918 27.3865C52.8529 27.352 52.434 27.1881 52.0882 26.9156C51.7424 26.643 51.4852 26.274 51.3492 25.8552C51.2131 25.4365 51.2043 24.9868 51.3238 24.563C51.4434 24.1393 51.6859 23.7605 52.0208 23.4745C52.3556 23.1886 52.7677 23.0085 53.205 22.9568C53.6423 22.9051 54.085 22.9843 54.4773 23.1843C55.0029 23.4525 55.4006 23.9184 55.5829 24.4796C55.7653 25.0408 55.7174 25.6515 55.4498 26.1774Z" fill="white"/>
<path d="M52.5301 19.3648C52.4613 19.7997 52.265 20.2044 51.9662 20.5278C51.6674 20.8512 51.2793 21.0786 50.8512 21.1814C50.4231 21.2842 49.9741 21.2578 49.561 21.1054C49.1479 20.953 48.7893 20.6815 48.5305 20.3253C48.2717 19.9691 48.1244 19.5441 48.1072 19.1041C48.0899 18.6642 48.2036 18.229 48.4337 17.8536C48.6638 17.4782 49.0001 17.1795 49.4 16.9953C49.7999 16.811 50.2454 16.7495 50.6803 16.8185C51.2631 16.9112 51.7853 17.2315 52.1321 17.7089C52.4789 18.1863 52.6221 18.7819 52.5301 19.3648Z" fill="white"/>
<path d="M47.651 13.791C47.72 14.2258 47.6585 14.6714 47.4743 15.0713C47.29 15.4712 46.9913 15.8074 46.6159 16.0376C46.2406 16.2677 45.8054 16.3813 45.3654 16.3641C44.9254 16.3468 44.5005 16.1995 44.1443 15.9407C43.788 15.682 43.5165 15.3233 43.3641 14.9103C43.2118 14.4972 43.1853 14.0482 43.2881 13.62C43.3909 13.1919 43.6184 12.8039 43.9417 12.5051C44.2651 12.2062 44.6698 12.01 45.1047 11.9412C45.6876 11.8494 46.283 11.9926 46.7604 12.3394C47.2378 12.6862 47.5581 13.2083 47.651 13.791Z" fill="white"/>
<path d="M41.2857 9.99293C41.4855 10.3852 41.5645 10.828 41.5126 11.2652C41.4608 11.7023 41.2805 12.1143 40.9945 12.449C40.7085 12.7837 40.3297 13.0261 39.906 13.1455C39.4822 13.265 39.0326 13.2561 38.6139 13.12C38.1953 12.9838 37.8263 12.7266 37.5538 12.3809C37.2813 12.0351 37.1175 11.6163 37.083 11.1774C37.0485 10.7385 37.145 10.2992 37.3601 9.91516C37.5753 9.53107 37.8995 9.21941 38.2918 9.01958C38.8179 8.75181 39.4288 8.70393 39.9903 8.88645C40.5517 9.06897 41.0177 9.46696 41.2857 9.99293Z" fill="white"/>
<path d="M34.0615 8.34869C34.3729 8.65997 34.5849 9.0566 34.6709 9.48841C34.7568 9.92023 34.7127 10.3678 34.5443 10.7746C34.3758 11.1814 34.0905 11.5291 33.7244 11.7737C33.3584 12.0183 32.928 12.1489 32.4877 12.1489C32.0474 12.1489 31.617 12.0183 31.2509 11.7737C30.8849 11.5291 30.5996 11.1814 30.4311 10.7746C30.2626 10.3678 30.2186 9.92023 30.3045 9.48841C30.3905 9.0566 30.6025 8.65997 30.9139 8.34869C31.3314 7.93157 31.8975 7.69727 32.4877 7.69727C33.0779 7.69727 33.6439 7.93157 34.0615 8.34869Z" fill="white"/>
<path d="M26.6794 9.01942C27.0718 9.21921 27.3961 9.53088 27.6113 9.91501C27.8265 10.2991 27.923 10.7385 27.8885 11.1774C27.854 11.6164 27.6901 12.0352 27.4175 12.381C27.1449 12.7268 26.776 12.984 26.3572 13.1201C25.9384 13.2561 25.4887 13.2649 25.065 13.1454C24.6412 13.0259 24.2624 12.7833 23.9765 12.4485C23.6906 12.1136 23.5104 11.7015 23.4587 11.2642C23.4071 10.827 23.4862 10.3842 23.6862 9.99195C23.9545 9.46634 24.4204 9.06868 24.9816 8.88633C25.5428 8.70398 26.1534 8.75185 26.6794 9.01942Z" fill="white"/>
<path d="M19.8668 11.9354C20.3017 12.0042 20.7064 12.2005 21.0298 12.4993C21.3531 12.7982 21.5806 13.1862 21.6834 13.6143C21.7862 14.0424 21.7597 14.4914 21.6073 14.9045C21.4549 15.3176 21.1835 15.6762 20.8272 15.935C20.471 16.1938 20.046 16.3411 19.6061 16.3583C19.1661 16.3756 18.7309 16.2619 18.3555 16.0318C17.9802 15.8017 17.6815 15.4654 17.4972 15.0655C17.313 14.6656 17.2515 14.2201 17.3205 13.7852C17.4132 13.2024 17.7334 12.6803 18.2109 12.3334C18.6883 11.9866 19.2839 11.8434 19.8668 11.9354Z" fill="white"/>
<path d="M14.2929 16.8166C14.7278 16.7476 15.1733 16.8091 15.5732 16.9933C15.9731 17.1776 16.3094 17.4763 16.5395 17.8516C16.7696 18.227 16.8833 18.6622 16.866 19.1022C16.8488 19.5421 16.7015 19.9671 16.4427 20.3233C16.1839 20.6796 15.8253 20.951 15.4122 21.1034C14.9991 21.2558 14.5501 21.2823 14.122 21.1795C13.6939 21.0767 13.3059 20.8492 13.007 20.5259C12.7082 20.2025 12.5119 19.7978 12.4431 19.3629C12.3514 18.78 12.4946 18.1845 12.8414 17.7072C13.1882 17.2298 13.7102 16.9095 14.2929 16.8166Z" fill="white"/>
<path d="M10.4949 23.1799C10.8872 22.9801 11.3299 22.9011 11.7671 22.953C12.2043 23.0048 12.6163 23.1851 12.951 23.4711C13.2857 23.7571 13.5281 24.1359 13.6475 24.5596C13.7669 24.9834 13.758 25.433 13.6219 25.8517C13.4858 26.2704 13.2286 26.6393 12.8828 26.9118C12.537 27.1843 12.1182 27.3481 11.6793 27.3826C11.2405 27.4171 10.8012 27.3207 10.4171 27.1055C10.033 26.8904 9.72136 26.5661 9.52154 26.1739C9.25377 25.6477 9.20588 25.0368 9.3884 24.4754C9.57092 23.9139 9.96891 23.448 10.4949 23.1799Z" fill="white"/>
<path d="M8.85064 30.408C9.16192 30.0967 9.55855 29.8846 9.99037 29.7987C10.4222 29.7127 10.8698 29.7568 11.2766 29.9252C11.6833 30.0937 12.031 30.379 12.2756 30.7451C12.5203 31.1112 12.6508 31.5416 12.6508 31.9818C12.6508 32.4221 12.5203 32.8525 12.2756 33.2186C12.031 33.5847 11.6833 33.87 11.2766 34.0384C10.8698 34.2069 10.4222 34.2509 9.99037 34.165C9.55855 34.0791 9.16192 33.867 8.85064 33.5556C8.43352 33.1381 8.19922 32.572 8.19922 31.9818C8.19922 31.3916 8.43352 30.8256 8.85064 30.408Z" fill="white"/>
<path d="M9.52137 37.7862C9.72117 37.3939 10.0328 37.0696 10.417 36.8543C10.8011 36.6391 11.2404 36.5427 11.6794 36.5772C12.1183 36.6116 12.5372 36.7755 12.883 37.0481C13.2288 37.3207 13.486 37.6897 13.622 38.1084C13.7581 38.5272 13.7669 38.9769 13.6474 39.4007C13.5278 39.8244 13.2853 40.2032 12.9504 40.4891C12.6156 40.775 12.2035 40.9552 11.7662 41.0069C11.3289 41.0586 10.8862 40.9794 10.4939 40.7794C9.96829 40.5112 9.57063 40.0453 9.38829 39.484C9.20594 38.9228 9.2538 38.3122 9.52137 37.7862Z" fill="white"/>
<path d="M12.4374 44.6008C12.5062 44.1659 12.7024 43.7612 13.0013 43.4378C13.3001 43.1145 13.6881 42.887 14.1163 42.7842C14.5444 42.6814 14.9934 42.7078 15.4065 42.8602C15.8196 43.0126 16.1782 43.2841 16.437 43.6403C16.6957 43.9966 16.8431 44.4215 16.8603 44.8615C16.8775 45.3015 16.7639 45.7367 16.5338 46.112C16.3037 46.4874 15.9674 46.7861 15.5675 46.9704C15.1676 47.1546 14.722 47.2161 14.2872 47.1471C13.7044 47.0544 13.1822 46.7342 12.8354 46.2567C12.4885 45.7793 12.3454 45.1837 12.4374 44.6008Z" fill="white"/>
<path d="M17.3185 50.1764C17.2495 49.7415 17.311 49.296 17.4953 48.8961C17.6795 48.4962 17.9782 48.1599 18.3536 47.9298C18.729 47.6997 19.1642 47.586 19.6041 47.6033C20.0441 47.6205 20.4691 47.7678 20.8253 48.0266C21.1815 48.2854 21.453 48.644 21.6054 49.0571C21.7578 49.4702 21.7842 49.9192 21.6814 50.3473C21.5786 50.7754 21.3512 51.1635 21.0278 51.4623C20.7044 51.7611 20.2997 51.9574 19.8648 52.0262C19.282 52.1179 18.6865 51.9747 18.2091 51.6279C17.7317 51.2811 17.4114 50.7591 17.3185 50.1764Z" fill="white"/>
<path d="M23.6818 53.9724C23.4821 53.5801 23.4031 53.1374 23.4549 52.7002C23.5068 52.263 23.6871 51.851 23.9731 51.5163C24.2591 51.1816 24.6379 50.9392 25.0616 50.8198C25.4853 50.7004 25.935 50.7093 26.3536 50.8454C26.7723 50.9815 27.1412 51.2387 27.4137 51.5845C27.6862 51.9302 27.8501 52.3491 27.8846 52.7879C27.9191 53.2268 27.8226 53.6661 27.6075 54.0502C27.3923 54.4343 27.0681 54.7459 26.6758 54.9458C26.1497 55.2135 25.5387 55.2614 24.9773 55.0789C24.4159 54.8964 23.9499 54.4984 23.6818 53.9724Z" fill="white"/>
<path d="M30.91 55.6166C30.5986 55.3053 30.3866 54.9087 30.3006 54.4769C30.2147 54.0451 30.2587 53.5975 30.4272 53.1907C30.5957 52.7839 30.881 52.4362 31.247 52.1916C31.6131 51.947 32.0435 51.8164 32.4838 51.8164C32.9241 51.8164 33.3545 51.947 33.7205 52.1916C34.0866 52.4362 34.3719 52.7839 34.5404 53.1907C34.7088 53.5975 34.7529 54.0451 34.6669 54.4769C34.581 54.9087 34.3689 55.3053 34.0576 55.6166C33.64 56.0337 33.074 56.268 32.4838 56.268C31.8936 56.268 31.3275 56.0337 30.91 55.6166Z" fill="white"/>
<g opacity="0.5">
<path d="M40.2656 59.4632C40.0866 59.3762 39.9271 59.254 39.7965 59.1038C39.6659 58.9537 39.567 58.7787 39.5056 58.5894C39.4443 58.4002 39.4218 58.2004 39.4394 58.0022C39.4571 57.804 39.5146 57.6114 39.6085 57.436C39.7995 57.0768 40.1228 56.8061 40.5099 56.6812C40.897 56.5562 41.3176 56.5868 41.6825 56.7666C41.8614 56.8536 42.021 56.9758 42.1516 57.126C42.2822 57.2761 42.3811 57.451 42.4425 57.6403C42.5038 57.8296 42.5263 58.0293 42.5087 58.2275C42.491 58.4257 42.4335 58.6183 42.3396 58.7938C42.1486 59.1529 41.8253 59.4237 41.4382 59.5486C41.0511 59.6736 40.6305 59.6429 40.2656 59.4632Z" fill="white"/>
<path d="M48.3744 55.7135C48.1779 55.6851 47.9891 55.6175 47.8192 55.5147C47.6492 55.4119 47.5017 55.2761 47.3853 55.1152C47.2688 54.9543 47.1859 54.7717 47.1413 54.5782C47.0968 54.3847 47.0915 54.1842 47.1259 53.9886C47.1966 53.5882 47.4204 53.2309 47.7499 52.9925C48.0793 52.7541 48.4886 52.6533 48.8911 52.7113C49.088 52.739 49.2773 52.8062 49.4476 52.9087C49.618 53.0113 49.7659 53.1471 49.8825 53.3082C49.9992 53.4692 50.0821 53.6521 50.1264 53.8459C50.1707 54.0398 50.1755 54.2406 50.1404 54.4363C50.0699 54.8368 49.8462 55.1942 49.5167 55.4326C49.1872 55.671 48.777 55.7718 48.3744 55.7135Z" fill="white"/>
<path d="M54.9315 49.642C54.7355 49.6765 54.5345 49.6711 54.3405 49.6262C54.1466 49.5813 53.9636 49.4977 53.8027 49.3806C53.6417 49.2635 53.5059 49.1151 53.4035 48.9444C53.3011 48.7737 53.2342 48.5841 53.2066 48.3869C53.1501 47.9842 53.2525 47.5752 53.4921 47.2465C53.7317 46.9179 54.0897 46.6953 54.4904 46.6259C54.6866 46.5914 54.8877 46.5968 55.0817 46.6418C55.2756 46.6868 55.4586 46.7703 55.6196 46.8876C55.7806 47.0048 55.9163 47.1532 56.0187 47.324C56.121 47.4948 56.1879 47.6845 56.2154 47.8818C56.2717 48.2844 56.1692 48.6932 55.9296 49.0217C55.69 49.3501 55.3321 49.5726 54.9315 49.642Z" fill="white"/>
<path d="M59.2873 41.8403C59.1114 41.9329 58.9188 41.9893 58.7207 42.0061C58.5227 42.0228 58.3233 41.9996 58.1344 41.9379C57.9455 41.8762 57.7709 41.7771 57.621 41.6466C57.4711 41.5161 57.3489 41.3568 57.2617 41.1782C57.0836 40.8126 57.0547 40.3919 57.1811 40.0053C57.3076 39.6187 57.5795 39.2964 57.9394 39.1067C58.1152 39.014 58.3078 38.9576 58.5058 38.9408C58.7039 38.9241 58.9033 38.9473 59.0922 39.0091C59.281 39.071 59.4556 39.1702 59.6054 39.3008C59.7551 39.4314 59.8771 39.5908 59.9641 39.7696C60.1422 40.135 60.1712 40.5555 60.0449 40.942C59.9186 41.3284 59.6469 41.6506 59.2873 41.8403Z" fill="white"/>
<path d="M61.0232 33.0756C60.8853 33.219 60.7198 33.333 60.5368 33.4109C60.3537 33.4888 60.1568 33.5289 59.9579 33.5289C59.7589 33.5289 59.562 33.4888 59.379 33.4109C59.1959 33.333 59.0305 33.219 58.8925 33.0756C58.6083 32.7841 58.4492 32.3932 58.4492 31.986C58.4492 31.5789 58.6083 31.1879 58.8925 30.8965C59.0308 30.7537 59.1964 30.6402 59.3794 30.5627C59.5624 30.4852 59.7591 30.4453 59.9579 30.4453C60.1566 30.4453 60.3533 30.4852 60.5363 30.5627C60.7194 30.6402 60.8849 30.7537 61.0232 30.8965C61.3061 31.1886 61.4643 31.5794 61.4643 31.986C61.4643 32.3927 61.3061 32.7834 61.0232 33.0756Z" fill="white"/>
<path d="M59.9632 24.202C59.8762 24.381 59.754 24.5405 59.6038 24.6711C59.4537 24.8017 59.2787 24.9006 59.0894 24.962C58.9002 25.0233 58.7004 25.0459 58.5022 25.0282C58.304 25.0105 58.1114 24.953 57.936 24.8591C57.5768 24.6682 57.3061 24.3449 57.1812 23.9577C57.0562 23.5706 57.0868 23.1501 57.2666 22.7851C57.3536 22.6062 57.4758 22.4466 57.626 22.316C57.7761 22.1855 57.951 22.0865 58.1403 22.0252C58.3296 21.9638 58.5293 21.9413 58.7275 21.959C58.9257 21.9766 59.1183 22.0341 59.2938 22.128C59.6529 22.319 59.9237 22.6423 60.0486 23.0294C60.1736 23.4165 60.1429 23.8371 59.9632 24.202Z" fill="white"/>
<path d="M56.2116 16.09C56.1831 16.2865 56.1155 16.4753 56.0127 16.6452C55.91 16.8151 55.7741 16.9627 55.6132 17.0791C55.4524 17.1956 55.2698 17.2785 55.0763 17.3231C54.8827 17.3676 54.6822 17.3729 54.4867 17.3385C54.0862 17.2678 53.729 17.044 53.4906 16.7145C53.2522 16.3851 53.1514 15.9758 53.2094 15.5733C53.2371 15.3764 53.3042 15.1871 53.4068 15.0168C53.5093 14.8464 53.6452 14.6985 53.8062 14.5819C53.9672 14.4652 54.1502 14.3823 54.344 14.338C54.5378 14.2937 54.7386 14.2889 54.9343 14.324C55.3349 14.3945 55.6922 14.6182 55.9307 14.9477C56.1691 15.2772 56.2698 15.6874 56.2116 16.09Z" fill="white"/>
<path d="M50.1401 9.53525C50.1745 9.73133 50.1691 9.93234 50.1242 10.1263C50.0793 10.3202 49.9958 10.5032 49.8787 10.6641C49.7615 10.8251 49.6132 10.9608 49.4425 11.0633C49.2717 11.1657 49.0821 11.2326 48.885 11.2602C48.4822 11.3167 48.0732 11.2143 47.7446 10.9747C47.4159 10.7351 47.1933 10.3771 47.1239 9.97634C47.0895 9.7802 47.0949 9.57914 47.1398 9.38514C47.1848 9.19114 47.2684 9.00819 47.3856 8.8472C47.5028 8.68622 47.6513 8.55049 47.8221 8.44813C47.9929 8.34577 48.1826 8.27887 48.3798 8.25142C48.7825 8.19513 49.1912 8.29761 49.5197 8.53718C49.8482 8.77676 50.0706 9.13466 50.1401 9.53525Z" fill="white"/>
<path d="M42.34 5.17693C42.4326 5.35287 42.4888 5.54561 42.5055 5.74372C42.5221 5.94183 42.4988 6.14127 42.4369 6.3302C42.375 6.51912 42.2758 6.69369 42.1451 6.84353C42.0145 6.99337 41.855 7.11544 41.6763 7.20248C41.3106 7.38062 40.8899 7.4095 40.5033 7.28303C40.1167 7.15656 39.7945 6.88465 39.6047 6.52483C39.512 6.34903 39.4556 6.15638 39.4389 5.95833C39.4221 5.76029 39.4453 5.5609 39.5072 5.37202C39.569 5.18314 39.6682 5.00861 39.7988 4.85883C39.9295 4.70904 40.0889 4.58704 40.2676 4.5001C40.6331 4.32194 41.0535 4.29295 41.44 4.41927C41.8265 4.54559 42.1486 4.8173 42.3383 5.17693" fill="white"/>
<path d="M33.5737 3.4431C33.717 3.58105 33.831 3.7465 33.9089 3.92956C33.9868 4.11261 34.027 4.30951 34.027 4.50845C34.027 4.70739 33.9868 4.90428 33.9089 5.08734C33.831 5.2704 33.717 5.43585 33.5737 5.57379C33.2817 5.85747 32.8904 6.01582 32.4832 6.01505C32.0761 6.01429 31.6854 5.85447 31.3945 5.56969C31.2518 5.43139 31.1383 5.26582 31.0608 5.08281C30.9833 4.8998 30.9434 4.70308 30.9434 4.50434C30.9434 4.3056 30.9833 4.10888 31.0608 3.92587C31.1383 3.74286 31.2518 3.57729 31.3945 3.43899C31.6872 3.15666 32.0782 2.99924 32.4849 3C32.8916 3.00077 33.282 3.15967 33.5737 3.4431Z" fill="white"/>
<path d="M24.7001 4.5029C24.879 4.58991 25.0386 4.71214 25.1692 4.86228C25.2997 5.01242 25.3987 5.18738 25.46 5.37666C25.5214 5.56595 25.5439 5.76567 25.5262 5.96387C25.5086 6.16206 25.4511 6.35465 25.3572 6.5301C25.1662 6.88927 24.8429 7.15999 24.4558 7.28495C24.0687 7.4099 23.6481 7.37927 23.2832 7.19953C23.1042 7.11252 22.9447 6.99029 22.8141 6.84015C22.6835 6.69001 22.5846 6.51506 22.5232 6.32577C22.4619 6.13648 22.4393 5.93676 22.457 5.73857C22.4747 5.54037 22.5322 5.34778 22.6261 5.17233C22.817 4.81317 23.1403 4.54244 23.5275 4.41749C23.9146 4.29253 24.3351 4.32317 24.7001 4.5029Z" fill="white"/>
<path d="M16.59 8.25258C16.7865 8.28103 16.9753 8.34865 17.1452 8.45143C17.3151 8.55421 17.4627 8.69006 17.5791 8.85093C17.6956 9.01179 17.7785 9.1944 17.8231 9.38791C17.8676 9.58143 17.8729 9.78193 17.8385 9.97751C17.7678 10.378 17.544 10.7352 17.2145 10.9736C16.8851 11.212 16.4758 11.3128 16.0733 11.2548C15.8764 11.2271 15.6871 11.1599 15.5168 11.0574C15.3464 10.9549 15.1985 10.819 15.0819 10.658C14.9652 10.4969 14.8823 10.314 14.838 10.1202C14.7937 9.92635 14.7889 9.72557 14.824 9.52985C14.8945 9.12913 15.1183 8.77164 15.448 8.5332C15.7777 8.29475 16.1873 8.1941 16.59 8.25258Z" fill="white"/>
<path d="M10.0346 14.3251C10.2307 14.2907 10.4317 14.296 10.6257 14.341C10.8196 14.3859 11.0025 14.4694 11.1635 14.5865C11.3245 14.7036 11.4602 14.852 11.5626 15.0227C11.665 15.1934 11.732 15.383 11.7596 15.5802C11.8151 15.9829 11.7118 16.3915 11.4716 16.7195C11.2315 17.0475 10.8731 17.2693 10.4724 17.338C10.2763 17.3724 10.0752 17.367 9.88124 17.322C9.68724 17.2771 9.50429 17.1935 9.3433 17.0763C9.18231 16.9591 9.04659 16.8106 8.94422 16.6398C8.84186 16.469 8.77496 16.2793 8.74751 16.0821C8.69123 15.6794 8.7937 15.2707 9.03328 14.9422C9.27285 14.6137 9.63076 14.3912 10.0313 14.3218" fill="white"/>
<path d="M5.67693 22.1261C5.85277 22.0335 6.04542 21.9771 6.24346 21.9604C6.4415 21.9436 6.64089 21.9668 6.8298 22.0285C7.01871 22.0903 7.1933 22.1893 7.34321 22.3198C7.49311 22.4503 7.61529 22.6096 7.70248 22.7882C7.88062 23.1539 7.9095 23.5745 7.78303 23.9611C7.65656 24.3478 7.38465 24.67 7.02483 24.8597C6.84903 24.9524 6.65638 25.0088 6.45833 25.0256C6.26029 25.0424 6.0609 25.0191 5.87202 24.9573C5.68314 24.8955 5.50861 24.7963 5.35883 24.6656C5.20904 24.535 5.08704 24.3756 5.0001 24.1969C4.82194 23.8314 4.79295 23.4109 4.91927 23.0245C5.04559 22.638 5.3173 22.3158 5.67693 22.1261Z" fill="white"/>
<path d="M3.94278 30.8927C4.081 30.7496 4.24667 30.6359 4.42988 30.5583C4.61309 30.4808 4.81006 30.441 5.009 30.4414C5.20794 30.4418 5.40476 30.4823 5.58766 30.5606C5.77057 30.6388 5.93581 30.7532 6.07347 30.8968C6.35715 31.1888 6.5155 31.5801 6.51473 31.9872C6.51396 32.3943 6.35414 32.785 6.06937 33.0759C5.93079 33.2184 5.765 33.3316 5.58184 33.4087C5.39869 33.4859 5.20189 33.5254 5.00315 33.525C4.80441 33.5246 4.60777 33.4843 4.42491 33.4065C4.24205 33.3286 4.0767 33.2148 3.93867 33.0718C3.65653 32.779 3.49924 32.388 3.5 31.9814C3.50077 31.5748 3.65954 31.1844 3.94278 30.8927Z" fill="white"/>
<path d="M5.0029 39.7656C5.08991 39.5866 5.21214 39.4271 5.36228 39.2965C5.51242 39.1659 5.68738 39.067 5.87666 39.0056C6.06595 38.9443 6.26567 38.9218 6.46387 38.9394C6.66206 38.9571 6.85465 39.0146 7.0301 39.1085C7.38927 39.2995 7.65999 39.6228 7.78495 40.0099C7.9099 40.397 7.87927 40.8176 7.69953 41.1825C7.61252 41.3614 7.49029 41.521 7.34015 41.6516C7.19001 41.7822 7.01506 41.8811 6.82577 41.9425C6.63648 42.0038 6.43676 42.0263 6.23857 42.0087C6.04037 41.991 5.84778 41.9335 5.67233 41.8396C5.31317 41.6486 5.04244 41.3253 4.91749 40.9382C4.79253 40.5511 4.82317 40.1305 5.0029 39.7656Z" fill="white"/>
<path d="M8.75247 47.8764C8.78092 47.6799 8.84854 47.491 8.95132 47.3211C9.0541 47.1512 9.18995 47.0037 9.35081 46.8872C9.51167 46.7708 9.69428 46.6878 9.8878 46.6433C10.0813 46.5987 10.2818 46.5935 10.4774 46.6279C10.8779 46.6986 11.2351 46.9224 11.4735 47.2518C11.7119 47.5813 11.8127 47.9905 11.7547 48.393C11.727 48.5899 11.6598 48.7792 11.5573 48.9496C11.4547 49.1199 11.3189 49.2678 11.1578 49.3845C10.9968 49.5011 10.8139 49.5841 10.6201 49.6284C10.4262 49.6727 10.2255 49.6775 10.0297 49.6424C9.62918 49.5718 9.27183 49.3481 9.0334 49.0186C8.79497 48.6891 8.69421 48.2789 8.75247 47.8764Z" fill="white"/>
<path d="M14.8251 54.431C14.7907 54.2349 14.796 54.0339 14.841 53.84C14.8859 53.646 14.9694 53.4631 15.0865 53.3021C15.2036 53.1412 15.352 53.0054 15.5227 52.903C15.6934 52.8006 15.883 52.7336 16.0802 52.7061C16.4829 52.6506 16.8915 52.7538 17.2195 52.994C17.5475 53.2342 17.7693 53.5925 17.838 53.9932C17.8724 54.1893 17.867 54.3904 17.822 54.5844C17.7771 54.7784 17.6935 54.9614 17.5763 55.1223C17.4591 55.2833 17.3106 55.4191 17.1398 55.5214C16.969 55.6238 16.7793 55.6907 16.5821 55.7181C16.1794 55.7744 15.7707 55.6719 15.4422 55.4324C15.1137 55.1928 14.8912 54.8349 14.8218 54.4343" fill="white"/>
<path d="M22.6261 58.7892C22.5335 58.6134 22.4771 58.4207 22.4604 58.2227C22.4436 58.0246 22.4668 57.8253 22.5285 57.6363C22.5903 57.4474 22.6893 57.2728 22.8198 57.1229C22.9503 56.973 23.1096 56.8508 23.2882 56.7637C23.6539 56.5855 24.0745 56.5566 24.4611 56.6831C24.8478 56.8096 25.17 57.0815 25.3597 57.4413C25.4524 57.6171 25.5088 57.8098 25.5256 58.0078C25.5424 58.2058 25.5191 58.4052 25.4573 58.5941C25.3955 58.783 25.2963 58.9575 25.1656 59.1073C25.035 59.2571 24.8756 59.3791 24.6969 59.466C24.3314 59.6442 23.9109 59.6732 23.5245 59.5469C23.138 59.4205 22.8158 59.1488 22.6261 58.7892Z" fill="white"/>
<path d="M31.3927 60.5231C31.2496 60.3849 31.1359 60.2192 31.0583 60.036C30.9808 59.8528 30.941 59.6558 30.9414 59.4569C30.9418 59.258 30.9823 59.0612 31.0606 58.8782C31.1388 58.6953 31.2532 58.5301 31.3968 58.3924C31.6888 58.1088 32.0801 57.9504 32.4872 57.9512C32.8943 57.9519 33.285 58.1118 33.5759 58.3965C33.7184 58.5351 33.8316 58.7009 33.9087 58.8841C33.9859 59.0672 34.0254 59.264 34.025 59.4628C34.0246 59.6615 33.9843 59.8581 33.9065 60.041C33.8286 60.2239 33.7148 60.3892 33.5718 60.5272C33.2791 60.8096 32.8881 60.967 32.4814 60.9662C32.0747 60.9655 31.6843 60.8066 31.3927 60.5231Z" fill="white"/>
</g>
<path d="M104.008 18.1325V27.0148C104.01 27.051 104.005 27.0874 103.992 27.1215C103.98 27.1555 103.96 27.1864 103.934 27.2121C103.908 27.2378 103.877 27.2577 103.843 27.2705C103.809 27.2832 103.773 27.2885 103.737 27.286H103.084C102.948 27.286 102.785 27.2317 102.759 27.0961L102.325 24.1354C101.157 26.2265 99.1189 27.5581 95.9954 27.5581C90.5087 27.5581 87.6836 23.32 87.6836 17.779C87.6836 12.211 90.4536 8 95.9954 8C100.64 8 103.058 10.9336 104.008 14.9268C104.035 15.1167 103.954 15.226 103.764 15.226H102.623C102.551 15.2331 102.479 15.2114 102.423 15.1656C102.367 15.1199 102.332 15.0538 102.325 14.9819C101.836 12.1 99.2545 9.33247 95.9954 9.33247C91.948 9.33247 89.3136 12.5916 89.3136 17.7799C89.3136 22.9139 91.948 26.2273 95.9954 26.2273C97.6004 26.2939 99.1666 25.723 100.352 24.6392C101.538 23.5555 102.247 22.0468 102.325 20.4423V19.2183H96.2675C96.2311 19.221 96.1945 19.2157 96.1603 19.203C96.1261 19.1903 96.095 19.1703 96.0692 19.1445C96.0434 19.1187 96.0234 19.0876 96.0107 19.0534C95.998 19.0192 95.9927 18.9826 95.9954 18.9462V18.1317C95.9927 18.0952 95.998 18.0587 96.0107 18.0245C96.0234 17.9903 96.0434 17.9592 96.0692 17.9334C96.095 17.9076 96.1261 17.8876 96.1603 17.8749C96.1945 17.8621 96.2311 17.8569 96.2675 17.8596H103.737C103.773 17.857 103.81 17.8624 103.844 17.8751C103.878 17.8879 103.909 17.9079 103.934 17.9337C103.96 17.9595 103.98 17.9905 103.993 18.0247C104.005 18.0588 104.011 18.0953 104.008 18.1317" fill="white"/>
<path d="M108.572 8.27148H107.593C107.413 8.27148 107.268 8.41721 107.268 8.59697V26.9599C107.268 27.1397 107.413 27.2854 107.593 27.2854H108.572C108.752 27.2854 108.898 27.1397 108.898 26.9599V8.59697C108.898 8.41721 108.752 8.27148 108.572 8.27148Z" fill="white"/>
<path d="M117.531 27.5584C113.512 27.5584 111.203 24.9503 111.203 20.6316C111.203 16.3393 113.458 13.4336 117.531 13.4336C121.525 13.4336 123.834 16.3155 123.834 20.6316C123.834 24.896 121.579 27.5584 117.531 27.5584ZM117.531 14.7915C114.843 14.7915 112.832 16.6656 112.832 20.6316C112.832 24.5977 114.842 26.1997 117.531 26.1997C120.193 26.1997 122.204 24.5968 122.204 20.6316C122.204 16.6664 120.193 14.7915 117.531 14.7915Z" fill="white"/>
<path d="M138.365 20.6314C138.365 24.9542 136.056 27.5581 132.037 27.5581C129.293 27.5581 127.883 26.3359 127.255 24.2439L127.364 27.014C127.366 27.0503 127.361 27.0868 127.348 27.1209C127.335 27.155 127.316 27.186 127.29 27.2117C127.264 27.2374 127.233 27.2573 127.199 27.27C127.165 27.2826 127.128 27.2878 127.092 27.2852H126.005C125.969 27.2878 125.932 27.2826 125.898 27.27C125.864 27.2573 125.833 27.2374 125.807 27.2117C125.781 27.186 125.761 27.155 125.749 27.1209C125.736 27.0868 125.731 27.0503 125.733 27.014V8.54339C125.731 8.50705 125.736 8.47059 125.749 8.43648C125.761 8.40237 125.781 8.3714 125.807 8.34568C125.833 8.31996 125.864 8.30009 125.898 8.2874C125.932 8.27471 125.969 8.26951 126.005 8.27215H127.092C127.128 8.26951 127.165 8.27471 127.199 8.2874C127.233 8.30009 127.264 8.31996 127.29 8.34568C127.316 8.3714 127.335 8.40237 127.348 8.43648C127.361 8.47059 127.366 8.50705 127.364 8.54339L127.174 17.2629C127.767 14.8726 129.208 13.4333 132.036 13.4333C136.111 13.4333 138.364 16.339 138.364 20.6314M136.734 20.6314C136.734 17.4807 135.539 14.7912 132.035 14.7912C128.56 14.7912 127.363 17.4807 127.363 20.6314C127.363 23.782 128.558 26.1994 132.035 26.1994C135.539 26.1994 136.734 23.782 136.734 20.6314Z" fill="white"/>
<path d="M152.762 13.976V27.0158C152.765 27.0522 152.759 27.0886 152.747 27.1227C152.734 27.1568 152.714 27.1878 152.688 27.2135C152.662 27.2393 152.631 27.2591 152.597 27.2718C152.563 27.2845 152.526 27.2897 152.49 27.2871H151.403C151.367 27.2896 151.331 27.2843 151.297 27.2715C151.263 27.2588 151.232 27.2389 151.206 27.2132C151.18 27.1875 151.16 27.1566 151.148 27.1225C151.135 27.0885 151.13 27.0521 151.132 27.0158L151.241 24.2458C150.617 26.3369 149.206 27.56 146.46 27.56C142.44 27.56 140.131 24.9519 140.131 20.6332C140.131 16.3408 142.386 13.4352 146.46 13.4352C147.558 13.339 148.653 13.648 149.539 14.3039C150.424 14.9597 151.039 15.917 151.268 16.9952L151.132 13.9802C151.13 13.9439 151.135 13.9074 151.147 13.8732C151.16 13.8391 151.18 13.8081 151.206 13.7823C151.231 13.7565 151.262 13.7365 151.297 13.7237C151.331 13.7109 151.367 13.7056 151.403 13.7081H152.49C152.526 13.7055 152.563 13.7107 152.597 13.7234C152.631 13.7362 152.663 13.7561 152.688 13.7819C152.714 13.8077 152.734 13.8388 152.747 13.873C152.76 13.9072 152.765 13.9438 152.762 13.9802M151.132 20.6349C151.132 16.6689 149.122 14.7948 146.46 14.7948C143.771 14.7948 141.761 16.6689 141.761 20.6349C141.761 24.6009 143.771 26.203 146.46 26.203C149.122 26.203 151.132 24.6009 151.132 20.6349Z" fill="white"/>
<path d="M156.644 8.27148H155.665C155.486 8.27148 155.34 8.41721 155.34 8.59697V26.9599C155.34 27.1397 155.486 27.2854 155.665 27.2854H156.644C156.824 27.2854 156.97 27.1397 156.97 26.9599V8.59697C156.97 8.41721 156.824 8.27148 156.644 8.27148Z" fill="white"/>
<path d="M103.334 40.559C103.334 44.8641 100.655 46.9696 97.4007 46.9696H91.0198V55.0966C91.0221 55.1367 91.0159 55.1769 91.0016 55.2145C90.9873 55.2521 90.9653 55.2862 90.9368 55.3146C90.9084 55.343 90.8743 55.3651 90.8367 55.3794C90.7992 55.3937 90.759 55.3999 90.7189 55.3975H88.5854C88.5493 55.3999 88.5131 55.3945 88.4792 55.3818C88.4453 55.369 88.4145 55.3492 88.3889 55.3236C88.3633 55.298 88.3435 55.2672 88.3307 55.2333C88.318 55.1995 88.3126 55.1632 88.315 55.1271V34.629C88.315 34.4485 88.4048 34.3281 88.5854 34.3281H97.4007C100.651 34.3281 103.334 36.676 103.334 40.559ZM100.622 40.559C100.622 37.5796 98.545 36.676 95.8962 36.676H91.0206V44.5589H95.8962C98.9671 44.5589 100.622 43.6266 100.622 40.5556" fill="white"/>
<path d="M111.644 55.7002C107.19 55.7002 104.631 52.8107 104.631 48.0241C104.631 43.269 107.129 40.0488 111.644 40.0488C116.069 40.0488 118.628 43.2393 118.628 48.0241C118.628 52.7496 116.13 55.7002 111.644 55.7002ZM111.644 42.1552C108.665 42.1552 107.34 44.5336 107.34 48.0241C107.34 51.5146 108.664 53.593 111.644 53.593C114.594 53.593 115.919 51.5163 115.919 48.0241C115.919 44.5319 114.594 42.1552 111.644 42.1552Z" fill="white"/>
<path d="M150.68 38.0345C150.446 38.0461 150.211 38.0058 149.994 37.9164C149.777 37.8269 149.582 37.6906 149.423 37.5172C149.265 37.3437 149.147 37.1374 149.077 36.913C149.008 36.6885 148.989 36.4515 149.021 36.2188C149.021 35.094 149.615 34.332 150.68 34.332C151.727 34.332 152.332 35.0864 152.332 36.2188C152.365 36.4509 152.346 36.6874 152.277 36.9114C152.208 37.1354 152.091 37.3414 151.933 37.5148C151.775 37.6881 151.581 37.8246 151.365 37.9144C151.148 38.0042 150.914 38.0452 150.68 38.0345Z" fill="white"/>
<path d="M173.102 38.0345C172.867 38.0461 172.633 38.0058 172.416 37.9164C172.199 37.8269 172.004 37.6906 171.845 37.5172C171.687 37.3437 171.569 37.1374 171.499 36.913C171.43 36.6885 171.411 36.4515 171.443 36.2188C171.443 35.094 172.037 34.332 173.102 34.332C174.149 34.332 174.754 35.0864 174.754 36.2188C174.787 36.4509 174.768 36.6874 174.699 36.9114C174.63 37.1354 174.512 37.3414 174.355 37.5148C174.197 37.6881 174.003 37.8246 173.786 37.9144C173.57 38.0042 173.336 38.0452 173.102 38.0345Z" fill="white"/>
<path d="M185.139 38.0345C184.905 38.0461 184.67 38.0058 184.453 37.9164C184.236 37.8269 184.041 37.6906 183.882 37.5172C183.724 37.3437 183.606 37.1374 183.536 36.913C183.467 36.6885 183.448 36.4515 183.48 36.2188C183.48 35.094 184.074 34.332 185.139 34.332C186.186 34.332 186.791 35.0864 186.791 36.2188C186.824 36.4509 186.805 36.6874 186.736 36.9114C186.667 37.1354 186.55 37.3414 186.392 37.5148C186.234 37.6881 186.04 37.8246 185.824 37.9144C185.607 38.0042 185.373 38.0452 185.139 38.0345Z" fill="white"/>
<path d="M202.536 38.0345C202.301 38.0461 202.067 38.0058 201.849 37.9164C201.632 37.8269 201.437 37.6906 201.279 37.5172C201.12 37.3437 201.002 37.1374 200.933 36.913C200.863 36.6885 200.844 36.4515 200.877 36.2188C200.877 35.094 201.47 34.332 202.536 34.332C203.583 34.332 204.188 35.0864 204.188 36.2188C204.22 36.4509 204.202 36.6874 204.133 36.9114C204.064 37.1354 203.946 37.3414 203.788 37.5148C203.631 37.6881 203.436 37.8246 203.22 37.9144C203.003 38.0042 202.77 38.0452 202.536 38.0345Z" fill="white"/>
<path d="M126.688 55.6984C123.557 55.6984 120.578 53.8022 120.428 50.5813C120.428 50.4617 120.518 50.4007 120.638 50.4007H122.895C122.925 50.3969 122.956 50.3994 122.984 50.4082C123.013 50.417 123.04 50.4318 123.063 50.4517C123.086 50.4716 123.104 50.496 123.116 50.5235C123.129 50.5509 123.136 50.5807 123.136 50.6109C123.287 52.207 124.371 53.5912 126.688 53.5912C129.368 53.5912 130.21 52.207 130.21 51.0017C130.21 49.5878 129.427 49.2564 126.565 48.775C123.495 48.2664 120.696 47.2103 120.876 44.3504C121.027 41.8524 123.616 40.0156 126.686 40.0156C129.575 40.0156 132.314 41.7609 132.465 44.7411C132.468 44.7695 132.465 44.7983 132.455 44.8253C132.446 44.8522 132.431 44.8768 132.41 44.897C132.39 44.9172 132.366 44.9326 132.339 44.942C132.312 44.9514 132.283 44.9546 132.255 44.9513H129.997C129.847 44.9513 129.757 44.8912 129.757 44.7411C129.606 43.0849 128.492 42.122 126.687 42.122C124.76 42.122 123.586 43.1764 123.586 44.3495C123.586 45.8854 124.609 46.0651 126.867 46.3965C130.147 46.878 133.097 47.9011 132.917 51.0008C132.766 53.6802 129.907 55.6967 126.686 55.6967" fill="white"/>
<path d="M140.534 55.6984C137.403 55.6984 134.423 53.8022 134.273 50.5813C134.273 50.4617 134.364 50.4007 134.484 50.4007H136.741C136.771 50.3969 136.801 50.3994 136.83 50.4082C136.859 50.417 136.886 50.4318 136.909 50.4517C136.931 50.4716 136.95 50.496 136.962 50.5235C136.975 50.5509 136.981 50.5807 136.982 50.6109C137.132 52.207 138.217 53.5912 140.534 53.5912C143.213 53.5912 144.056 52.207 144.056 51.0017C144.056 49.5878 143.273 49.2564 140.411 48.775C137.341 48.2664 134.542 47.2103 134.722 44.3504C134.873 41.8524 137.462 40.0156 140.531 40.0156C143.421 40.0156 146.16 41.7609 146.311 44.7411C146.314 44.7695 146.311 44.7983 146.301 44.8253C146.292 44.8522 146.276 44.8768 146.256 44.897C146.236 44.9172 146.211 44.9326 146.184 44.942C146.157 44.9514 146.129 44.9546 146.1 44.9513H143.843C143.692 44.9513 143.602 44.8912 143.602 44.7411C143.452 43.0849 142.338 42.122 140.532 42.122C138.606 42.122 137.432 43.1764 137.432 44.3495C137.432 45.8854 138.455 46.0651 140.713 46.3965C143.993 46.878 146.943 47.9011 146.762 51.0008C146.611 53.6802 143.752 55.6967 140.531 55.6967" fill="white"/>
<path d="M149.681 40.3477H151.668C151.716 40.3472 151.763 40.3562 151.807 40.3742C151.852 40.3921 151.892 40.4187 151.926 40.4522C151.96 40.4858 151.987 40.5258 152.005 40.5698C152.023 40.6138 152.033 40.6611 152.033 40.7088V55.0336C152.033 55.1294 151.995 55.2212 151.927 55.2889C151.859 55.3567 151.767 55.3947 151.672 55.3947H149.681C149.585 55.3947 149.494 55.3571 149.427 55.2901C149.359 55.2231 149.321 55.1321 149.32 55.037V40.7088C149.32 40.613 149.358 40.5211 149.426 40.4534C149.494 40.3857 149.586 40.3477 149.681 40.3477Z" fill="white"/>
<path d="M169.337 48.0238C169.337 52.8095 166.779 55.6999 162.323 55.6999C159.764 55.6999 158.53 54.737 157.959 53.0502L158.049 55.0972C158.051 55.1373 158.045 55.1774 158.031 55.2149C158.017 55.2524 157.995 55.2865 157.966 55.3149C157.938 55.3433 157.904 55.3653 157.866 55.3795C157.829 55.3937 157.789 55.3997 157.749 55.3973H155.638C155.598 55.3997 155.558 55.3937 155.52 55.3795C155.483 55.3653 155.448 55.3433 155.42 55.3149C155.391 55.2866 155.369 55.2525 155.355 55.215C155.34 55.1775 155.334 55.1373 155.336 55.0972V34.6288C155.334 34.5886 155.34 34.5484 155.355 34.5108C155.369 34.4732 155.391 34.4391 155.42 34.4107C155.448 34.3824 155.482 34.3604 155.52 34.3462C155.558 34.3321 155.598 34.3261 155.638 34.3287H157.745C157.785 34.3262 157.825 34.3323 157.862 34.3465C157.9 34.3607 157.934 34.3827 157.962 34.4111C157.991 34.4395 158.013 34.4735 158.027 34.5111C158.041 34.5486 158.047 34.5887 158.045 34.6288L157.865 43.2678C158.373 41.2504 159.61 40.0468 162.319 40.0468C166.834 40.0468 169.332 43.2678 169.332 48.0229M166.62 48.0229C166.62 44.5316 165.296 42.154 162.316 42.154C159.366 42.154 158.04 44.5324 158.04 48.0229C158.04 51.5134 159.365 53.591 162.316 53.591C165.295 53.591 166.62 51.5143 166.62 48.0229Z" fill="white"/>
<path d="M172.102 40.3477H174.09C174.138 40.3472 174.185 40.3562 174.229 40.3742C174.274 40.3921 174.314 40.4187 174.348 40.4522C174.382 40.4858 174.408 40.5258 174.427 40.5698C174.445 40.6138 174.455 40.6611 174.455 40.7088V55.0336C174.455 55.1294 174.417 55.2212 174.349 55.2889C174.281 55.3567 174.189 55.3947 174.093 55.3947H172.103C172.008 55.3947 171.916 55.357 171.849 55.2898C171.781 55.2227 171.743 55.1315 171.742 55.0362V40.7079C171.742 40.6124 171.78 40.5207 171.848 40.4532C171.915 40.3856 172.007 40.3477 172.102 40.3477Z" fill="white"/>
<path d="M178.123 34.3281H180.11C180.157 34.3277 180.205 34.3367 180.249 34.3546C180.293 34.3726 180.333 34.3991 180.367 34.4327C180.401 34.4663 180.428 34.5062 180.446 34.5503C180.465 34.5943 180.474 34.6415 180.474 34.6892V55.0364C180.474 55.1322 180.436 55.2241 180.368 55.2918C180.301 55.3595 180.209 55.3975 180.113 55.3975H178.122C178.026 55.3975 177.935 55.3596 177.867 55.292C177.8 55.2245 177.762 55.1328 177.762 55.0373V34.6892C177.762 34.5935 177.8 34.5016 177.867 34.4339C177.935 34.3662 178.027 34.3281 178.123 34.3281Z" fill="white"/>
<path d="M184.144 40.3477H186.131C186.179 40.3472 186.226 40.3562 186.27 40.3742C186.315 40.3921 186.355 40.4187 186.389 40.4522C186.423 40.4858 186.449 40.5258 186.468 40.5698C186.486 40.6138 186.496 40.6611 186.496 40.7088V55.0336C186.496 55.1294 186.458 55.2212 186.39 55.2889C186.322 55.3567 186.23 55.3947 186.135 55.3947H184.143C184.048 55.3947 183.957 55.3571 183.89 55.2901C183.822 55.2231 183.784 55.1321 183.783 55.037V40.7088C183.783 40.613 183.821 40.5211 183.889 40.4534C183.957 40.3857 184.049 40.3477 184.144 40.3477Z" fill="white"/>
<path d="M194.315 42.3048V52.0872C194.302 52.2088 194.317 52.3317 194.358 52.447C194.399 52.5622 194.465 52.6669 194.552 52.7534C194.638 52.8399 194.743 52.9061 194.858 52.9471C194.973 52.9882 195.096 53.0031 195.218 52.9908H198.468C198.508 52.9883 198.548 52.9944 198.586 53.0085C198.624 53.0227 198.658 53.0448 198.686 53.0731C198.715 53.1015 198.737 53.1355 198.751 53.1731C198.765 53.2106 198.771 53.2507 198.769 53.2908V55.0971C198.772 55.1373 198.766 55.1775 198.751 55.2151C198.737 55.2528 198.715 55.2869 198.686 55.3154C198.658 55.3438 198.624 55.3659 198.586 55.3802C198.549 55.3944 198.508 55.4005 198.468 55.398H195.518C194.995 55.4346 194.47 55.3584 193.979 55.1747C193.487 54.9909 193.041 54.7039 192.67 54.3329C192.299 53.9619 192.012 53.5157 191.829 53.0243C191.645 52.5329 191.569 52.0078 191.606 51.4845V42.3048L189.5 42.4556C189.459 42.4581 189.419 42.452 189.381 42.4378C189.344 42.4235 189.309 42.4015 189.281 42.373C189.252 42.3446 189.23 42.3104 189.216 42.2728C189.202 42.2352 189.195 42.1949 189.198 42.1547V40.6493C189.195 40.6091 189.202 40.5689 189.216 40.5313C189.23 40.4936 189.252 40.4595 189.281 40.431C189.309 40.4026 189.344 40.3805 189.381 40.3663C189.419 40.3521 189.459 40.346 189.5 40.3484L191.606 40.4993V34.6295C191.603 34.5894 191.609 34.5493 191.624 34.5117C191.638 34.4741 191.66 34.44 191.688 34.4116C191.717 34.3831 191.751 34.361 191.788 34.3467C191.826 34.3324 191.866 34.3263 191.906 34.3286H194.013C194.053 34.3263 194.093 34.3325 194.131 34.3467C194.169 34.361 194.203 34.3831 194.231 34.4115C194.259 34.44 194.282 34.4741 194.296 34.5117C194.31 34.5492 194.316 34.5894 194.314 34.6295V40.4985L198.467 40.3476C198.508 40.3451 198.548 40.3512 198.585 40.3654C198.623 40.3797 198.657 40.4018 198.686 40.4302C198.714 40.4587 198.736 40.4928 198.75 40.5305C198.765 40.5681 198.771 40.6083 198.768 40.6485V42.1539C198.771 42.194 198.764 42.2342 198.75 42.2717C198.736 42.3093 198.714 42.3434 198.685 42.3719C198.657 42.4003 198.623 42.4224 198.585 42.4367C198.548 42.4509 198.508 42.4571 198.467 42.4548L194.315 42.3048Z" fill="white"/>
<path d="M201.539 40.3477H203.526C203.573 40.3472 203.621 40.3562 203.665 40.3742C203.709 40.3921 203.749 40.4187 203.783 40.4522C203.817 40.4858 203.844 40.5258 203.862 40.5698C203.881 40.6138 203.89 40.6611 203.89 40.7088V55.0336C203.89 55.1294 203.852 55.2212 203.784 55.2889C203.717 55.3567 203.625 55.3947 203.529 55.3947H201.538C201.443 55.3947 201.352 55.3571 201.284 55.2901C201.217 55.2231 201.178 55.1321 201.178 55.037V40.7088C201.178 40.613 201.216 40.5211 201.283 40.4534C201.351 40.3857 201.443 40.3477 201.539 40.3477Z" fill="white"/>
<path d="M220.108 49.9821C219.507 53.5345 217.129 55.7011 213.306 55.7011C208.852 55.7011 206.293 52.8115 206.293 48.025C206.293 43.2698 208.791 40.0488 213.306 40.0488C217.671 40.0488 220.108 43.2698 220.108 47.9046C220.108 48.1148 220.019 48.2352 219.838 48.2352H209.002C209.062 51.7876 210.266 53.5939 213.306 53.5939C215.685 53.5939 217.009 52.269 217.43 49.922C217.431 49.884 217.439 49.8465 217.455 49.812C217.471 49.7774 217.493 49.7464 217.521 49.721C217.55 49.6956 217.583 49.6762 217.619 49.6641C217.655 49.652 217.693 49.6475 217.731 49.6507H219.837C220.018 49.6507 220.169 49.7711 220.108 49.9821M209.121 46.1288H217.098C217.098 44.2641 216.316 42.156 213.305 42.156C210.837 42.156 209.513 43.5707 209.121 46.1288Z" fill="white"/>
<path d="M228.175 55.6984C225.043 55.6984 222.064 53.8022 221.914 50.5813C221.914 50.4617 222.005 50.4007 222.124 50.4007H224.381C224.411 50.3969 224.442 50.3994 224.471 50.4082C224.5 50.417 224.526 50.4318 224.549 50.4517C224.572 50.4716 224.59 50.496 224.603 50.5235C224.615 50.5509 224.622 50.5807 224.622 50.6109C224.773 52.207 225.857 53.5912 228.174 53.5912C230.853 53.5912 231.696 52.207 231.696 51.0017C231.696 49.5878 230.912 49.2564 228.051 48.775C224.981 48.2664 222.182 47.2103 222.362 44.3504C222.512 41.8524 225.101 40.0156 228.171 40.0156C231.061 40.0156 233.799 41.7609 233.95 44.7411C233.954 44.7695 233.95 44.7983 233.941 44.8253C233.932 44.8522 233.916 44.8768 233.896 44.897C233.876 44.9172 233.851 44.9326 233.824 44.942C233.797 44.9514 233.769 44.9546 233.74 44.9513H231.483C231.332 44.9513 231.242 44.8912 231.242 44.7411C231.091 43.0849 229.978 42.122 228.172 42.122C226.245 42.122 225.071 43.1764 225.071 44.3495C225.071 45.8854 226.095 46.0651 228.353 46.3965C231.633 46.878 234.583 47.9011 234.402 51.0008C234.251 53.6802 231.392 55.6967 228.171 55.6967" fill="white"/>
</svg>
