<svg width="64" height="64" viewBox="0 0 64 64" fill="none" xmlns="http://www.w3.org/2000/svg">
<g clip-path="url(#clip0_1599_7034)">
<mask id="mask0_1599_7034" style="mask-type:luminance" maskUnits="userSpaceOnUse" x="14" y="5" width="36" height="55">
<path d="M50 5H14V60H50V5Z" fill="white"/>
</mask>
<g mask="url(#mask0_1599_7034)">
<path d="M14.0149 28.9188C13.9941 37.4508 13.989 45.9828 14.0149 54.5148C14.0201 56.2901 13.9941 57.5304 13.9941 60.0004C16.0523 60.0004 17.8357 59.9901 20.1946 59.9901C20.1946 57.6847 20.1946 55.8785 20.1946 54.0774C20.1998 44.7066 20.0857 35.3358 20.2413 25.9702C20.3916 17.1911 26.4521 11.2785 35.2551 11.0263C37.3858 10.9646 39.5218 11.016 41.8081 11.016C41.8081 8.6283 41.8081 6.94556 41.8081 5.31944C24.2799 3.15814 14.0615 11.9938 14.0149 28.9188Z" fill="white"/>
<path d="M44.707 5.36505C44.707 23.5149 44.707 41.8911 44.707 59.9996C46.589 59.9996 48.0458 59.9996 50.0002 59.9996C50.0002 41.5978 50.0002 23.3244 50.0002 5.34961L44.707 5.36505Z" fill="white"/>
<path d="M27.7957 32.4688H24.2652C23.6638 32.4688 23.1816 32.9524 23.1816 33.5443V35.8136C23.1816 36.4105 23.669 36.8891 24.2652 36.8891H27.7957C28.3971 36.8891 28.8792 36.4054 28.8792 35.8136V33.5443C28.8792 32.9473 28.392 32.4688 27.7957 32.4688Z" fill="white"/>
</g>
</g>
<defs>
<clipPath id="clip0_1599_7034">
<rect width="36" height="55" fill="white" transform="translate(14 5)"/>
</clipPath>
</defs>
</svg>
