<svg width="60" height="52" viewBox="0 0 60 52" fill="none" xmlns="http://www.w3.org/2000/svg">
<g clip-path="url(#clip0_1610_7089)">
<mask id="mask0_1610_7089" style="mask-type:luminance" maskUnits="userSpaceOnUse" x="0" y="0" width="60" height="52">
<path d="M59.8823 0H0.0410156V51.5556H59.8823V0Z" fill="white"/>
</mask>
<g mask="url(#mask0_1610_7089)">
<path d="M23.8676 8.33594C23.3845 9.11636 22.8754 9.85409 22.482 10.5263C18.114 17.9891 13.7547 25.4575 9.38388 32.9203C6.41883 37.9846 3.43646 43.0377 0.468547 48.0992C-0.575718 49.8823 0.373088 51.5486 2.44426 51.5515C13.477 51.5571 24.5098 51.5543 35.5425 51.5515C35.826 51.5515 36.3352 51.5486 36.8269 51.5486C36.5666 51.0929 36.3091 50.6713 36.1326 50.3665C34.7181 47.9254 33.292 45.4901 31.863 43.0547C30.1418 40.1238 28.412 37.1985 26.6909 34.2675C25.0594 31.4818 23.4337 28.6904 21.7964 25.8819C21.9323 25.6455 22.0597 25.4148 22.1927 25.1898C23.9747 22.1534 25.7392 19.1142 27.5384 16.0921C27.8913 15.4996 27.8769 15.0154 27.5211 14.4286L23.8676 8.33594ZM10.9661 44.3564C13.1993 40.5454 15.337 36.9023 17.4718 33.2564C17.5702 33.2478 17.6685 33.2393 17.7669 33.2307C19.9537 36.8624 22.0857 40.5283 24.2928 44.3564C19.7571 44.3564 15.4903 44.3564 10.9661 44.3564Z" fill="#080D14"/>
<path d="M59.5054 48.1769C59.2335 47.7268 58.9383 47.291 58.6723 46.8353C55.1142 40.7569 51.5649 34.6728 48.004 28.6C45.389 24.1395 42.7479 19.6904 40.1301 15.2326C37.382 10.5499 34.6542 5.85862 31.9003 1.17874C30.9834 -0.379318 29.0828 -0.390711 28.1312 1.14741C27.4659 2.22409 26.8555 3.33781 26.1902 4.4145C25.9442 4.81326 25.9414 5.13513 26.1843 5.5396C27.0579 6.99512 27.8968 8.47057 28.756 9.93467C31.7846 15.0959 34.819 20.2543 37.8506 25.4155C40.1532 29.3378 42.4645 33.2571 44.7613 37.1822C46.199 39.6403 47.6134 42.1099 49.0512 44.568C50.4049 46.8809 51.7761 49.1824 53.1182 51.4553C53.3092 51.4952 53.4278 51.5408 53.5464 51.5408C54.9088 51.5494 56.2742 51.5693 57.6367 51.5465C59.4967 51.5209 60.4628 49.7634 59.5054 48.1769Z" fill="#080D14"/>
</g>
</g>
<defs>
<clipPath id="clip0_1610_7089">
<rect width="59.8413" height="51.5556" fill="white" transform="translate(0.0429688)"/>
</clipPath>
</defs>
</svg>
