<svg width="184" height="64" viewBox="0 0 184 64" fill="none" xmlns="http://www.w3.org/2000/svg">
<mask id="mask0_1599_7050" style="mask-type:luminance" maskUnits="userSpaceOnUse" x="20" y="6" width="144" height="35">
<path d="M163.953 6H20.9531V40.7985H163.953V6Z" fill="white"/>
</mask>
<g mask="url(#mask0_1599_7050)">
<path d="M84.6604 23.3626C84.6604 23.1213 84.6669 22.8801 84.6669 22.6453C84.6669 22.4302 84.6604 22.2085 84.6604 21.9933C84.6343 19.1961 84.6734 16.3989 84.7577 13.6083C84.7838 12.852 84.7577 12.1152 84.6604 11.398C84.4195 9.61793 83.3337 8.06611 81.727 7.26413C81.4801 7.14024 80.7776 6.74251 80.5177 6.66427C78.7941 6.14916 78.2417 6.01224 75.6595 5.9992C68.8118 5.97312 61.9573 6.01224 55.1094 6.01224H52.8202V22.1824L52.7812 40.6673L55.0704 40.6803C61.9248 40.7129 68.7727 40.7846 75.6209 40.7912C78.2025 40.7912 78.7555 40.6608 80.4851 40.1522C80.7385 40.0739 81.454 39.6762 81.6949 39.5589C83.3076 38.7699 84.3999 37.2246 84.6473 35.4446C84.7446 34.7339 84.7707 33.9971 84.7512 33.2342C84.6799 30.4175 84.6277 26.4793 84.6604 23.3626ZM73.1494 32.0345L62.8678 31.9823L62.8938 22.7106L62.8678 22.5867V14.7559H73.1494C74.8597 14.8211 74.6647 15.1471 74.6907 15.773V22.9062H74.6647L74.6972 31.0238C74.6712 31.6498 74.8597 31.9758 73.1494 32.0345Z" fill="#080D14"/>
<path d="M131.697 40.7045C131.241 40.7045 131.241 40.7045 130.852 40.7045C127.73 40.7045 124.628 40.6784 121.48 40.6784C121.48 29.1441 121.48 17.6685 121.48 6.10159C131.586 6.10159 141.783 6.08203 152.052 6.08203C152.052 9.60296 152.052 11.4938 152.059 14.6301C145.204 14.6301 138.454 14.6301 131.586 14.6301C131.586 16.1819 131.586 17.662 131.586 19.2268C135.144 19.2268 138.701 19.2268 142.349 19.2268C142.349 22.0044 142.349 24.6973 142.349 27.4749C138.753 27.4749 135.195 27.4749 131.561 27.4749C131.561 31.7261 131.697 36.6228 131.697 40.7045Z" fill="#080D14"/>
<path d="M87.0195 34.3158C86.8243 26.1003 86.9548 19.9713 86.9548 19.9713C87.1886 18.1325 88.0733 16.5221 89.8812 15.5375C89.8877 15.531 89.8942 15.531 89.9007 15.5244C91.3378 14.7355 92.671 14.1226 95.214 14.0378C102.953 13.777 104.819 13.8683 109.911 13.8423C112.981 13.8227 114.275 14.416 115.634 14.9702C116.967 15.5114 118.021 16.5938 118.476 17.963C118.645 18.4651 118.677 19.0063 118.704 19.5931C118.82 22.1229 118.769 23.0619 118.82 24.731C118.957 29.0409 116.271 29.6277 113.475 29.7321C109.222 29.8886 104.955 29.7712 100.696 29.7712H97.2622V30.671C97.2622 31.5707 97.9191 32.3532 98.8102 32.4705C99.1745 32.5162 99.5578 32.5292 99.9482 32.5292C105.801 32.5032 111.661 32.5162 117.728 32.5162C117.799 33.755 117.754 35.02 117.761 36.2784C117.767 37.5629 117.774 39.4276 117.774 40.6339C117.643 40.6339 117.513 40.6339 117.169 40.6404H104.097L92.3459 40.6535C89.6533 40.5296 87.0848 37.0282 87.0195 34.3158ZM107.726 22.0903H98.1273C97.321 22.0903 96.6641 22.775 96.7288 23.5769C96.7288 23.603 96.7354 23.6226 96.7354 23.6487C96.8202 24.2616 97.3666 24.7115 97.9843 24.7115H107.85C108.415 24.7115 108.935 24.3464 109.085 23.7921C109.124 23.6487 109.137 23.4987 109.124 23.3552C109.072 22.6315 108.448 22.0903 107.726 22.0903Z" fill="#080D14"/>
<path d="M50.7972 6.01953C50.7972 9.27965 50.7972 11.7573 50.7972 14.6915C47.7472 14.7827 44.3069 14.6588 41.0748 14.7175C41.0748 23.3633 41.0748 31.944 41.0748 40.6355C37.6931 40.6355 34.383 40.6355 30.9948 40.6355C30.9948 32.0548 30.9948 23.4677 30.9948 14.724C27.6131 14.724 24.3029 14.724 20.9473 14.724C20.9538 11.7704 20.9538 8.97972 20.9538 6.01953C22.6251 6.01953 24.2769 6.01953 25.9353 6.01953C27.6131 6.01953 29.2844 6.01953 30.9623 6.01953H50.7972Z" fill="#080D14"/>
<path d="M163.92 28.2917C163.92 29.2828 163.92 30.2738 163.92 31.2584C163.92 32.243 163.92 33.2406 163.92 34.2251C163.92 35.2097 163.92 36.2073 163.92 37.1918L163.888 40.7649C160.786 40.778 157.059 40.6997 153.482 40.7649C153.482 32.7842 153.489 24.5687 153.489 16.5684C156.975 16.5684 160.525 16.5749 163.953 16.5749L163.92 28.2917Z" fill="#080D14"/>
<path d="M163.881 6.01953C163.881 8.66022 163.881 11.1444 163.881 13.7851C162.119 13.7851 160.389 13.7851 158.666 13.7851C156.994 13.7851 155.323 13.7851 153.444 13.7851C153.379 12.5398 153.424 11.2748 153.418 10.0164C153.411 8.73195 153.418 7.45398 153.418 6.01953C155.219 6.01953 156.942 6.01953 158.672 6.01953C160.337 6.01953 162.009 6.01953 163.881 6.01953Z" fill="#080D14"/>
<path d="M65.3968 39.3904C65.3708 38.6666 66.9381 38.1189 67.3478 37.0235C67.7574 35.9281 67.6339 35.1718 67.9981 35.0023C70.7035 33.7308 75.8864 29.8317 76.7906 29.6166C77.9548 29.3427 80.4195 30.3012 82.1295 30.0274C83.8401 29.7535 84.7959 28.9972 85.6545 29.0297C86.7142 29.0754 89.0424 29.747 89.7253 29.5449C90.4083 29.3362 91.7806 28.5147 92.1188 27.6931C92.4636 26.8716 92.8338 24.8437 92.9768 24.5047C93.1138 24.1591 93.7641 27.0802 93.1459 28.5212C92.5283 29.9622 90.7138 30.7511 89.8944 31.0249C89.0751 31.2988 89.6215 32.6028 89.9662 32.8767C90.3109 33.1505 93.7315 36.1694 93.7962 36.515C93.8615 36.8605 93.6924 40.5966 93.6924 40.5966C93.4194 40.6684 91.1173 40.6488 90.1027 40.701C89.8879 40.714 90.0309 39.8077 90.3109 39.6708C90.5904 39.5339 92.2945 39.5991 92.3657 39.4621C92.4375 39.3252 92.5022 38.0212 92.3657 37.8842C92.2292 37.7473 85.7975 33.7699 85.661 33.6982C85.5245 33.6265 84.4316 33.6982 84.2952 33.7699C84.1587 33.8417 87.2345 36.7888 87.3063 36.9258C87.3775 37.0627 87.5793 37.7473 87.2345 38.0929C86.8898 38.4384 85.661 40.0163 85.5245 40.2185C85.388 40.4206 82.5134 40.6293 82.4481 40.4923C82.3769 40.3554 82.6564 39.736 82.9293 39.6708C83.2028 39.5991 84.4316 39.7425 84.5034 39.5339C84.5746 39.3252 85.531 38.1646 85.3228 38.0277C85.1146 37.8907 82.1752 34.8719 81.9669 34.9436C81.7592 35.0153 80.4646 35.8369 80.5298 35.9738C80.6016 36.1107 82.2404 37.4148 82.1752 37.5517C82.1034 37.6886 80.2569 40.3619 80.0552 40.4336C79.8469 40.5053 77.6617 40.6423 77.6617 40.6423C77.6617 40.6423 77.7335 39.749 77.8699 39.6838C78.0064 39.6121 79.3723 39.6121 79.3723 39.5469C79.3723 39.4817 79.8535 38.4515 79.8535 38.3146C79.8535 38.1777 77.031 36.6454 77.031 36.6454C77.031 36.6454 77.031 37.5387 77.1027 37.6039C77.174 37.6756 72.791 40.4141 72.791 40.551C72.791 40.6879 69.8515 40.8248 69.8515 40.6879C69.8515 40.551 74.4363 37.7408 74.4363 37.6691C74.4363 37.5973 74.5729 35.9542 74.2997 36.0194C74.0266 36.0912 72.3163 35.8825 72.2447 36.0194C72.1732 36.1564 72.1081 38.2819 72.0366 38.3537C71.9651 38.4254 70.3262 39.7229 70.3262 39.586C70.3262 39.4491 70.3262 37.0496 70.2547 36.9779C70.1832 36.9062 69.845 37.1865 69.845 37.2517C69.845 37.317 69.9165 38.9014 69.7735 38.9666C69.6304 39.0318 65.4358 40.3163 65.3968 39.3904Z" fill="#F1AC1C"/>
<path d="M77.7207 40.447C77.7207 40.447 101.978 39.5993 101.848 39.7949C101.718 39.9906 98.6873 40.6034 97.881 40.6425C96.8533 40.6947 81.6094 40.8512 77.5908 40.773C77.3956 40.773 77.5255 40.447 77.7207 40.447Z" fill="#F1AC1C"/>
</g>
<path d="M33.2617 49.978L34.8565 44.6899H35.3562L34.9524 46.26L33.2516 51.8789H32.7721L33.2617 49.978ZM31.4094 44.6899L32.7519 49.9286L33.1557 51.8789H32.656L30.7734 44.6899H31.4094ZM37.5063 49.9286L38.8286 44.6899H39.4645L37.587 51.8789H37.0874L37.5063 49.9286ZM35.4117 44.6899L36.9864 49.978L37.4709 51.8789H36.9915L35.3259 46.26L34.9171 44.6899H35.4117Z" fill="#080D14"/>
<path d="M42.576 51.9777C42.2193 51.9777 41.8913 51.9135 41.5918 51.7851C41.2957 51.6567 41.0366 51.4757 40.8145 51.242C40.5958 51.0083 40.4259 50.7318 40.3048 50.4125C40.187 50.0899 40.1281 49.7377 40.1281 49.3559V49.1436C40.1281 48.7321 40.1904 48.3601 40.3149 48.0277C40.4394 47.6952 40.611 47.4105 40.8297 47.1735C41.0484 46.9365 41.2974 46.7554 41.5767 46.6304C41.8593 46.502 42.1554 46.4378 42.4649 46.4378C42.8115 46.4378 43.1194 46.4987 43.3886 46.6205C43.6577 46.739 43.8832 46.9085 44.0649 47.1291C44.2499 47.3463 44.3896 47.6047 44.4838 47.9042C44.578 48.2005 44.6251 48.528 44.6251 48.8868V49.2472H40.4915V48.7436H44.0245V48.6745C44.0178 48.3749 43.9555 48.0952 43.8378 47.8351C43.7234 47.5718 43.5518 47.3578 43.323 47.1932C43.0941 47.0287 42.8081 46.9464 42.4649 46.9464C42.2092 46.9464 41.9737 46.999 41.7584 47.1044C41.5464 47.2097 41.363 47.3611 41.2082 47.5586C41.0568 47.7528 40.939 47.9849 40.8549 48.2548C40.7742 48.5214 40.7338 48.8177 40.7338 49.1436V49.3559C40.7338 49.6521 40.7775 49.9286 40.865 50.1854C40.9559 50.4388 41.0837 50.6627 41.2486 50.8569C41.4168 51.0511 41.6153 51.2025 41.8442 51.3111C42.073 51.4197 42.3253 51.4741 42.6012 51.4741C42.9242 51.4741 43.2102 51.4165 43.4592 51.3012C43.7082 51.1827 43.932 50.9968 44.1305 50.7433L44.509 51.0297C44.3913 51.2008 44.2432 51.3588 44.0649 51.5037C43.8899 51.6485 43.6796 51.7637 43.434 51.8493C43.1884 51.9349 42.9024 51.9777 42.576 51.9777Z" fill="#080D14"/>
<path d="M45.9095 44.2949H46.5151V50.8421L46.4748 51.8789H45.9095V44.2949ZM50.3156 49.1584V49.2621C50.3156 49.6603 50.2685 50.0257 50.1743 50.3582C50.0801 50.6906 49.9438 50.9787 49.7655 51.2222C49.5871 51.4625 49.3684 51.6485 49.1094 51.7802C48.8536 51.9118 48.5592 51.9777 48.2261 51.9777C47.8997 51.9777 47.6104 51.9283 47.358 51.8296C47.1057 51.7275 46.8903 51.5843 46.712 51.4C46.5336 51.2124 46.3906 50.9935 46.283 50.7433C46.1753 50.4898 46.0996 50.2117 46.0559 49.9089V48.5906C46.1063 48.268 46.1871 47.975 46.2981 47.7117C46.4092 47.4483 46.5522 47.2212 46.7271 47.0303C46.9055 46.8394 47.1174 46.6929 47.3631 46.5909C47.612 46.4888 47.8964 46.4378 48.216 46.4378C48.5491 46.4378 48.8452 46.502 49.1043 46.6304C49.3668 46.7554 49.5871 46.9381 49.7655 47.1784C49.9438 47.4154 50.0801 47.7018 50.1743 48.0376C50.2685 48.37 50.3156 48.7436 50.3156 49.1584ZM49.7049 49.2621V49.1584C49.7049 48.8457 49.6746 48.556 49.6141 48.2894C49.5535 48.0227 49.4576 47.7907 49.3264 47.5932C49.1985 47.3924 49.0336 47.236 48.8318 47.1241C48.6299 47.0122 48.3876 46.9562 48.105 46.9562C47.8156 46.9562 47.5683 47.004 47.3631 47.0994C47.1612 47.1916 46.9929 47.315 46.8583 47.4697C46.7271 47.6212 46.6228 47.7874 46.5454 47.9684C46.468 48.1495 46.4108 48.3272 46.3738 48.5017V50.0372C46.431 50.2841 46.5303 50.5162 46.6716 50.7334C46.8129 50.9507 47.003 51.1268 47.2419 51.2617C47.4808 51.3934 47.7719 51.4592 48.1151 51.4592C48.391 51.4592 48.6282 51.4033 48.8267 51.2914C49.0286 51.1795 49.1935 51.0247 49.3213 50.8272C49.4526 50.6297 49.5484 50.3977 49.609 50.1311C49.6729 49.8644 49.7049 49.5748 49.7049 49.2621Z" fill="#080D14"/>
<path d="M53.0031 47.9586H53.6188C53.9957 47.9586 54.3103 47.896 54.5626 47.7709C54.8184 47.6426 55.0102 47.473 55.138 47.2624C55.2692 47.0517 55.3348 46.818 55.3348 46.5612C55.3348 46.2716 55.2793 46.0181 55.1683 45.8009C55.0573 45.5803 54.8873 45.4092 54.6585 45.2874C54.4331 45.1623 54.1437 45.0997 53.7904 45.0997C53.4809 45.0997 53.205 45.159 52.9627 45.2775C52.7204 45.396 52.5287 45.5655 52.3873 45.786C52.246 46.0066 52.1754 46.2699 52.1754 46.5761H51.5748C51.5748 46.1843 51.6707 45.8404 51.8624 45.5441C52.0542 45.2446 52.3184 45.0109 52.6548 44.843C52.9913 44.6751 53.3698 44.5912 53.7904 44.5912C54.2245 44.5912 54.6013 44.6685 54.921 44.8232C55.244 44.9779 55.493 45.2034 55.668 45.4997C55.8463 45.7959 55.9355 46.1564 55.9355 46.581C55.9355 46.7982 55.8867 47.0122 55.7891 47.2229C55.6949 47.4335 55.5536 47.6244 55.3651 47.7956C55.1767 47.9635 54.9429 48.0984 54.6636 48.2005C54.3843 48.3025 54.0596 48.3536 53.6895 48.3536H53.0031V47.9586ZM53.0031 48.4671V48.0771H53.6895C54.1101 48.0771 54.4701 48.1248 54.7696 48.2202C55.069 48.3124 55.3147 48.4441 55.5064 48.6152C55.7016 48.7831 55.8446 48.979 55.9355 49.2028C56.0263 49.4266 56.0717 49.6669 56.0717 49.9237C56.0717 50.2528 56.0162 50.5442 55.9052 50.7976C55.7941 51.0511 55.636 51.2667 55.4307 51.4444C55.2289 51.6189 54.99 51.7522 54.7141 51.8444C54.4415 51.9332 54.142 51.9777 53.8157 51.9777C53.5196 51.9777 53.2302 51.9349 52.9476 51.8493C52.6683 51.7637 52.4159 51.637 52.1905 51.4691C51.9684 51.298 51.7918 51.084 51.6606 50.8272C51.5293 50.5672 51.4637 50.2677 51.4637 49.9286H52.0643C52.0643 50.2315 52.1384 50.4997 52.2864 50.7334C52.4344 50.9638 52.6397 51.1449 52.9021 51.2766C53.168 51.4049 53.4725 51.4691 53.8157 51.4691C54.1622 51.4691 54.4583 51.4115 54.704 51.2963C54.953 51.1778 55.1431 51.005 55.2743 50.7779C55.4055 50.5507 55.4711 50.2726 55.4711 49.9434C55.4711 49.5978 55.392 49.3164 55.2339 49.0991C55.0791 48.8819 54.8621 48.7222 54.5828 48.6202C54.3069 48.5181 53.9856 48.4671 53.6188 48.4671H53.0031Z" fill="#080D14"/>
<path d="M61.1186 44.6899V51.8789H60.4978V44.6899H61.1186Z" fill="#080D14"/>
<path d="M63.6799 47.6771V51.8789H63.0793V46.5366H63.6547L63.6799 47.6771ZM63.5437 48.8769L63.2762 48.7288C63.2963 48.4128 63.362 48.1166 63.473 47.8401C63.584 47.5636 63.7338 47.32 63.9222 47.1093C64.114 46.8986 64.3377 46.7341 64.5935 46.6156C64.8525 46.4971 65.1385 46.4378 65.4515 46.4378C65.724 46.4378 65.9679 46.474 66.1833 46.5464C66.3986 46.6188 66.582 46.7341 66.7334 46.8921C66.8848 47.0501 66.9992 47.2525 67.0766 47.4994C67.1574 47.7462 67.1978 48.0474 67.1978 48.4029V51.8789H66.5921V48.398C66.5921 48.0293 66.5399 47.7413 66.4356 47.5339C66.3313 47.3233 66.1833 47.1735 65.9915 47.0846C65.7997 46.9957 65.5726 46.9513 65.3101 46.9513C65.0208 46.9513 64.7667 47.0138 64.548 47.1389C64.3327 47.2607 64.151 47.4204 64.0029 47.6179C63.8583 47.8121 63.7472 48.0211 63.6698 48.2449C63.5924 48.4655 63.5504 48.6761 63.5437 48.8769Z" fill="#080D14"/>
<path d="M70.8795 51.4691C71.1352 51.4691 71.3741 51.423 71.5962 51.3309C71.8216 51.2354 72.0067 51.0955 72.1514 50.9112C72.2994 50.7236 72.3835 50.4948 72.4037 50.2249H72.9791C72.9623 50.5639 72.8563 50.8667 72.6611 51.1334C72.4693 51.3967 72.217 51.6041 71.9041 51.7555C71.5945 51.9036 71.253 51.9777 70.8795 51.9777C70.4993 51.9777 70.1628 51.9102 69.8701 51.7752C69.5807 51.6403 69.3385 51.4527 69.1433 51.2124C68.9482 50.9688 68.8001 50.6857 68.6992 50.3631C68.6016 50.0372 68.5528 49.6867 68.5528 49.3114V49.1041C68.5528 48.7288 68.6016 48.3799 68.6992 48.0573C68.8001 47.7314 68.9482 47.4483 69.1433 47.2081C69.3385 46.9645 69.5807 46.7752 69.8701 46.6402C70.1595 46.5053 70.4943 46.4378 70.8745 46.4378C71.2648 46.4378 71.6147 46.5152 71.9243 46.6699C72.2372 46.8246 72.4862 47.0435 72.6712 47.3266C72.8597 47.6096 72.9623 47.9454 72.9791 48.3338H72.4037C72.3869 48.0474 72.3095 47.8006 72.1716 47.5932C72.0336 47.3858 71.8519 47.2262 71.6265 47.1142C71.401 47.0023 71.1504 46.9464 70.8745 46.9464C70.5649 46.9464 70.3008 47.0056 70.0821 47.1241C69.8634 47.2393 69.685 47.399 69.5471 47.6031C69.4125 47.8038 69.3132 48.0343 69.2493 48.2943C69.1854 48.5511 69.1534 48.821 69.1534 49.1041V49.3114C69.1534 49.5978 69.1837 49.871 69.2443 50.1311C69.3082 50.3878 69.4074 50.6166 69.542 50.8174C69.68 51.0182 69.8583 51.1778 70.077 51.2963C70.2991 51.4115 70.5666 51.4691 70.8795 51.4691Z" fill="#080D14"/>
<path d="M77.7965 50.6446V46.5366H78.4021V51.8789H77.8217L77.7965 50.6446ZM77.9075 49.6571L78.2204 49.6472C78.2204 49.9829 78.18 50.2923 78.0993 50.5754C78.0185 50.8585 77.8924 51.1054 77.7208 51.3161C77.5492 51.5267 77.3271 51.6897 77.0545 51.8049C76.782 51.9201 76.4539 51.9777 76.0704 51.9777C75.8045 51.9777 75.5606 51.9415 75.3385 51.8691C75.1198 51.7933 74.9314 51.6748 74.7733 51.5136C74.6151 51.3523 74.4923 51.1432 74.4048 50.8865C74.3207 50.6297 74.2786 50.3187 74.2786 49.9533V46.5366H74.8792V49.9632C74.8792 50.2496 74.9112 50.4882 74.9751 50.6791C75.0424 50.87 75.1333 51.0231 75.2477 51.1383C75.3654 51.2535 75.5 51.3358 75.6514 51.3852C75.8029 51.4346 75.966 51.4592 76.141 51.4592C76.5852 51.4592 76.9351 51.3753 77.1908 51.2074C77.4499 51.0396 77.6333 50.819 77.7409 50.5458C77.852 50.2693 77.9075 49.9731 77.9075 49.6571Z" fill="#080D14"/>
<path d="M80.0751 44.2949H80.6808V50.8421L80.6404 51.8789H80.0751V44.2949ZM84.4812 49.1584V49.2621C84.4812 49.6603 84.4341 50.0257 84.3399 50.3582C84.2457 50.6906 84.1094 50.9787 83.9311 51.2222C83.7528 51.4625 83.5341 51.6485 83.275 51.7802C83.0193 51.9118 82.7249 51.9777 82.3917 51.9777C82.0654 51.9777 81.776 51.9283 81.5236 51.8296C81.2713 51.7275 81.0559 51.5843 80.8776 51.4C80.6993 51.2124 80.5563 50.9935 80.4486 50.7433C80.3409 50.4898 80.2652 50.2117 80.2215 49.9089V48.5906C80.272 48.268 80.3527 47.975 80.4638 47.7117C80.5748 47.4483 80.7178 47.2212 80.8928 47.0303C81.0711 46.8394 81.2831 46.6929 81.5287 46.5909C81.7777 46.4888 82.062 46.4378 82.3817 46.4378C82.7148 46.4378 83.0109 46.502 83.2699 46.6304C83.5324 46.7554 83.7528 46.9381 83.9311 47.1784C84.1094 47.4154 84.2457 47.7018 84.3399 48.0376C84.4341 48.37 84.4812 48.7436 84.4812 49.1584ZM83.8705 49.2621V49.1584C83.8705 48.8457 83.8403 48.556 83.7797 48.2894C83.7191 48.0227 83.6232 47.7907 83.492 47.5932C83.3642 47.3924 83.1993 47.236 82.9974 47.1241C82.7955 47.0122 82.5533 46.9562 82.2706 46.9562C81.9813 46.9562 81.7339 47.004 81.5287 47.0994C81.3268 47.1916 81.1586 47.315 81.024 47.4697C80.8928 47.6212 80.7885 47.7874 80.7111 47.9684C80.6337 48.1495 80.5765 48.3272 80.5395 48.5017V50.0372C80.5967 50.2841 80.6959 50.5162 80.8372 50.7334C80.9786 50.9507 81.1687 51.1268 81.4076 51.2617C81.6465 51.3934 81.9375 51.4592 82.2807 51.4592C82.5566 51.4592 82.7938 51.4033 82.9924 51.2914C83.1942 51.1795 83.3591 51.0247 83.487 50.8272C83.6182 50.6297 83.7141 50.3977 83.7747 50.1311C83.8386 49.8644 83.8705 49.5748 83.8705 49.2621Z" fill="#080D14"/>
<path d="M89.2431 50.9211V48.1659C89.2431 47.9125 89.1893 47.6936 89.0816 47.5092C88.9739 47.3249 88.8158 47.1834 88.6072 47.0846C88.3985 46.9859 88.1411 46.9365 87.8349 46.9365C87.5523 46.9365 87.2999 46.9859 87.0779 47.0846C86.8592 47.1801 86.6859 47.3101 86.558 47.4747C86.4335 47.636 86.3713 47.8154 86.3713 48.0129L85.7656 48.0079C85.7656 47.8071 85.8161 47.6129 85.917 47.4253C86.018 47.2377 86.161 47.0698 86.3461 46.9217C86.5311 46.7736 86.7515 46.6567 87.0072 46.5711C87.2663 46.4822 87.5506 46.4378 87.8602 46.4378C88.2505 46.4378 88.5937 46.502 88.8898 46.6304C89.1893 46.7587 89.4231 46.9513 89.5913 47.2081C89.7596 47.4648 89.8437 47.7874 89.8437 48.1758V50.7581C89.8437 50.9425 89.8571 51.1334 89.8841 51.3309C89.9143 51.5284 89.9564 51.6913 90.0102 51.8197V51.8789H89.3693C89.3289 51.7604 89.2969 51.6123 89.2734 51.4346C89.2532 51.2535 89.2431 51.0823 89.2431 50.9211ZM89.3844 48.7683L89.3945 49.2226H88.2084C87.8989 49.2226 87.6213 49.2505 87.3757 49.3065C87.1334 49.3592 86.9281 49.4382 86.7599 49.5435C86.5917 49.6455 86.4621 49.769 86.3713 49.9138C86.2838 50.0586 86.2401 50.2232 86.2401 50.4076C86.2401 50.5985 86.2888 50.7729 86.3864 50.9309C86.4874 51.0889 86.6287 51.2157 86.8104 51.3111C86.9954 51.4033 87.2141 51.4494 87.4665 51.4494C87.803 51.4494 88.0991 51.3885 88.3548 51.2667C88.6139 51.1449 88.8275 50.9852 88.9958 50.7877C89.164 50.5902 89.2767 50.3746 89.3339 50.1409L89.5964 50.4816C89.5526 50.6462 89.4719 50.8157 89.3541 50.9902C89.2397 51.1613 89.09 51.3226 88.9049 51.4741C88.7199 51.6222 88.5012 51.744 88.2488 51.8394C87.9998 51.9316 87.7172 51.9777 87.4009 51.9777C87.0442 51.9777 86.733 51.9118 86.4672 51.7802C86.2047 51.6485 85.9995 51.4691 85.8514 51.242C85.7067 51.0116 85.6344 50.7515 85.6344 50.4619C85.6344 50.1985 85.6916 49.9632 85.806 49.7558C85.9204 49.5451 86.0853 49.3674 86.3006 49.2226C86.5193 49.0744 86.7818 48.9625 87.088 48.8868C87.3975 48.8078 87.7441 48.7683 88.1277 48.7683H89.3844Z" fill="#080D14"/>
<path d="M93.6314 46.5366V47.0204H90.8959V46.5366H93.6314ZM91.9003 45.1639H92.5009V50.5804C92.5009 50.8272 92.5345 51.0132 92.6018 51.1383C92.6691 51.2634 92.7566 51.3473 92.8643 51.3901C92.972 51.4329 93.088 51.4543 93.2125 51.4543C93.3034 51.4543 93.3909 51.4494 93.475 51.4395C93.5591 51.4263 93.6348 51.4132 93.7021 51.4L93.7273 51.8987C93.6533 51.9217 93.5574 51.9398 93.4396 51.953C93.3219 51.9695 93.2041 51.9777 93.0863 51.9777C92.8542 51.9777 92.6489 51.9365 92.4706 51.8542C92.2923 51.7687 92.1526 51.6238 92.0517 51.4197C91.9508 51.2124 91.9003 50.9309 91.9003 50.5754V45.1639Z" fill="#080D14"/>
<path d="M94.5676 49.2917V49.1287C94.5676 48.7403 94.6248 48.3815 94.7392 48.0524C94.8536 47.7232 95.0168 47.4385 95.2287 47.1982C95.4441 46.9579 95.7015 46.7719 96.001 46.6402C96.3004 46.5053 96.6335 46.4378 97.0003 46.4378C97.3704 46.4378 97.7052 46.5053 98.0046 46.6402C98.3041 46.7719 98.5615 46.9579 98.7769 47.1982C98.9922 47.4385 99.1571 47.7232 99.2715 48.0524C99.3859 48.3815 99.4431 48.7403 99.4431 49.1287V49.2917C99.4431 49.6801 99.3859 50.0389 99.2715 50.3681C99.1571 50.6939 98.9922 50.977 98.7769 51.2173C98.5649 51.4576 98.3092 51.6452 98.0097 51.7802C97.7102 51.9118 97.3771 51.9777 97.0104 51.9777C96.6403 51.9777 96.3055 51.9118 96.006 51.7802C95.7065 51.6452 95.4491 51.4576 95.2338 51.2173C95.0184 50.977 94.8536 50.6939 94.7392 50.3681C94.6248 50.0389 94.5676 49.6801 94.5676 49.2917ZM95.1682 49.1287V49.2917C95.1682 49.5846 95.2086 49.8628 95.2893 50.1261C95.3701 50.3862 95.4878 50.6182 95.6426 50.8223C95.7974 51.0231 95.9892 51.1811 96.218 51.2963C96.4468 51.4115 96.7109 51.4691 97.0104 51.4691C97.3065 51.4691 97.5672 51.4115 97.7927 51.2963C98.0215 51.1811 98.2133 51.0231 98.368 50.8223C98.5228 50.6182 98.6389 50.3862 98.7163 50.1261C98.797 49.8628 98.8374 49.5846 98.8374 49.2917V49.1287C98.8374 48.8391 98.797 48.5642 98.7163 48.3042C98.6389 48.0441 98.5211 47.8121 98.363 47.608C98.2082 47.4039 98.0164 47.2426 97.7876 47.1241C97.5588 47.0056 97.2964 46.9464 97.0003 46.9464C96.7042 46.9464 96.4417 47.0056 96.2129 47.1241C95.9875 47.2426 95.7957 47.4039 95.6376 47.608C95.4828 47.8121 95.365 48.0441 95.2843 48.3042C95.2069 48.5642 95.1682 48.8391 95.1682 49.1287Z" fill="#080D14"/>
<path d="M101.399 47.4204V51.8789H100.798V46.5366H101.384L101.399 47.4204ZM103.332 46.4971L103.317 47.0402C103.249 47.0303 103.184 47.0221 103.12 47.0155C103.056 47.0089 102.987 47.0056 102.913 47.0056C102.65 47.0056 102.42 47.0533 102.221 47.1488C102.026 47.241 101.861 47.371 101.727 47.5389C101.592 47.7034 101.49 47.8977 101.419 48.1215C101.348 48.342 101.308 48.579 101.298 48.8325L101.076 48.9164C101.076 48.5675 101.113 48.2433 101.187 47.9437C101.261 47.6442 101.373 47.3825 101.525 47.1587C101.68 46.9316 101.873 46.7554 102.105 46.6304C102.341 46.502 102.617 46.4378 102.933 46.4378C103.01 46.4378 103.086 46.4444 103.16 46.4576C103.238 46.4674 103.295 46.4806 103.332 46.4971Z" fill="#080D14"/>
<path d="M108.187 48.003L109.368 47.134C109.583 46.9793 109.76 46.8131 109.898 46.6353C110.039 46.4543 110.11 46.2419 110.11 45.9984C110.11 45.7647 110.024 45.5556 109.852 45.3713C109.681 45.187 109.434 45.0948 109.11 45.0948C108.875 45.0948 108.676 45.1458 108.515 45.2479C108.353 45.3466 108.232 45.4816 108.152 45.6527C108.071 45.8206 108.03 46.0049 108.03 46.2057C108.03 46.3637 108.062 46.5283 108.126 46.6995C108.194 46.8674 108.288 47.0435 108.409 47.2278C108.533 47.4088 108.683 47.5998 108.858 47.8006L112.431 51.8789H111.705L108.661 48.4177C108.412 48.1347 108.194 47.873 108.005 47.6327C107.82 47.3924 107.677 47.1587 107.576 46.9316C107.475 46.7044 107.425 46.4691 107.425 46.2255C107.425 45.8864 107.494 45.5951 107.632 45.3515C107.77 45.108 107.965 44.9203 108.217 44.7887C108.47 44.6537 108.767 44.5862 109.11 44.5862C109.44 44.5862 109.721 44.6521 109.953 44.7837C110.189 44.9121 110.369 45.0833 110.493 45.2972C110.618 45.5079 110.68 45.7416 110.68 45.9984C110.68 46.2123 110.631 46.4115 110.534 46.5958C110.44 46.7801 110.317 46.948 110.165 47.0994C110.017 47.2476 109.861 47.3842 109.696 47.5092L108.353 48.5214C108.064 48.7486 107.849 48.9576 107.707 49.1485C107.569 49.3394 107.479 49.5089 107.435 49.6571C107.391 49.8052 107.369 49.9336 107.369 50.0422C107.369 50.2956 107.43 50.531 107.551 50.7482C107.672 50.9655 107.857 51.14 108.106 51.2716C108.355 51.4033 108.668 51.4691 109.045 51.4691C109.361 51.4691 109.667 51.4033 109.963 51.2716C110.26 51.1367 110.524 50.9457 110.756 50.6989C110.991 50.4487 111.176 50.1525 111.311 49.8101C111.449 49.4645 111.518 49.081 111.518 48.6597H112.073C112.073 48.9724 112.041 49.2653 111.977 49.5386C111.917 49.8118 111.826 50.0636 111.705 50.294C111.584 50.5244 111.434 50.7367 111.256 50.9309C111.229 50.9638 111.21 50.9902 111.2 51.0099C111.193 51.0297 111.176 51.0527 111.15 51.0791C110.88 51.3556 110.564 51.5745 110.201 51.7357C109.837 51.897 109.452 51.9777 109.045 51.9777C108.577 51.9777 108.172 51.897 107.829 51.7357C107.489 51.5745 107.226 51.349 107.041 51.0593C106.859 50.7663 106.769 50.4273 106.769 50.0422C106.769 49.7558 106.831 49.4958 106.955 49.2621C107.08 49.0283 107.25 48.8094 107.465 48.6054C107.68 48.4013 107.921 48.2005 108.187 48.003Z" fill="#080D14"/>
<path d="M120.82 49.6373H121.44C121.39 50.1212 121.254 50.5392 121.032 50.8914C120.809 51.2403 120.507 51.5086 120.123 51.6962C119.739 51.8839 119.277 51.9777 118.735 51.9777C118.318 51.9777 117.939 51.9003 117.6 51.7456C117.263 51.5909 116.974 51.372 116.731 51.0889C116.489 50.8026 116.302 50.4602 116.171 50.0619C116.04 49.6636 115.974 49.2209 115.974 48.7337V47.8351C115.974 47.3479 116.04 46.9069 116.171 46.5119C116.302 46.1136 116.491 45.7712 116.736 45.4849C116.982 45.1985 117.276 44.9779 117.62 44.8232C117.963 44.6685 118.35 44.5912 118.781 44.5912C119.302 44.5912 119.753 44.685 120.133 44.8726C120.513 45.0569 120.813 45.3236 121.032 45.6725C121.254 46.0214 121.39 46.4427 121.44 46.9365H120.82C120.772 46.5481 120.668 46.2189 120.507 45.949C120.345 45.6791 120.121 45.4733 119.835 45.3318C119.553 45.187 119.201 45.1145 118.781 45.1145C118.437 45.1145 118.131 45.1787 117.862 45.3071C117.593 45.4355 117.364 45.6198 117.176 45.8601C116.987 46.0971 116.842 46.3818 116.742 46.7143C116.644 47.0468 116.595 47.4171 116.595 47.8252V48.7337C116.595 49.1287 116.642 49.4925 116.736 49.8249C116.831 50.1574 116.969 50.4454 117.15 50.689C117.335 50.9326 117.561 51.1218 117.827 51.2568C118.092 51.3918 118.395 51.4592 118.735 51.4592C119.169 51.4592 119.531 51.3918 119.82 51.2568C120.113 51.1186 120.34 50.9145 120.502 50.6446C120.663 50.3746 120.769 50.0389 120.82 49.6373Z" fill="#080D14"/>
<path d="M122.583 49.2917V49.1287C122.583 48.7403 122.641 48.3815 122.755 48.0524C122.869 47.7232 123.033 47.4385 123.245 47.1982C123.46 46.9579 123.717 46.7719 124.017 46.6402C124.316 46.5053 124.649 46.4378 125.016 46.4378C125.386 46.4378 125.721 46.5053 126.021 46.6402C126.32 46.7719 126.577 46.9579 126.793 47.1982C127.008 47.4385 127.173 47.7232 127.287 48.0524C127.402 48.3815 127.459 48.7403 127.459 49.1287V49.2917C127.459 49.6801 127.402 50.0389 127.287 50.3681C127.173 50.6939 127.008 50.977 126.793 51.2173C126.581 51.4576 126.325 51.6452 126.026 51.7802C125.726 51.9118 125.393 51.9777 125.026 51.9777C124.656 51.9777 124.321 51.9118 124.022 51.7802C123.722 51.6452 123.465 51.4576 123.25 51.2173C123.034 50.977 122.869 50.6939 122.755 50.3681C122.641 50.0389 122.583 49.6801 122.583 49.2917ZM123.184 49.1287V49.2917C123.184 49.5846 123.224 49.8628 123.305 50.1261C123.386 50.3862 123.504 50.6182 123.658 50.8223C123.813 51.0231 124.005 51.1811 124.234 51.2963C124.463 51.4115 124.727 51.4691 125.026 51.4691C125.322 51.4691 125.583 51.4115 125.809 51.2963C126.037 51.1811 126.229 51.0231 126.384 50.8223C126.539 50.6182 126.655 50.3862 126.732 50.1261C126.813 49.8628 126.853 49.5846 126.853 49.2917V49.1287C126.853 48.8391 126.813 48.5642 126.732 48.3042C126.655 48.0441 126.537 47.8121 126.379 47.608C126.224 47.4039 126.032 47.2426 125.803 47.1241C125.575 47.0056 125.312 46.9464 125.016 46.9464C124.72 46.9464 124.458 47.0056 124.229 47.1241C124.003 47.2426 123.812 47.4039 123.653 47.608C123.499 47.8121 123.381 48.0441 123.3 48.3042C123.223 48.5642 123.184 48.8391 123.184 49.1287Z" fill="#080D14"/>
<path d="M129.415 47.6771V51.8789H128.814V46.5366H129.389L129.415 47.6771ZM129.278 48.8769L129.011 48.7288C129.031 48.4128 129.097 48.1166 129.208 47.8401C129.319 47.5636 129.468 47.32 129.657 47.1093C129.849 46.8986 130.072 46.7341 130.328 46.6156C130.587 46.4971 130.873 46.4378 131.186 46.4378C131.459 46.4378 131.703 46.474 131.918 46.5464C132.133 46.6188 132.317 46.7341 132.468 46.8921C132.619 47.0501 132.734 47.2525 132.811 47.4994C132.892 47.7462 132.932 48.0474 132.932 48.4029V51.8789H132.327V48.398C132.327 48.0293 132.275 47.7413 132.17 47.5339C132.066 47.3233 131.918 47.1735 131.726 47.0846C131.534 46.9957 131.307 46.9513 131.045 46.9513C130.755 46.9513 130.501 47.0138 130.283 47.1389C130.067 47.2607 129.886 47.4204 129.738 47.6179C129.593 47.8121 129.482 48.0211 129.404 48.2449C129.327 48.4655 129.285 48.6761 129.278 48.8769Z" fill="#080D14"/>
<path d="M137.871 50.5162C137.871 50.3713 137.834 50.2282 137.76 50.0866C137.686 49.9451 137.543 49.8151 137.331 49.6966C137.122 49.5781 136.814 49.4777 136.407 49.3954C136.104 49.3295 135.834 49.2555 135.595 49.1732C135.359 49.0909 135.161 48.9921 134.999 48.8769C134.838 48.7617 134.715 48.6235 134.631 48.4622C134.547 48.3009 134.504 48.11 134.504 47.8894C134.504 47.6919 134.548 47.5059 134.636 47.3315C134.727 47.1537 134.854 46.999 135.019 46.8674C135.188 46.7324 135.389 46.6271 135.625 46.5514C135.864 46.4757 136.131 46.4378 136.427 46.4378C136.848 46.4378 137.208 46.5086 137.507 46.6501C137.81 46.7884 138.041 46.9776 138.199 47.2179C138.36 47.4582 138.441 47.7298 138.441 48.0326H137.841C137.841 47.8483 137.785 47.6738 137.674 47.5092C137.566 47.3447 137.407 47.2097 137.195 47.1044C136.986 46.999 136.73 46.9464 136.427 46.9464C136.114 46.9464 135.86 46.9924 135.665 47.0846C135.47 47.1768 135.327 47.2936 135.236 47.4352C135.149 47.5767 135.105 47.7232 135.105 47.8746C135.105 47.9931 135.124 48.1017 135.161 48.2005C135.201 48.2959 135.272 48.3848 135.373 48.4671C135.477 48.5494 135.625 48.6268 135.817 48.6992C136.009 48.7716 136.257 48.8424 136.564 48.9115C137.004 49.0069 137.364 49.1238 137.644 49.2621C137.926 49.397 138.135 49.5649 138.27 49.7657C138.404 49.9632 138.471 50.2035 138.471 50.4866C138.471 50.7071 138.424 50.9095 138.33 51.0939C138.236 51.2749 138.1 51.4313 137.921 51.5629C137.746 51.6946 137.534 51.7966 137.285 51.8691C137.04 51.9415 136.764 51.9777 136.458 51.9777C135.997 51.9777 135.606 51.9036 135.287 51.7555C134.97 51.6041 134.73 51.4066 134.565 51.163C134.404 50.9161 134.323 50.6544 134.323 50.3779H134.923C134.944 50.6544 135.033 50.8733 135.191 51.0346C135.349 51.1926 135.542 51.3045 135.771 51.3704C136.003 51.4362 136.232 51.4691 136.458 51.4691C136.767 51.4691 137.026 51.4247 137.235 51.3358C137.444 51.2469 137.602 51.1301 137.709 50.9852C137.817 50.8404 137.871 50.6841 137.871 50.5162Z" fill="#080D14"/>
<path d="M143.44 50.6446V46.5366H144.046V51.8789H143.465L143.44 50.6446ZM143.551 49.6571L143.864 49.6472C143.864 49.9829 143.824 50.2923 143.743 50.5754C143.662 50.8585 143.536 51.1054 143.365 51.3161C143.193 51.5267 142.971 51.6897 142.698 51.8049C142.426 51.9201 142.098 51.9777 141.714 51.9777C141.448 51.9777 141.204 51.9415 140.982 51.8691C140.764 51.7933 140.575 51.6748 140.417 51.5136C140.259 51.3523 140.136 51.1432 140.049 50.8865C139.964 50.6297 139.922 50.3187 139.922 49.9533V46.5366H140.523V49.9632C140.523 50.2496 140.555 50.4882 140.619 50.6791C140.686 50.87 140.777 51.0231 140.891 51.1383C141.009 51.2535 141.144 51.3358 141.295 51.3852C141.447 51.4346 141.61 51.4592 141.785 51.4592C142.229 51.4592 142.579 51.3753 142.835 51.2074C143.094 51.0396 143.277 50.819 143.385 50.5458C143.496 50.2693 143.551 49.9731 143.551 49.6571Z" fill="#080D14"/>
<path d="M146.4 44.2949V51.8789H145.8V44.2949H146.4Z" fill="#080D14"/>
<path d="M150.218 46.5366V47.0204H147.483V46.5366H150.218ZM148.487 45.1639H149.088V50.5804C149.088 50.8272 149.121 51.0132 149.189 51.1383C149.256 51.2634 149.343 51.3473 149.451 51.3901C149.559 51.4329 149.675 51.4543 149.799 51.4543C149.89 51.4543 149.978 51.4494 150.062 51.4395C150.146 51.4263 150.222 51.4132 150.289 51.4L150.314 51.8987C150.24 51.9217 150.144 51.9398 150.027 51.953C149.909 51.9695 149.791 51.9777 149.673 51.9777C149.441 51.9777 149.236 51.9365 149.057 51.8542C148.879 51.7687 148.74 51.6238 148.639 51.4197C148.538 51.2124 148.487 50.9309 148.487 50.5754V45.1639Z" fill="#080D14"/>
<path d="M152.26 46.5366V51.8789H151.659V46.5366H152.26ZM151.553 44.9911C151.553 44.8792 151.589 44.7854 151.659 44.7097C151.733 44.6307 151.834 44.5912 151.962 44.5912C152.09 44.5912 152.191 44.6307 152.265 44.7097C152.342 44.7854 152.381 44.8792 152.381 44.9911C152.381 45.0997 152.342 45.1935 152.265 45.2725C152.191 45.3483 152.09 45.3861 151.962 45.3861C151.834 45.3861 151.733 45.3483 151.659 45.2725C151.589 45.1935 151.553 45.0997 151.553 44.9911Z" fill="#080D14"/>
<path d="M154.614 47.6771V51.8789H154.014V46.5366H154.589L154.614 47.6771ZM154.478 48.8769L154.21 48.7288C154.231 48.4128 154.296 48.1166 154.407 47.8401C154.518 47.5636 154.668 47.32 154.856 47.1093C155.048 46.8986 155.272 46.7341 155.528 46.6156C155.787 46.4971 156.073 46.4378 156.386 46.4378C156.658 46.4378 156.902 46.474 157.117 46.5464C157.333 46.6188 157.516 46.7341 157.668 46.8921C157.819 47.0501 157.933 47.2525 158.011 47.4994C158.092 47.7462 158.132 48.0474 158.132 48.4029V51.8789H157.526V48.398C157.526 48.0293 157.474 47.7413 157.37 47.5339C157.266 47.3233 157.117 47.1735 156.926 47.0846C156.734 46.9957 156.507 46.9513 156.244 46.9513C155.955 46.9513 155.701 47.0138 155.482 47.1389C155.267 47.2607 155.085 47.4204 154.937 47.6179C154.792 47.8121 154.681 48.0211 154.604 48.2449C154.527 48.4655 154.485 48.6761 154.478 48.8769Z" fill="#080D14"/>
<path d="M163.393 46.5366H163.954V51.7851C163.954 52.2492 163.863 52.6475 163.681 52.98C163.503 53.3125 163.249 53.5676 162.919 53.7453C162.593 53.9231 162.207 54.0119 161.763 54.0119C161.538 54.0119 161.306 53.9774 161.067 53.9082C160.831 53.8424 160.607 53.7404 160.395 53.6021C160.187 53.4672 160.009 53.2993 159.86 53.0985L160.199 52.7381C160.421 53.0014 160.658 53.194 160.91 53.3157C161.163 53.4408 161.435 53.5034 161.728 53.5034C162.074 53.5034 162.367 53.4359 162.606 53.3009C162.848 53.166 163.032 52.9718 163.156 52.7183C163.284 52.4649 163.348 52.1604 163.348 51.8049V47.7117L163.393 46.5366ZM159.558 49.2621V49.1584C159.558 48.7436 159.605 48.37 159.699 48.0376C159.797 47.7018 159.936 47.4154 160.118 47.1784C160.3 46.9381 160.52 46.7554 160.779 46.6304C161.042 46.502 161.338 46.4378 161.667 46.4378C161.984 46.4378 162.265 46.4888 162.51 46.5909C162.756 46.6929 162.968 46.8394 163.146 47.0303C163.324 47.2212 163.467 47.4483 163.575 47.7117C163.686 47.975 163.767 48.268 163.817 48.5906V49.9089C163.777 50.2117 163.703 50.4898 163.595 50.7433C163.488 50.9935 163.345 51.2124 163.166 51.4C162.988 51.5843 162.773 51.7275 162.52 51.8296C162.271 51.9283 161.984 51.9777 161.657 51.9777C161.331 51.9777 161.038 51.9118 160.779 51.7802C160.52 51.6485 160.3 51.4625 160.118 51.2222C159.936 50.9787 159.797 50.6906 159.699 50.3582C159.605 50.0257 159.558 49.6603 159.558 49.2621ZM160.163 49.1584V49.2621C160.163 49.5748 160.195 49.8644 160.259 50.1311C160.323 50.3977 160.421 50.6297 160.552 50.8272C160.683 51.0247 160.85 51.1795 161.052 51.2914C161.253 51.4033 161.491 51.4592 161.763 51.4592C162.11 51.4592 162.401 51.3951 162.636 51.2667C162.872 51.135 163.059 50.9622 163.197 50.7482C163.335 50.531 163.436 50.294 163.499 50.0372V48.5017C163.462 48.3272 163.405 48.1495 163.328 47.9684C163.254 47.7874 163.15 47.6212 163.015 47.4697C162.884 47.315 162.715 47.1916 162.51 47.0994C162.308 47.004 162.063 46.9562 161.773 46.9562C161.497 46.9562 161.257 47.0122 161.052 47.1241C160.85 47.236 160.683 47.3924 160.552 47.5932C160.421 47.7907 160.323 48.0227 160.259 48.2894C160.195 48.556 160.163 48.8457 160.163 49.1584Z" fill="#080D14"/>
</svg>
