<svg width="220" height="64" viewBox="0 0 220 64" fill="none" xmlns="http://www.w3.org/2000/svg">
<g clip-path="url(#clip0_1599_7033)">
<mask id="mask0_1599_7033" style="mask-type:luminance" maskUnits="userSpaceOnUse" x="20" y="8" width="179" height="50">
<path d="M199 8H20V58H199V8Z" fill="white"/>
</mask>
<g mask="url(#mask0_1599_7033)">
<path d="M39.8711 15.7653L39.8179 29.0085C39.4875 29.0085 37.0157 29.0085 36.6854 28.9981C33.5635 28.9462 30.4523 28.9046 27.3305 28.8526L27.0321 15.6614C27.0321 15.7133 24.1234 15.651 23.303 15.6614C20.9057 15.6925 20.1065 15.6614 20.1065 15.6614C20.0639 20.4327 20.0426 28.177 20.0426 32.9482C20.0426 37.8755 20.0639 42.8131 20.0213 47.7403C20.0213 48.7487 20 49.2372 20 49.2372C21.481 49.1749 25.924 49.3204 27.4051 49.1852L27.4477 35.7445C31.0703 35.7341 37.6869 35.6717 39.9244 35.6198C39.9244 35.6198 39.935 36.1915 39.9137 37.3349C39.8604 40.6717 39.9777 45.9004 39.8498 49.2372H46.818C46.85 40.1728 46.85 27.7507 46.818 18.6759C46.8074 16.3163 46.85 15.6614 46.85 15.6614L39.8711 15.7653Z" fill="white"/>
<path d="M120.687 31.5656C118.971 30.0999 116.83 29.3203 114.443 28.9773C113.399 28.8318 112.323 28.5096 111.396 28.021C109.169 26.8567 108.966 25.0999 110.352 23.2496C112.376 20.547 116.99 22.5844 119.515 24.3931L123.19 19.9128C123.223 19.8713 122.786 19.4659 122.54 19.2684C118.098 15.6197 114.23 14.7777 109.18 16.5968C105.163 18.0521 102.798 20.9628 102.478 25.0688C102.35 26.8152 102.616 28.8838 103.522 30.3183C104.439 31.784 106.25 32.865 107.901 33.7174C109.627 34.6218 111.673 34.9337 113.463 35.7341C114.443 36.181 115.328 37.0023 115.999 37.8442C116.841 38.8942 116.265 41.4721 115.168 42.0335C110.916 44.206 106.761 39.7881 106.74 39.8193L102.041 44.9753C104.864 46.8464 108.647 49.1436 113.112 49.1228C124.309 49.3411 126.654 36.6592 120.687 31.5656Z" fill="white"/>
<path d="M65.6453 24.1855C65.7625 28.3227 65.6453 34.2063 65.6453 38.3435C65.6453 43.9361 55.7896 44.144 55.7896 36.9818C55.7896 33.3227 55.6831 27.8446 55.8003 24.1855H49.791C49.8336 28.9569 49.7697 35.4122 49.8443 40.1834C49.8549 41.0359 50.0787 42.6263 50.4623 43.4163C52.6465 47.8446 57.8353 49.7677 62.662 49.092C67.3074 48.4371 71.6333 45.1834 71.6333 39.2999C71.6333 37.2313 71.6333 35.1627 71.6333 33.0941C71.6333 31.0255 71.6439 26.2541 71.6333 24.1855H65.6453Z" fill="white"/>
<path d="M196.381 43.3427C193.078 43.166 191.778 41.9082 191.714 38.8209C191.693 37.3967 191.693 35.9623 191.714 34.5277C191.735 33.114 191.821 31.0246 191.863 30.4217H198.043C198.043 27.8334 197.937 25.9519 197.937 25.1826L191.703 25.1202C191.703 24.6421 191.714 18.3219 191.714 17.8438L185.736 20.8583C185.736 24.351 185.769 29.3406 185.769 32.8437C185.769 36.1805 185.769 39.5173 185.769 42.8541C185.769 43.4882 185.918 44.5277 186.12 45.0891C187.825 49.7668 193.323 50.1202 196.221 49.0184L199.012 43.3843C198.522 43.2907 196.871 43.3739 196.381 43.3427Z" fill="white"/>
<path d="M88.5106 24.1856C88.0737 24.1856 87.6368 24.2064 87.2 24.2479H87.1893C85.8895 24.3207 84.5789 24.6221 83.3217 25.1835C81.5956 25.9423 81.5849 25.9528 81.5849 25.9528C81.5636 23.8841 81.4997 18.3644 81.4997 15.7656H75.6183C75.6077 19.4143 75.5117 24.2687 75.5117 27.9278C75.5117 30.7864 75.5117 32.3976 75.5543 36.8051C75.597 40.5889 76.8862 43.1773 79.4646 45.8072C81.1161 47.4912 83.5135 48.7178 85.5272 48.9257C85.9641 48.9673 86.3903 48.9985 86.7952 49.0193C87.3492 49.0921 87.9245 49.1336 88.5106 49.1336C95.5746 49.1336 101.296 43.5515 101.296 36.6596C101.296 29.7677 95.5746 24.1856 88.5106 24.1856ZM88.5106 42.4808C85.2182 42.4808 82.5439 39.8717 82.5439 36.6596C82.5439 33.4475 85.2182 30.8384 88.5106 30.8384C91.8028 30.8384 94.4772 33.4475 94.4772 36.6596C94.4772 39.8717 91.8028 42.4808 88.5106 42.4808Z" fill="white"/>
<path d="M152.407 36.232C152.162 29.3505 146.237 23.9659 139.173 24.2049C138.598 24.2257 138.022 24.2777 137.469 24.3713C137.053 24.4024 136.637 24.4544 136.201 24.5168C134.197 24.787 131.854 26.0968 130.255 27.8432C127.773 30.5666 126.579 33.1862 126.675 36.97C126.792 41.3775 126.846 42.9887 126.952 45.8473C127.08 49.496 127.357 54.3505 127.496 57.9991L133.377 57.7912C133.281 55.1924 133.153 49.6727 133.089 47.6041C133.089 47.6041 133.111 47.6041 134.858 48.3109C136.147 48.8307 137.458 49.0802 138.758 49.1113H138.768C139.194 49.1426 139.632 49.1426 140.079 49.1322C147.132 48.9034 152.651 43.1238 152.407 36.232ZM139.834 42.5002C136.541 42.6145 133.771 40.0989 133.665 36.8868C133.558 33.6748 136.126 30.9721 139.418 30.8681C142.711 30.7538 145.48 33.2694 145.587 36.4814C145.694 39.6935 143.137 42.3858 139.834 42.5002Z" fill="white"/>
<path d="M171.426 24.3096L171.265 18.3012C171.745 18.0622 172.193 17.7503 172.587 17.3657C174.622 15.3803 174.622 12.1474 172.587 10.162C170.552 8.17651 167.238 8.17651 165.203 10.162C163.168 12.1474 163.168 15.3803 165.203 17.3657C165.704 17.8543 166.279 18.2285 166.897 18.4676L167.057 24.4343C166.823 24.4551 166.589 24.4863 166.343 24.5175C164.958 24.7046 163.392 25.3906 162.039 26.3782L144.405 14.0081C144.501 13.4988 144.522 12.9582 144.448 12.4177C144.064 9.63182 141.432 7.67755 138.577 8.05177C135.721 8.42599 133.719 10.9936 134.102 13.7794C134.486 16.5653 137.117 18.5195 139.973 18.1453C140.676 18.0518 141.326 17.8231 141.901 17.5008L159.045 29.5279C157.489 31.7005 156.744 33.9769 156.839 36.9811C156.924 39.611 157.532 41.6588 158.501 43.2908L154.591 47.3034C154.08 47.1474 153.536 47.0538 152.982 47.0538C150.095 47.0538 147.761 49.3304 147.761 52.1474C147.761 54.9644 150.095 57.2409 152.982 57.2409C155.87 57.2409 158.203 54.9644 158.203 52.1474C158.203 51.4509 158.064 50.7961 157.809 50.1931L161.431 46.4821C162.007 46.9084 162.625 47.2826 163.264 47.6256C163.264 47.6256 163.285 47.6256 165.033 48.3324C166.322 48.8522 167.633 49.1017 168.932 49.1329H168.943C169.369 49.1641 169.806 49.1641 170.253 49.1537C177.307 48.9146 182.826 43.1349 182.581 36.243C182.336 30.0476 177.52 25.0684 171.426 24.3096ZM169.987 42.5009C166.695 42.6151 163.925 40.0996 163.818 36.8876C163.711 33.6755 166.279 30.9728 169.572 30.8688C172.864 30.7544 175.634 33.2701 175.74 36.4821C175.847 39.6942 173.29 42.3865 169.987 42.5009Z" fill="white"/>
</g>
</g>
<defs>
<clipPath id="clip0_1599_7033">
<rect width="179" height="50" fill="white" transform="translate(20 8)"/>
</clipPath>
</defs>
</svg>
