<svg width="24" height="24" viewBox="0 0 24 24" fill="none" xmlns="http://www.w3.org/2000/svg">
<path d="M9.48117 20.6906C8.98117 20.6906 8.63118 20.5205 8.42118 20.3605C8.02118 20.0705 7.40117 19.3205 7.79117 17.6405L8.36115 15.1805C8.41115 14.9705 8.30116 14.5905 8.15116 14.4305L6.16117 12.4406C5.11117 11.3906 5.20116 10.4805 5.34116 10.0305C5.48116 9.58055 5.94116 8.79054 7.40116 8.54054L9.95117 8.12054C10.1412 8.09054 10.4512 7.86055 10.5312 7.69055L11.9412 4.87054C12.6212 3.51054 13.5212 3.31055 14.0012 3.31055C14.4812 3.31055 15.3812 3.51054 16.0612 4.87054L17.4712 7.69055C17.5612 7.86055 17.8611 8.09054 18.0511 8.12054L20.6012 8.54054C22.0612 8.78054 22.5212 9.58055 22.6612 10.0305C22.8012 10.4805 22.8912 11.3906 21.8412 12.4406L19.8512 14.4305C19.7012 14.5805 19.5912 14.9705 19.6412 15.1805L20.2112 17.6405C20.6012 19.3305 19.9811 20.0705 19.5811 20.3605C19.1811 20.6506 18.2912 21.0206 16.7912 20.1306L14.4012 18.7106C14.2012 18.5906 13.7811 18.5906 13.5811 18.7106L11.1912 20.1306C10.5012 20.5506 9.92117 20.6906 9.48117 20.6906ZM14.0012 4.81055C13.8412 4.81055 13.5512 5.00054 13.2812 5.54054L11.8712 8.36055C11.5712 8.97055 10.8612 9.49056 10.1912 9.60056L7.64118 10.0206C7.07118 10.1206 6.81117 10.3306 6.76117 10.4906C6.71117 10.6506 6.80115 10.9706 7.21115 11.3806L9.20117 13.3705C9.71117 13.8805 9.98117 14.8105 9.82117 15.5105L9.25116 17.9706C9.08116 18.6806 9.19115 19.0605 9.30115 19.1505C9.41115 19.2305 9.81115 19.2205 10.4312 18.8405L12.8311 17.4205C13.5011 17.0205 14.5112 17.0205 15.1712 17.4205L17.5612 18.8405C18.1912 19.2105 18.5912 19.2305 18.7012 19.1505C18.8112 19.0705 18.9212 18.6906 18.7512 17.9706L18.1812 15.5105C18.0212 14.8005 18.2811 13.8805 18.8011 13.3705L20.7912 11.3806C21.2012 10.9706 21.2912 10.6406 21.2412 10.4906C21.1912 10.3406 20.9311 10.1206 20.3611 10.0206L17.8112 9.60056C17.1412 9.49056 16.4312 8.97055 16.1312 8.36055L14.7212 5.54054C14.4512 5.00054 14.1612 4.81055 14.0012 4.81055Z" fill="white"/>
<path d="M8 5.75H2C1.59 5.75 1.25 5.41 1.25 5C1.25 4.59 1.59 4.25 2 4.25H8C8.41 4.25 8.75 4.59 8.75 5C8.75 5.41 8.41 5.75 8 5.75Z" fill="white"/>
<path d="M5 19.75H2C1.59 19.75 1.25 19.41 1.25 19C1.25 18.59 1.59 18.25 2 18.25H5C5.41 18.25 5.75 18.59 5.75 19C5.75 19.41 5.41 19.75 5 19.75Z" fill="white"/>
<path d="M3 12.75H2C1.59 12.75 1.25 12.41 1.25 12C1.25 11.59 1.59 11.25 2 11.25H3C3.41 11.25 3.75 11.59 3.75 12C3.75 12.41 3.41 12.75 3 12.75Z" fill="white"/>
</svg>
