<svg width="20" height="20" viewBox="0 0 20 20" fill="none" xmlns="http://www.w3.org/2000/svg">
<g clip-path="url(#clip0_1424_8412)">
<path d="M18.4042 3.94482L20 2.41815V2.08398H14.4717L10.5317 11.8907L6.04917 2.08398H0.2525V2.41815L2.11667 4.66232C2.29833 4.82815 2.39333 5.07065 2.36917 5.31482V14.134C2.42667 14.4515 2.32333 14.7782 2.1 15.009L0 17.554V17.884H5.95417V17.5498L3.85417 15.009C3.62667 14.7773 3.51917 14.4565 3.565 14.134V6.50565L8.79167 17.8882H9.39917L13.8933 6.50565V15.5732C13.8933 15.8123 13.8933 15.8615 13.7367 16.0182L12.12 17.5823V17.9173H19.9633V17.5832L18.405 16.0573C18.2683 15.954 18.1975 15.7807 18.2267 15.6123V4.38982C18.1975 4.22065 18.2675 4.04732 18.4042 3.94482Z" fill="white"/>
</g>
<defs>
<clipPath id="clip0_1424_8412">
<rect width="20" height="20" fill="white"/>
</clipPath>
</defs>
</svg>
