<svg width="20" height="20" viewBox="0 0 20 20" fill="none" xmlns="http://www.w3.org/2000/svg">
<path d="M6.2918 18.1236C13.8371 18.1236 17.9652 11.8709 17.9652 6.45021C17.9652 6.27443 17.9613 6.09474 17.9535 5.91896C18.7566 5.33821 19.4496 4.61887 20 3.79474C19.2521 4.12749 18.458 4.34481 17.6449 4.43927C18.5011 3.92608 19.1421 3.11988 19.4492 2.17013C18.6438 2.64746 17.763 2.98417 16.8445 3.16583C16.2257 2.50829 15.4075 2.07292 14.5164 1.92703C13.6253 1.78115 12.711 1.93287 11.9148 2.35874C11.1186 2.78461 10.4848 3.46091 10.1115 4.28308C9.73825 5.10526 9.64619 6.0275 9.84961 6.90724C8.21874 6.8254 6.62328 6.40174 5.16665 5.66374C3.71002 4.92573 2.42474 3.88985 1.39414 2.62325C0.870333 3.52636 0.710047 4.59503 0.945859 5.61207C1.18167 6.6291 1.79589 7.5182 2.66367 8.09865C2.01219 8.07796 1.37498 7.90256 0.804688 7.58693V7.63771C0.804104 8.58545 1.13175 9.50415 1.73192 10.2376C2.3321 10.9711 3.16777 11.4741 4.09687 11.6611C3.49338 11.8263 2.85999 11.8503 2.2457 11.7315C2.50788 12.5465 3.01798 13.2594 3.70481 13.7706C4.39164 14.2818 5.22093 14.5658 6.07695 14.583C4.62369 15.7246 2.82848 16.3438 0.980469 16.3408C0.652739 16.3403 0.325333 16.3202 0 16.2807C1.87738 17.4851 4.06128 18.1248 6.2918 18.1236Z" fill="white"/>
</svg>
