<svg width="24" height="24" viewBox="0 0 24 24" fill="none" xmlns="http://www.w3.org/2000/svg">
<path d="M10.0495 2.52735L4.02953 6.45735C2.09953 7.71735 2.09953 10.5374 4.02953 11.7974L10.0495 15.7274C11.1295 16.4374 12.9095 16.4374 13.9895 15.7274L19.9795 11.7974C21.8995 10.5374 21.8995 7.72735 19.9795 6.46735L13.9895 2.53735C12.9095 1.81735 11.1295 1.81735 10.0495 2.52735Z" stroke="white" stroke-width="1.5" stroke-linecap="round" stroke-linejoin="round"/>
<path d="M5.62963 13.0859L5.61963 17.7759C5.61963 19.0459 6.59963 20.4059 7.79963 20.8059L10.9896 21.8659C11.5396 22.0459 12.4496 22.0459 13.0096 21.8659L16.1996 20.8059C17.3996 20.4059 18.3796 19.0459 18.3796 17.7759V13.1359" stroke="white" stroke-width="1.5" stroke-linecap="round" stroke-linejoin="round"/>
<path d="M21.3999 15.0039V9.00391" stroke="white" stroke-width="1.5" stroke-linecap="round" stroke-linejoin="round"/>
</svg>
