<svg width="22" height="22" viewBox="0 0 22 22" fill="none" xmlns="http://www.w3.org/2000/svg">
<path d="M4.09758 10.47L2.50258 8.875L0.916748 10.47" stroke="#9A9A9A" stroke-width="1.5" stroke-linecap="round" stroke-linejoin="round"/>
<path d="M17.9026 11.5312L19.4976 13.1262L21.0926 11.5312" stroke="#9A9A9A" stroke-width="1.5" stroke-linecap="round" stroke-linejoin="round"/>
<path d="M19.4884 13.1267V11.0001C19.4884 6.30673 15.6842 2.51172 11.0001 2.51172C8.32339 2.51172 5.93089 3.75841 4.37256 5.69258" stroke="#9A9A9A" stroke-width="1.5" stroke-linecap="round" stroke-linejoin="round"/>
<path d="M2.51172 8.875V11.0017C2.51172 15.695 6.31589 19.49 11.0001 19.49C13.6767 19.49 16.0692 18.2433 17.6276 16.3092" stroke="#9A9A9A" stroke-width="1.5" stroke-linecap="round" stroke-linejoin="round"/>
<path d="M8.25 7.79297H12.265C13.1542 7.79297 13.8692 8.59964 13.8692 9.39714C13.8692 10.2863 13.1542 11.0013 12.265 11.0013H8.25V7.79297Z" stroke="#9A9A9A" stroke-width="1.5" stroke-miterlimit="10" stroke-linecap="round" stroke-linejoin="round"/>
<path d="M8.25 11H12.8333C13.8417 11 14.6667 11.715 14.6667 12.6042C14.6667 13.4933 13.8417 14.2083 12.8333 14.2083H8.25V11Z" stroke="#9A9A9A" stroke-width="1.5" stroke-miterlimit="10" stroke-linecap="round" stroke-linejoin="round"/>
<path d="M10.8167 14.207V15.8112" stroke="#9A9A9A" stroke-width="1.5" stroke-miterlimit="10" stroke-linecap="round" stroke-linejoin="round"/>
<path d="M10.8167 6.1875V7.79167" stroke="#9A9A9A" stroke-width="1.5" stroke-miterlimit="10" stroke-linecap="round" stroke-linejoin="round"/>
</svg>
