<svg width="22" height="22" viewBox="0 0 22 22" fill="none" xmlns="http://www.w3.org/2000/svg">
<g clip-path="url(#clip0_1903_1727)">
<path d="M20.7528 13.4418L22 10.1556L18.8294 9.51548C18.9197 8.69061 18.8725 7.85024 18.6826 7.03067L17.7703 3.09342C17.7703 3.09342 13.8679 4.70535 13.7859 4.74272C13.7301 4.67193 11 1.45117 11 1.45117C11 1.45117 8.26978 4.67189 8.21402 4.74272C8.13204 4.70535 4.22966 3.09342 4.22966 3.09342L3.3173 7.03067C3.12737 7.85024 3.08022 8.69061 3.17056 9.51548L0 10.1556L1.24727 13.4418C1.59966 14.3703 2.16433 15.1975 2.88663 15.8611C2.11985 16.4765 1.62765 17.4206 1.62765 18.4781V20.5482H8.29071C9.40251 20.5482 10.3892 20.0043 11 19.1689C11.6109 20.0043 12.5976 20.5482 13.7093 20.5482H20.3724V18.4781C20.3724 17.4206 19.8802 16.4765 19.1134 15.8611C19.8357 15.1975 20.4003 14.3703 20.7528 13.4418ZM17.2654 15.6112C16.2194 16.1887 14.9983 16.3765 13.8271 16.14L13.2096 16.0153L14.2789 15.5743C15.9044 14.9038 17.2433 13.6737 18.0489 12.1107C18.269 11.6838 18.4454 11.2387 18.578 10.7825L20.2521 11.1205L19.5451 12.9834C19.121 14.1005 18.3115 15.0338 17.2654 15.6112ZM19.0806 18.4781V19.2565H13.7093C12.5716 19.2565 11.6459 18.3308 11.6459 17.1931V17.0174L13.5715 17.4062C13.9863 17.4899 14.4058 17.5313 14.8242 17.5313C15.8896 17.5313 16.9465 17.2628 17.8898 16.7421C17.9313 16.7191 17.9726 16.6958 18.0135 16.6719C18.6492 17.024 19.0806 17.7015 19.0806 18.4781ZM2.9194 19.2565V18.4781C2.9194 17.7015 3.35084 17.0239 3.98647 16.6719C4.02742 16.6957 4.06867 16.7191 4.11026 16.7421C5.05362 17.2629 6.11032 17.5313 7.1758 17.5313C7.59411 17.5313 8.01384 17.4899 8.42853 17.4062L10.3541 17.0174V17.1931C10.3541 18.3308 9.42848 19.2565 8.29071 19.2565H2.9194ZM2.45497 12.9835L1.74791 11.1206L3.42202 10.7826C3.55459 11.2388 3.73105 11.6838 3.95112 12.1108C4.75678 13.6737 6.09564 14.9038 7.72117 15.5743L8.79044 16.0153L8.1729 16.14C7.00171 16.3765 5.78058 16.1887 4.73456 15.6113C3.6885 15.0338 2.87892 14.1005 2.45497 12.9835ZM4.57572 7.32226L5.14443 4.86802C5.14443 4.86802 7.48965 5.83567 7.49783 5.83907C6.92653 6.90924 6.6209 8.1113 6.6209 9.33872C6.6209 11.0971 7.24745 12.8039 8.38509 14.1446L8.78471 14.6156L8.21372 14.3801C6.8709 13.8262 5.76482 12.81 5.09931 11.5189C4.43376 10.2277 4.24783 8.73737 4.57572 7.32226ZM12.6299 5.36862C13.5698 6.47621 14.0874 7.88615 14.0874 9.33877C14.0874 10.7914 13.5698 12.2013 12.6299 13.3089L11 15.2298L9.37005 13.3089C8.43021 12.2013 7.91265 10.7914 7.91265 9.33877C7.91265 7.88619 8.43026 6.47621 9.37005 5.36862L11 3.4477L12.6299 5.36862ZM16.8556 4.86802L17.4243 7.32226C17.7522 8.73737 17.5662 10.2277 16.9007 11.5189C16.2352 12.81 15.1291 13.8262 13.7863 14.3801L13.2153 14.6156L13.615 14.1446C14.7526 12.8039 15.3792 11.0971 15.3792 9.33872C15.3792 8.1113 15.0736 6.90924 14.5023 5.83907C14.5103 5.83567 16.8556 4.86802 16.8556 4.86802Z" fill="#8C8C8C"/>
</g>
<defs>
<clipPath id="clip0_1903_1727">
<rect width="22" height="22" fill="white"/>
</clipPath>
</defs>
</svg>
