<svg width="22" height="22" viewBox="0 0 22 22" fill="none" xmlns="http://www.w3.org/2000/svg">
<path d="M2.75 20.168H19.25" stroke="white" stroke-opacity="0.5" stroke-width="1.5" stroke-linecap="round" stroke-linejoin="round"/>
<path d="M5.13331 7.67969H3.66667C3.1625 7.67969 2.75 8.09219 2.75 8.59635V16.498C2.75 17.0022 3.1625 17.4147 3.66667 17.4147H5.13331C5.63748 17.4147 6.04998 17.0022 6.04998 16.498V8.59635C6.04998 8.09219 5.63748 7.67969 5.13331 7.67969Z" stroke="white" stroke-opacity="0.5" stroke-width="1.5" stroke-linecap="round" stroke-linejoin="round"/>
<path d="M11.7334 4.75781H10.2668C9.7626 4.75781 9.3501 5.17031 9.3501 5.67448V16.5003C9.3501 17.0045 9.7626 17.417 10.2668 17.417H11.7334C12.2376 17.417 12.6501 17.0045 12.6501 16.5003V5.67448C12.6501 5.17031 12.2376 4.75781 11.7334 4.75781Z" stroke="white" stroke-opacity="0.5" stroke-width="1.5" stroke-linecap="round" stroke-linejoin="round"/>
<path d="M18.3333 1.83203H16.8666C16.3625 1.83203 15.95 2.24453 15.95 2.7487V16.4987C15.95 17.0029 16.3625 17.4154 16.8666 17.4154H18.3333C18.8374 17.4154 19.2499 17.0029 19.2499 16.4987V2.7487C19.2499 2.24453 18.8374 1.83203 18.3333 1.83203Z" stroke="white" stroke-opacity="0.5" stroke-width="1.5" stroke-linecap="round" stroke-linejoin="round"/>
</svg>
