<svg width="22" height="22" viewBox="0 0 22 22" fill="none" xmlns="http://www.w3.org/2000/svg">
<path d="M16.9308 15.4262L17.2883 18.3229C17.3799 19.0837 16.5641 19.6153 15.9133 19.2212L12.0724 16.9387C11.6508 16.9387 11.2383 16.9112 10.8349 16.8562C11.5133 16.0587 11.9166 15.0503 11.9166 13.9595C11.9166 11.3562 9.66161 9.24789 6.87494 9.24789C5.81161 9.24789 4.83078 9.55036 4.01495 10.082C3.98745 9.85286 3.97827 9.62369 3.97827 9.38536C3.97827 5.21452 7.59911 1.83203 12.0724 1.83203C16.5458 1.83203 20.1666 5.21452 20.1666 9.38536C20.1666 11.8604 18.8924 14.0512 16.9308 15.4262Z" stroke="#9A9A9A" stroke-width="1.5" stroke-linecap="round" stroke-linejoin="round"/>
<path d="M11.9166 13.9616C11.9166 15.0525 11.5133 16.0608 10.8349 16.8583C9.92743 17.9583 8.48825 18.6641 6.87492 18.6641L4.48242 20.085C4.07908 20.3325 3.56575 19.9933 3.62075 19.5258L3.84992 17.72C2.62158 16.8675 1.83325 15.5016 1.83325 13.9616C1.83325 12.3483 2.69492 10.9275 4.01492 10.0841C4.83076 9.55248 5.81159 9.25 6.87492 9.25C9.66159 9.25 11.9166 11.3583 11.9166 13.9616Z" stroke="#9A9A9A" stroke-width="1.5" stroke-linecap="round" stroke-linejoin="round"/>
</svg>
